<svg width="178" height="58" viewBox="0 0 178 58" fill="none" xmlns="http://www.w3.org/2000/svg">
<path d="M0.183467 45.3248H3.10583L9.78551 55.9829L16.4272 45.3248H19.3496V57.8193H17.9833V46.333H17.2243L10.1271 57.8193H9.42496L2.3278 46.333H1.54977V57.8193H0.183467V45.3248Z" fill="white"/>
<path d="M21.967 57.8193H20.4489L27.2804 45.3248H29.3678L36.1993 57.8193H34.6053L32.9164 54.6866H23.6559L21.967 57.8193ZM24.396 53.4264H32.2143L28.3051 46.2249L24.396 53.4264Z" fill="white"/>
<path d="M50.9952 54.2546H52.3615C52.3615 56.595 51.0711 57.8193 47.5795 57.8193H41.8107C38.2811 57.8193 36.9527 56.559 36.9527 53.3544V49.7536C36.9527 46.441 38.2811 45.1807 41.8107 45.1807H47.5795C50.7675 45.1807 52.3615 46.333 52.3615 48.7454H50.9952C50.9952 47.3412 50.2172 46.441 47.5985 46.441H41.8296C39.154 46.441 38.319 47.1971 38.319 49.7536V53.3544C38.319 55.8389 39.2109 56.559 41.8296 56.559H47.5985C50.1034 56.559 50.9952 55.8389 50.9952 54.2546Z" fill="white"/>
<path d="M53.692 45.3248H67.8863V46.585H61.4533V57.8193H60.087V46.585H53.692V45.3248Z" fill="white"/>
<path d="M69.2524 57.8193V45.3248H80.9229V46.585H70.6187V50.7258H80.6572V51.9861H70.6187V56.559H80.9229V57.8193H69.2524Z" fill="white"/>
<path d="M84.4768 52.6522V57.8193H83.1105V45.3248H91.9915C95.2554 45.3248 96.6217 46.369 96.6217 49.1775C96.6217 51.9681 95.3123 52.6522 92.0105 52.6522H84.4768ZM84.4768 46.585V51.392H92.5418C94.4774 51.392 95.2554 50.9779 95.2554 49.0515C95.2554 47.1791 94.5343 46.585 92.409 46.585H84.4768Z" fill="white"/>
<path d="M98.3382 57.8193V56.415H99.8184V57.8193H98.3382Z" fill="white"/>
<path d="M105.074 52.6522V57.8193H103.707V45.3248H112.588C115.852 45.3248 117.219 46.369 117.219 49.1775C117.219 51.9681 115.909 52.6522 112.607 52.6522H105.074ZM105.074 46.585V51.392H113.139C115.074 51.392 115.852 50.9779 115.852 49.0515C115.852 47.1791 115.131 46.585 113.006 46.585H105.074Z" fill="white"/>
<path d="M127.569 55.3348V47.5572H123.584C121.117 47.5572 120.055 48.2233 120.055 50.6538V52.2922C120.055 54.7226 121.022 55.3348 123.584 55.3348H127.569ZM128.936 47.5572V55.3348H132.94C135.501 55.3348 136.45 54.7407 136.45 52.3102V50.6718C136.45 48.2593 135.388 47.5572 132.94 47.5572H128.936ZM127.569 45.1807H128.936V46.297H132.921C136.64 46.297 137.817 47.7913 137.817 50.7619V52.3102C137.817 55.5328 136.488 56.595 132.921 56.595H128.936V57.8193H127.569V56.595H123.584C120.017 56.595 118.688 55.4968 118.688 52.3102V50.7619C118.688 47.5572 119.865 46.297 123.584 46.297H127.569V45.1807Z" fill="white"/>
<path d="M19.3496 45.3248H16.4272L9.78551 55.9829L3.10583 45.3248H0.183467V57.8193H1.54977V46.333H2.3278L9.42496 57.8193H10.1271L17.2243 46.333H17.9833V57.8193H19.3496V45.3248ZM29.4773 45.1446L29.5292 45.2389L36.5063 58H34.4954L32.8057 54.8668H23.7666L22.0769 58H20.142L27.1191 45.2389L27.171 45.1446H29.4773ZM67.8863 46.585V45.3248H53.692V46.585H60.087V57.8193H61.4533V46.585H67.8863ZM80.9229 56.559H70.6187V51.9861H80.6572V50.7258H70.6187V46.585H80.9229V45.3248H69.2524V57.8193H80.9229V56.559ZM96.6217 49.1775C96.6217 46.369 95.2554 45.3248 91.9915 45.3248L91.9912 45.1446C93.6342 45.1446 94.8467 45.4053 95.6471 46.0588C96.4565 46.7198 96.8052 47.7478 96.8052 49.1779C96.8051 50.5965 96.4718 51.5385 95.6606 52.1083C94.8685 52.6646 93.6613 52.8329 92.0109 52.833H84.6597V58H82.927V45.1446H91.9912L91.9915 45.3248H83.1105V57.8193H84.4768V52.6522H92.0105L92.606 52.6434C95.3755 52.5609 96.5435 51.8439 96.6181 49.4327L96.6217 49.1775ZM99.8184 56.415H98.3382V57.8193H99.8184V56.415ZM117.219 49.1775C117.219 46.5445 116.018 45.4618 113.178 45.3368L112.588 45.3248L112.588 45.1446C114.232 45.1446 115.444 45.4052 116.244 46.0588C117.054 46.7198 117.402 47.7478 117.402 49.1779C117.402 50.5964 117.069 51.5385 116.258 52.1083C115.466 52.6647 114.258 52.833 112.607 52.833H105.257V58H103.524V45.1446H112.588L112.588 45.3248H103.707V57.8193H105.074V52.6522H112.607L113.203 52.6434C115.972 52.5609 117.14 51.8438 117.215 49.4327L117.219 49.1775ZM137.817 52.3102V50.7619C137.817 47.7913 136.64 46.297 132.921 46.297L132.92 46.1161C134.798 46.1161 136.083 46.4928 136.893 47.2877C137.703 48.0833 138 49.2596 138 50.7621V52.3102C138 53.9391 137.665 55.0767 136.827 55.7969C135.995 56.511 134.712 56.7755 132.92 56.7755H129.119V58H127.386V56.7755H123.584C121.791 56.7754 120.508 56.5021 119.677 55.7837C118.84 55.0593 118.505 53.9218 118.505 52.3102V50.7621C118.505 49.1462 118.8 47.9652 119.615 47.1969C120.427 46.4312 121.713 46.1161 123.584 46.1161L123.584 46.297C119.865 46.297 118.688 47.5572 118.688 50.7619V52.3102L118.692 52.6029C118.773 55.5643 120.128 56.595 123.584 56.595H127.569V57.8193H128.936V56.595H132.921C136.377 56.595 137.732 55.5983 137.813 52.6064L137.817 52.3102ZM27.2804 45.3248L20.4489 57.8193H21.967L23.6559 54.6866H32.9164L34.6053 57.8193H36.1993L29.3678 45.3248H27.2804ZM47.5985 56.3787L47.5985 56.559H41.8296L41.8296 56.3787H47.5985ZM50.8123 54.255V54.0743H52.5449V54.255C52.5448 55.4578 52.2113 56.4113 51.394 57.0558C50.5864 57.6925 49.34 58 47.5797 58H41.8108C40.0318 58 38.7581 57.6837 37.9329 56.92C37.1046 56.1535 36.7695 54.9748 36.7695 53.354V49.7536C36.7695 48.0805 37.1037 46.8754 37.9311 46.0949C38.7566 45.3165 40.0319 45 41.8108 45L41.8107 45.1807L41.4859 45.1843C38.1993 45.2614 36.9527 46.5447 36.9527 49.7536V53.3544L36.9565 53.6493C37.0352 56.5402 38.3054 57.7412 41.4859 57.8157L41.8107 57.8193H47.5795L47.9001 57.8157C51.1502 57.7418 52.3614 56.5217 52.3615 54.2546H50.9952L50.985 54.5415C50.8779 55.9261 49.9468 56.559 47.5985 56.559L47.5985 56.3787C48.8419 56.3787 49.6419 56.198 50.1294 55.8542C50.6009 55.5217 50.8122 55.012 50.8123 54.255ZM136.267 52.3102V50.6722C136.267 49.4863 136.005 48.7736 135.494 48.3474C134.975 47.9146 134.156 47.7374 132.94 47.7374H129.119V55.1542H132.94L132.94 55.3348H128.936V47.5572H132.94C135.388 47.5572 136.45 48.2593 136.45 50.6718V52.3102L136.439 52.7448C136.326 54.8126 135.341 55.3347 132.94 55.3348L132.94 55.1542C134.22 55.1542 135.036 55.0022 135.539 54.5944C136.03 54.1954 136.267 53.5112 136.267 52.3102ZM120.055 52.2922V50.6538C120.055 48.3753 120.989 47.6475 123.138 47.5654L123.584 47.5572H127.569V55.3348H123.584L123.584 55.1542H127.386V47.7374H123.584C122.356 47.7374 121.533 47.9066 121.012 48.3333C120.5 48.7524 120.238 49.4584 120.238 50.6537V52.2926C120.238 53.4922 120.478 54.1818 120.975 54.5856C121.483 54.9981 122.305 55.1542 123.584 55.1542L123.584 55.3348L123.122 55.327C121.053 55.2559 120.174 54.6588 120.066 52.7272L120.055 52.2922ZM32.2143 53.4264H24.396L28.3051 46.2249L32.2143 53.4264ZM24.7018 53.2456H31.9089L28.3049 46.6071L24.7018 53.2456ZM95.0726 49.0518C95.0726 48.1302 94.8929 47.582 94.5087 47.2525C94.1169 46.9163 93.4662 46.7659 92.4092 46.7658H84.6597V51.2117H92.5416L92.5418 51.392H84.4768V46.585H92.409C94.5343 46.585 95.2554 47.1791 95.2554 49.0515L95.2462 49.3956C95.1535 51.0281 94.3563 51.392 92.5418 51.392L92.5416 51.2117C93.51 51.2117 94.1279 51.1044 94.5096 50.8035C94.8788 50.5123 95.0725 49.9995 95.0726 49.0518ZM115.669 49.0518C115.669 48.1304 115.49 47.5821 115.106 47.2525C114.714 46.9163 114.063 46.7658 113.006 46.7658H105.257V51.2117H113.139L113.139 51.392H105.074V46.585H113.006C115.131 46.585 115.852 47.1791 115.852 49.0515L115.843 49.3956C115.751 51.028 114.953 51.3919 113.139 51.392L113.139 51.2117C114.107 51.2117 114.725 51.1046 115.107 50.8035C115.476 50.5123 115.669 49.9995 115.669 49.0518ZM47.5797 45C49.1904 45 50.4327 45.2905 51.2759 45.9142C52.1292 46.5455 52.5448 47.4963 52.5449 48.745V48.9257H50.8123V48.745C50.8122 48.0769 50.6283 47.5641 50.1661 47.2093C49.6925 46.8457 48.8936 46.6213 47.5985 46.6213H41.8296C40.4968 46.6213 39.685 46.813 39.1975 47.2692C38.7128 47.723 38.5021 48.4833 38.5021 49.7536V53.354C38.5021 54.5849 38.7256 55.3179 39.2154 55.7546C39.7107 56.196 40.5249 56.3787 41.8296 56.3787L41.8296 56.559C39.2109 56.559 38.319 55.8389 38.319 53.3544V49.7536C38.319 47.3571 39.0528 46.5427 41.349 46.4502L41.8296 46.441H47.5985C50.2172 46.441 50.9952 47.3412 50.9952 48.7454H52.3615C52.3614 46.4087 50.8655 45.2542 47.8741 45.1843L47.5795 45.1807L47.5797 45ZM128.936 45.1807H127.569V46.297H123.584L123.584 46.1161H127.386V45H129.119V46.1161H132.92L132.921 46.297H128.936V45.1807ZM47.5797 45L47.5795 45.1807H41.8107L41.8108 45H47.5797ZM100.002 58H98.1548V56.2342H100.002V58ZM19.5325 58H17.7999V46.5137H17.3273L10.284 57.9127L10.2303 58H9.32191L9.26821 57.9127L2.22487 46.5137H1.73264V58H0V45.1446H3.20843L9.7846 55.6382L16.2713 45.2301L16.325 45.1446H19.5325V58ZM68.0698 46.7658H61.6368V58H59.9033V46.7658H53.5088V45.1446H68.0698V46.7658ZM81.1058 46.7658H70.8021V50.5452H80.8409V52.1665H70.8021V56.3787H81.1058V58H69.0695V45.1446H81.1058V46.7658Z" fill="white"/>
<path d="M5.18431 0.410257H42.2444V36H33.7237V7.48718H13.7051V23.0769C13.7051 32.2051 9.95798 36 3.59309 36H0V28.9231C4.36303 28.9231 5.18431 27.2821 5.18431 22.1026V0.410257Z" fill="white"/>
<path d="M73.1257 22.9744C73.1257 27.641 74.6143 28.9231 79.7986 28.9231H114.423C119.864 28.9231 121.096 27.7436 121.096 22.9231V13.4359C121.096 8.25641 119.351 7.07692 114.269 7.07692H79.9526C74.6143 7.07692 73.1257 8.41026 73.1257 13.4872V22.9744ZM56.0329 21.1282V36H47.5121V0.410257H56.0329V14.0513H64.6049V12.6154C64.6049 2.87179 64.6049 0 77.7454 0H116.733C129.616 0 129.616 2.61538 129.616 12.6154V23.8462C129.616 32.7179 129.616 36 116.733 36H77.7454C64.6049 36 64.6049 32.4615 64.6049 23.8462V21.1282H56.0329Z" fill="white"/>
<path d="M143.814 0.410257V13.6923H148.845L164.398 0.410257H177.179L156.185 17.0769L178 36H165.476L148.999 20.7692H143.814V36H135.294V0.410257H143.814Z" fill="white"/>
<path d="M103 17C103 15.3431 103 14 106 14H112C115 14 115 15.3431 115 17V19C115 20.6569 115 22 112 22H106C103 22 103 20.6569 103 19V17Z" fill="#EC1314"/>
</svg>
