<svg width="35" height="40" viewBox="0 0 35 40" fill="none" xmlns="http://www.w3.org/2000/svg">
<path d="M33.6538 27.4533V18C33.6522 17.4701 33.439 16.9623 33.0607 16.5875C32.6823 16.2128 32.1697 16.0016 31.6346 16H26.9231V0.666667C26.9231 0.489856 26.8522 0.320286 26.7259 0.195262C26.5997 0.0702379 26.4285 0 26.25 0H7.40385C7.22534 0 7.05413 0.0702379 6.92791 0.195262C6.80168 0.320286 6.73077 0.489856 6.73077 0.666667V16H3.36538C2.47283 16 1.61683 16.3512 0.985698 16.9763C0.354566 17.6014 0 18.4493 0 19.3333V36.6667C0 37.5507 0.354566 38.3986 0.985698 39.0237C1.61683 39.6488 2.47283 40 3.36538 40H31.6346C32.1697 39.9984 32.6823 39.7872 33.0607 39.4125C33.439 39.0377 33.6522 38.5299 33.6538 38V33.88C34.0461 33.7416 34.3857 33.4869 34.6266 33.1505C34.8675 32.8141 34.9979 32.4124 35 32V29.3333C34.9979 28.9209 34.8675 28.5192 34.6266 28.1828C34.3857 27.8464 34.0461 27.5917 33.6538 27.4533ZM8.07692 1.33333H25.5769V18.6667H24.2308V6.47333C24.2308 6.32909 24.1835 6.18873 24.0962 6.07333C24.0088 5.95794 23.886 5.87372 23.7462 5.83333C23.1032 5.64597 22.518 5.30185 22.0441 4.83248C21.5702 4.3631 21.2228 3.78347 21.0337 3.14667C20.9929 3.00819 20.9079 2.88655 20.7913 2.8C20.6748 2.71345 20.5331 2.66667 20.3875 2.66667H13.2663C13.1207 2.66667 12.979 2.71345 12.8625 2.8C12.746 2.88655 12.661 3.00819 12.6202 3.14667C12.431 3.78347 12.0836 4.3631 11.6097 4.83248C11.1358 5.30185 10.5506 5.64597 9.90769 5.83333C9.76788 5.87372 9.64507 5.95794 9.55769 6.07333C9.47031 6.18873 9.42308 6.32909 9.42308 6.47333V18.6667H8.07692V1.33333ZM22.8846 6.94667V18.6667H10.7692V6.94667C11.4408 6.6807 12.0507 6.28237 12.5621 5.77584C13.0735 5.2693 13.4757 4.66514 13.7442 4H19.9096C20.1781 4.66514 20.5803 5.2693 21.0917 5.77584C21.6031 6.28237 22.2131 6.6807 22.8846 6.94667ZM1.93173 17.92C2.31294 17.545 2.82814 17.3342 3.36538 17.3333H6.73077V18.6667H3.36538C3.18687 18.6667 3.01567 18.7369 2.88945 18.8619C2.76322 18.987 2.69231 19.1565 2.69231 19.3333C2.69231 19.5101 2.76322 19.6797 2.88945 19.8047C3.01567 19.9298 3.18687 20 3.36538 20H30.2885C30.467 20 30.6382 19.9298 30.7644 19.8047C30.8906 19.6797 30.9615 19.5101 30.9615 19.3333C30.9615 19.1565 30.8906 18.987 30.7644 18.8619C30.6382 18.7369 30.467 18.6667 30.2885 18.6667H26.9231V17.3333H31.6346C31.8131 17.3333 31.9843 17.4036 32.1106 17.5286C32.2368 17.6536 32.3077 17.8232 32.3077 18V21.3333H3.36538C2.96642 21.3327 2.57654 21.2153 2.24482 20.9957C1.91309 20.7762 1.65432 20.4643 1.50108 20.0995C1.34784 19.7346 1.30696 19.333 1.38358 18.9452C1.46021 18.5574 1.65093 18.2007 1.93173 17.92ZM32.3077 38C32.3077 38.1768 32.2368 38.3464 32.1106 38.4714C31.9843 38.5964 31.8131 38.6667 31.6346 38.6667H3.36538C2.83034 38.6651 2.31767 38.4539 1.93934 38.0791C1.561 37.7044 1.34775 37.1966 1.34615 36.6667V21.98C1.92434 22.4232 2.63426 22.6646 3.36538 22.6667H32.3077V27.3333H26.9231C26.388 27.3349 25.8754 27.5461 25.497 27.9209C25.1187 28.2956 24.9054 28.8034 24.9038 29.3333V32C24.9054 32.5299 25.1187 33.0377 25.497 33.4125C25.8754 33.7872 26.388 33.9984 26.9231 34H32.3077V38ZM33.6538 32C33.6538 32.1768 33.5829 32.3464 33.4567 32.4714C33.3305 32.5964 33.1593 32.6667 32.9808 32.6667H26.9231C26.7446 32.6667 26.5734 32.5964 26.4471 32.4714C26.3209 32.3464 26.25 32.1768 26.25 32V29.3333C26.25 29.1565 26.3209 28.987 26.4471 28.8619C26.5734 28.7369 26.7446 28.6667 26.9231 28.6667H32.9808C33.1593 28.6667 33.3305 28.7369 33.4567 28.8619C33.5829 28.987 33.6538 29.1565 33.6538 29.3333V32Z" fill="#EC1314"/>
<path d="M28.268 30H27.595C27.4164 30 27.2452 30.0702 27.119 30.1953C26.9928 30.3203 26.9219 30.4899 26.9219 30.6667C26.9219 30.8435 26.9928 31.013 27.119 31.1381C27.2452 31.2631 27.4164 31.3333 27.595 31.3333H28.268C28.4465 31.3333 28.6177 31.2631 28.744 31.1381C28.8702 31.013 28.9411 30.8435 28.9411 30.6667C28.9411 30.4899 28.8702 30.3203 28.744 30.1953C28.6177 30.0702 28.4465 30 28.268 30Z" fill="#EC1314"/>
<path d="M6.05679 36H4.71064C4.53213 36 4.36093 35.9298 4.2347 35.8047C4.10847 35.6797 4.03756 35.5101 4.03756 35.3333V34C4.03756 33.8232 3.96665 33.6536 3.84042 33.5286C3.71419 33.4036 3.54299 33.3333 3.36448 33.3333C3.18597 33.3333 3.01477 33.4036 2.88855 33.5286C2.76232 33.6536 2.69141 33.8232 2.69141 34V35.3333C2.69141 35.8638 2.90415 36.3725 3.28282 36.7475C3.6615 37.1226 4.1751 37.3333 4.71064 37.3333H6.05679C6.2353 37.3333 6.4065 37.2631 6.53273 37.1381C6.65895 37.0131 6.72987 36.8435 6.72987 36.6667C6.72987 36.4899 6.65895 36.3203 6.53273 36.1953C6.4065 36.0702 6.2353 36 6.05679 36Z" fill="#EC1314"/>
<path d="M16.8254 10C17.0039 10 17.1751 9.92976 17.3014 9.80474C17.4276 9.67971 17.4985 9.51014 17.4985 9.33333V7.33333C17.4985 7.15652 17.4276 6.98695 17.3014 6.86193C17.1751 6.7369 17.0039 6.66667 16.8254 6.66667C16.6469 6.66667 16.4757 6.7369 16.3495 6.86193C16.2233 6.98695 16.1523 7.15652 16.1523 7.33333V9.33333C16.1523 9.51014 16.2233 9.67971 16.3495 9.80474C16.4757 9.92976 16.6469 10 16.8254 10Z" fill="#EC1314"/>
</svg>
