<svg width="105" height="21" viewBox="0 0 105 21" fill="none" xmlns="http://www.w3.org/2000/svg">
<g clip-path="url(#clip0_161_3325)">
<path d="M9.24872 13.225L7.8012 17.2784L5.91546 12.0257L5.02819 14.5083L7.02396 20.0667C7.08363 20.2324 7.19057 20.3747 7.32967 20.4754C7.46775 20.5758 7.63392 20.6298 7.80442 20.6297C7.97492 20.6295 8.14101 20.5753 8.27893 20.4747C8.41841 20.3735 8.52457 20.23 8.58385 20.064L10.5308 14.6149L9.63889 12.1345L9.24872 13.2246V13.225ZM28.1387 0.292488C28.0365 0.252903 27.9274 0.234657 27.818 0.23887C27.7086 0.243083 27.6013 0.269665 27.5025 0.316988C27.2995 0.415068 27.1434 0.58985 27.0685 0.803099L21.1831 17.2834L15.2453 0.744377C15.1819 0.565177 15.0612 0.412051 14.9021 0.308822C14.7452 0.207442 14.5582 0.16367 14.3728 0.184935C14.1874 0.206201 14.0151 0.291193 13.885 0.425488C13.7521 0.559655 13.6657 0.736599 13.6397 0.927933L11.7238 6.30004L12.6157 8.77999L14.4813 3.55682L20.4066 20.0562C20.4663 20.2219 20.5732 20.3646 20.7123 20.4653C20.8518 20.5657 21.0169 20.6197 21.1866 20.6201C21.3563 20.6197 21.5221 20.5653 21.6616 20.4642C21.8011 20.363 21.9072 20.2195 21.9665 20.0535L28.6284 1.40627C28.7043 1.19037 28.6954 0.95356 28.6036 0.743988C28.5142 0.537669 28.347 0.375311 28.1387 0.292488ZM3.47644 5.23138L1.86579 0.744377C1.84788 0.695586 1.82571 0.648477 1.79954 0.603599L1.77396 0.563544C1.75458 0.533846 1.73336 0.505401 1.71042 0.478377L1.6771 0.441433C1.65078 0.414672 1.62269 0.389726 1.59302 0.366766L1.56513 0.343044C1.52569 0.314495 1.48381 0.289508 1.43998 0.268377L1.40433 0.255155C1.37122 0.240592 1.33718 0.22825 1.30243 0.21821H1.254L1.15481 0.204599H0.950625C0.904695 0.213134 0.859584 0.225625 0.815791 0.241933H0.797968C0.694771 0.28223 0.600695 0.342932 0.521326 0.420433C0.441123 0.49821 0.376806 0.591933 0.331474 0.695766C0.239627 0.906658 0.232272 1.14496 0.310938 1.36115L2.94136 8.68471L3.82824 6.20204L3.47644 5.23177V5.23138Z" fill="white"/>
<path d="M8.52775 0.744164C8.46917 0.580137 8.36262 0.437681 8.22204 0.335442C8.08406 0.235181 7.91815 0.181032 7.7478 0.180664C7.5781 0.180664 7.41227 0.235109 7.27278 0.33622C7.1333 0.437331 7.02714 0.580831 6.96786 0.746886L0.306362 19.405C0.215098 19.6245 0.214262 19.8713 0.304037 20.0914C0.348594 20.1999 0.413686 20.2979 0.495439 20.3792C0.576804 20.4608 0.673668 20.5242 0.780218 20.5654C0.885947 20.6066 0.999138 20.6248 1.11238 20.619C1.22562 20.6131 1.33636 20.5834 1.43734 20.5316C1.53885 20.4799 1.62952 20.4072 1.70313 20.3173C1.77675 20.2279 1.83216 20.1237 1.86586 20.0109L7.7509 3.52978L13.6859 20.0587C13.7208 20.1703 13.777 20.273 13.851 20.3613C13.9254 20.4492 14.0156 20.5207 14.1168 20.5713C14.269 20.6479 14.4415 20.6744 14.6096 20.6468C14.7777 20.6192 14.9329 20.539 15.0529 20.4177C15.1342 20.3368 15.1989 20.2396 15.2435 20.1318C15.3333 19.9137 15.3342 19.6689 15.2458 19.4501L8.52736 0.744164H8.52775Z" fill="white"/>
<path d="M37.448 9.27742H31.6222L30.4932 12.3609H29.5625L34.079 0.239258H35.0089L39.5022 12.3609H38.5724L37.448 9.27704V9.27742ZM37.1322 8.41059L34.5428 1.36392L31.9535 8.41059H37.1322Z" fill="white"/>
<path d="M39.7573 12.5338H38.4826L37.354 9.45263H31.7475L30.6181 12.5334H29.3438L33.9874 0.0664062H35.1443L39.7573 12.5334V12.5338ZM38.6996 12.1877H39.273L34.9026 0.414462H34.1989L29.818 12.1877H30.3914L31.5205 9.10691H37.5752L38.6992 12.1877H38.6996ZM37.3823 8.5858H31.7138L34.5453 0.87724L37.3819 8.5858H37.3823ZM32.1958 8.24046H36.8925L34.5453 1.86074L32.1958 8.24046ZM41.2173 8.03046C41.2059 7.43201 41.3114 6.83711 41.5276 6.27929C41.7413 5.72678 42.0627 5.22264 42.473 4.79646C42.8776 4.37653 43.364 4.04467 43.9019 3.82152C44.4345 3.60104 45.0073 3.49544 45.5831 3.51157C47.2089 3.51157 48.6056 4.37802 49.2019 5.72824L48.5216 6.14318C48.0399 5.05313 46.9109 4.34341 45.5831 4.34341C44.6451 4.34341 43.7458 4.7323 43.0829 5.42374C42.4195 6.11557 42.0468 7.05318 42.0468 8.03163C42.0468 9.01007 42.4195 9.94807 43.0829 10.6399C43.7458 11.3314 44.6451 11.7199 45.5831 11.7199C46.194 11.7348 46.7965 11.5747 47.3201 11.2582C47.852 10.9361 48.2854 10.4733 48.5727 9.92046L49.2709 10.3537C48.9148 11.032 48.3797 11.5989 47.7242 11.9925C47.0788 12.3791 46.3371 12.5732 45.5858 12.5521C45.0095 12.5685 44.4362 12.4631 43.9031 12.2425C43.3647 12.0195 42.8779 11.6874 42.473 11.2672C42.0622 10.8407 41.7406 10.3362 41.5268 9.78318C41.3106 9.22483 41.2055 8.62938 41.2173 8.03046Z" fill="white"/>
<path d="M45.5835 12.7251C44.3901 12.7251 43.246 12.2304 42.4021 11.3504C41.5582 10.4703 41.084 9.27681 41.084 8.03198C41.084 6.78753 41.5582 5.59364 42.4021 4.71359C43.246 3.83314 44.3901 3.33887 45.5835 3.33887C47.2759 3.33887 48.7207 4.2267 49.353 5.65664L49.4166 5.80053L48.4483 6.37998L48.3716 6.20692C47.9078 5.15692 46.8427 4.50592 45.5835 4.50592C44.6896 4.50592 43.8326 4.87614 43.2003 5.53531C42.5683 6.19487 42.213 7.08892 42.213 8.02148C42.213 8.95365 42.5683 9.8477 43.2003 10.5073C43.8326 11.1664 44.6896 11.5366 45.5835 11.5366C46.1631 11.5524 46.7352 11.4018 47.2325 11.1026C47.7376 10.7981 48.1495 10.3597 48.4227 9.83564L48.5041 9.6762L49.4855 10.2848L49.4142 10.431C49.0443 11.137 48.4884 11.7275 47.8071 12.1383C47.1363 12.5415 46.3651 12.745 45.5835 12.7251ZM45.5835 3.68731C44.4785 3.68731 43.4188 4.14503 42.6373 4.96014C41.8558 5.77526 41.4168 6.88048 41.4168 8.03314C41.4168 9.18581 41.8558 10.2914 42.6373 11.1065C43.4188 11.9216 44.4785 12.3794 45.5835 12.3794C46.2774 12.3978 46.9632 12.2261 47.5672 11.8828C48.1803 11.5336 48.6907 11.0283 49.0469 10.4178L48.6343 10.1518C48.32 10.6915 47.8695 11.1385 47.3282 11.4476C46.7949 11.7514 46.1892 11.9036 45.5761 11.8878C44.611 11.8614 43.6943 11.4429 43.0205 10.7215C42.3471 10.0005 41.9701 9.03376 41.9701 8.02653C41.9701 7.0197 42.3471 6.05292 43.0205 5.33153C43.6943 4.61014 44.611 4.19209 45.5761 4.16564C46.8962 4.16564 48.0303 4.82481 48.5832 5.8962L48.9784 5.65431C48.3794 4.43942 47.0899 3.68459 45.5835 3.68459V3.68692V3.68731ZM55.612 3.58037V4.41259C54.185 4.41259 52.8393 5.32959 52.8393 7.54664V12.3607H52.0082V3.70209H52.8393V5.39803C53.405 4.03187 54.4829 3.57998 55.612 3.57998V3.58037Z" fill="white"/>
<path d="M53.01 12.5339H51.8477V3.53031H53.01V4.7242C53.578 3.86009 54.4676 3.4082 55.6172 3.4082H55.7826V4.58576H55.6172C54.358 4.58576 53.01 5.3647 53.01 7.54715V12.5339ZM52.1789 12.1881H52.6888V7.54715C52.6888 5.20487 54.1464 4.31159 55.4614 4.24276V3.75665C54.2816 3.80409 53.456 4.37848 53.0073 5.46543L52.6888 6.23659V3.87331H52.1789V12.1878V12.1881ZM57.1383 8.03054C57.1323 7.13466 57.3829 6.25592 57.8602 5.49887C58.3281 4.75457 59.0069 4.16753 59.8095 3.81304C60.6014 3.465 61.4809 3.37036 62.3283 3.54198C63.1816 3.7174 63.9619 4.14831 64.5662 4.77787C65.1827 5.41959 65.6003 6.22723 65.7681 7.10265C65.939 7.98465 65.8553 8.89931 65.5275 9.73193C65.2052 10.5569 64.6481 11.2684 63.9258 11.7779C63.2161 12.2775 62.371 12.5469 61.5042 12.5498C60.9301 12.5584 60.3605 12.4475 59.8311 12.2243C59.2966 11.9986 58.8132 11.6665 58.41 11.2482C58.0011 10.8235 57.6794 10.3223 57.463 9.77315C57.2445 9.21867 57.1343 8.62719 57.1383 8.03093V8.03054ZM65.0083 8.03054C65.0048 7.31007 64.7953 6.60577 64.4047 6.00131C64.0217 5.40695 63.4708 4.94086 62.8223 4.66276C62.1822 4.38966 61.474 4.32082 60.7936 4.46559C60.1083 4.61353 59.4837 4.96599 59.0016 5.4767C58.5099 5.99724 58.1791 6.64968 58.0492 7.35504C57.9166 8.06534 57.9888 8.79888 58.2573 9.46943C58.5205 10.1313 58.9719 10.7008 59.5553 11.107C60.1285 11.5056 60.8095 11.7187 61.5069 11.7176C61.9714 11.7206 62.4315 11.6272 62.8583 11.443C63.2894 11.2565 63.6783 10.9842 64.0017 10.6427C64.3297 10.2965 64.5865 9.8888 64.7576 9.44298C64.9311 8.99291 65.0162 8.51343 65.0083 8.03093V8.03054Z" fill="white"/>
<path d="M61.5066 12.7253C60.6135 12.7202 59.7432 12.4411 59.0126 11.9254C58.2689 11.3995 57.6956 10.6661 57.3636 9.81604C57.0256 8.95503 56.9394 8.0151 57.1152 7.10665C57.2872 6.20438 57.7163 5.37156 58.3504 4.70915C58.972 4.05946 59.7748 3.61372 60.6535 3.43048C61.5262 3.25107 62.4327 3.34542 63.2502 3.70076C64.0785 4.06274 64.7804 4.66446 65.2661 5.42898C65.7613 6.20662 66.0239 7.11047 66.0228 8.03337C66.0272 8.65104 65.9132 9.2638 65.6869 9.8382C65.4635 10.4073 65.131 10.9268 64.7082 11.3673C64.2914 11.8015 63.7915 12.1468 63.2385 12.3823C62.6888 12.6156 62.1002 12.7323 61.5066 12.7253ZM61.5066 3.68754C60.6793 3.69231 59.8733 3.95095 59.1966 4.42876C58.508 4.916 57.977 5.5955 57.6697 6.38292C57.3569 7.18062 57.2772 8.05127 57.4399 8.89281C57.5995 9.72852 57.997 10.4999 58.5845 11.1134C59.1604 11.7151 59.9042 12.1279 60.7182 12.2975C61.5265 12.4637 62.3663 12.3763 63.1235 12.0471C63.8906 11.7116 64.5407 11.1542 64.9906 10.446C65.4493 9.72562 65.6925 8.88831 65.6915 8.03337C65.6959 7.46089 65.5905 6.89291 65.3812 6.36037C65.1739 5.83307 64.8658 5.35163 64.4741 4.94326C64.0879 4.54063 63.6245 4.22052 63.1119 4.00215C62.6043 3.78643 62.0578 3.67826 61.5066 3.68442V3.68715V3.68754ZM61.5066 11.8958C60.7696 11.9017 60.0485 11.6804 59.4407 11.2619C58.822 10.8351 58.3425 10.2347 58.0622 9.53565C57.7765 8.82768 57.6986 8.05243 57.8378 7.30148C57.974 6.55531 58.3235 5.865 58.8437 5.31465C59.3534 4.77477 60.0143 4.40281 60.7391 4.24792C61.4586 4.0961 62.2072 4.17079 62.8829 4.46181C63.5676 4.75822 64.1482 5.25353 64.5501 5.88398C64.9601 6.52526 65.1776 7.27141 65.1766 8.03337C65.1829 8.53839 65.0925 9.03994 64.9104 9.51076C64.7302 9.97705 64.4608 10.4034 64.1173 10.7657C63.7787 11.1229 63.3718 11.4078 62.9208 11.6034C62.4743 11.7965 61.9929 11.8951 61.5066 11.8931V11.8958ZM61.5066 4.51937C60.8358 4.51354 60.1794 4.71443 59.6259 5.09492C59.0628 5.48281 58.6261 6.02876 58.3706 6.66448C58.1102 7.30863 58.039 8.01411 58.1652 8.69759C58.2889 9.37659 58.6066 10.0049 59.0796 10.5059C59.5433 10.9974 60.1446 11.3362 60.8042 11.4774C61.459 11.6157 62.1404 11.548 62.7554 11.2833C63.3784 11.0136 63.9068 10.563 64.2727 9.98948C64.6458 9.40588 64.8438 8.72683 64.843 8.03337C64.8486 7.57412 64.7665 7.11804 64.6012 6.68976C64.4376 6.26545 64.1928 5.87741 63.8806 5.54759C63.5728 5.22234 63.2027 4.96283 62.7926 4.78459C62.3867 4.60837 61.9489 4.51808 61.5066 4.51937ZM68.031 0.239258H68.9612L71.9659 11.1383L75.2027 0.239258H76.2477L79.5019 11.1383L82.4915 0.239258H83.4218L80.0498 12.3609H78.9874L75.7328 1.43548L72.463 12.3609H71.4003L68.031 0.239258Z" fill="white"/>
<path d="M80.1742 12.5338H78.8642L75.732 2.01746L72.5847 12.5334H71.2748L67.8086 0.0664062H69.0829L71.9706 10.5264L75.0796 0.0664062H76.3694L79.4938 10.5264L82.3633 0.0664062H83.6376L80.1742 12.5334V12.5338ZM79.1091 12.1877H79.9243L83.1994 0.414462H82.6155L79.514 11.7362L76.1323 0.41174H75.3318L71.9652 11.7362L68.8408 0.41174H68.2495L71.5243 12.1854H72.3399L75.732 0.850406L79.1091 12.1877ZM92.9981 8.06468C92.9981 8.20313 92.9803 8.33068 92.9803 8.47963H85.4622C85.6609 10.4357 87.0883 11.7171 88.9818 11.7171C90.3429 11.7171 91.3724 11.058 91.854 10.141L92.5855 10.5901C91.9051 11.7677 90.6103 12.5466 88.9667 12.5466C86.418 12.5466 84.6008 10.6407 84.6008 8.02774C84.6008 5.48091 86.3595 3.50885 88.9004 3.50885C91.441 3.50885 92.9981 5.69363 92.9981 8.06468ZM85.4622 7.63146H92.1368C91.9536 5.51824 90.5262 4.34068 88.9004 4.34068C88.0287 4.31424 87.1817 4.64402 86.5397 5.25885C85.8977 5.87407 85.511 6.72613 85.4622 7.63418V7.63146Z" fill="white"/>
<path d="M88.9649 12.7253C86.3399 12.7253 84.4336 10.7529 84.4336 8.03337C84.4336 5.31426 86.312 3.34181 88.8986 3.34181C91.6689 3.34181 93.1649 5.77665 93.1649 8.06798V8.65559H85.6517C85.9067 10.3939 87.2267 11.5478 88.9827 11.5478C90.2008 11.5478 91.2202 10.992 91.7096 10.0618L91.7913 9.9047L92.8107 10.5347L92.7239 10.6836C91.9773 11.981 90.6061 12.7253 88.9649 12.7253ZM88.8986 3.68754C86.503 3.68754 84.7649 5.51609 84.7649 8.03337C84.7649 10.551 86.5309 12.3796 88.9649 12.3796C90.4225 12.3796 91.646 11.7523 92.352 10.6545L91.9111 10.3889C91.3376 11.3378 90.2543 11.9013 88.9804 11.9013C86.9823 11.9013 85.5014 10.5374 85.2949 8.50937L85.2748 8.31804H92.8181V8.07615C92.8336 5.94115 91.4546 3.68481 88.8986 3.68481V3.68715V3.68754ZM92.3187 7.80742H85.2798L85.2949 7.61881C85.3488 6.66837 85.7544 5.77665 86.4263 5.13226C87.0981 4.48748 87.9834 4.1402 88.8959 4.16315C90.7541 4.16315 92.1199 5.54798 92.2985 7.61881L92.3187 7.80742ZM85.6494 7.46209H91.9518C91.7251 5.6942 90.5193 4.51937 88.8936 4.51937C88.0907 4.49106 87.3087 4.77899 86.7145 5.32165C86.1117 5.86726 85.73 6.63142 85.6467 7.45937L85.6494 7.46209ZM104.554 8.03065C104.562 8.62221 104.456 9.20972 104.243 9.7612C104.032 10.3075 103.716 10.8069 103.314 11.2312C102.917 11.6493 102.44 11.9826 101.912 12.2112C101.388 12.4372 100.824 12.5524 100.255 12.5495C99.5201 12.5651 98.7964 12.3674 98.1708 11.9802C97.5351 11.5859 97.0213 11.0219 96.6868 10.3511V12.3609H95.8561V0.239258H96.6868V5.71015C97.0212 5.03928 97.535 4.47508 98.1708 4.0807C98.7964 3.69369 99.5201 3.49614 100.255 3.51176C100.823 3.50826 101.386 3.62337 101.912 3.85009C102.44 4.07866 102.917 4.41199 103.314 4.83009C103.716 5.25441 104.032 5.75384 104.243 6.30009C104.456 6.84959 104.562 7.43798 104.554 8.03065ZM103.723 8.03065C103.722 7.30857 103.513 6.60222 103.123 5.99559C102.741 5.39911 102.19 4.93073 101.54 4.65042C100.9 4.37534 100.19 4.30474 99.5079 4.4482C98.821 4.5945 98.1943 4.94588 97.7101 5.4562C97.216 5.97655 96.8829 6.62956 96.7511 7.33609C96.6164 8.04741 96.6867 8.78254 96.9538 9.45515C97.216 10.1191 97.6668 10.6911 98.2502 11.1001C98.8235 11.5012 99.5053 11.7167 100.204 11.7177C100.67 11.7214 101.131 11.6285 101.559 11.4447C101.992 11.2588 102.382 10.9869 102.707 10.6455C103.037 10.2993 103.296 9.8914 103.469 9.44503C103.645 8.9945 103.732 8.51429 103.726 8.03065H103.723Z" fill="white"/>
<path d="M100.255 12.7247C99.5893 12.7413 98.9306 12.5888 98.3397 12.2814C97.7409 11.9695 97.2275 11.5148 96.8446 10.9572V12.5334H95.6826V0.0664062H96.8446V5.11691C97.227 4.56089 97.7393 4.10733 98.3366 3.79585C98.9261 3.48917 99.583 3.33656 100.247 3.35213C101.44 3.35213 102.585 3.84641 103.429 4.72646C104.272 5.60652 104.746 6.80041 104.746 8.04524C104.746 9.28968 104.272 10.4836 103.429 11.3636C102.585 12.2437 101.44 12.738 100.247 12.738L100.255 12.7247ZM96.5183 9.65991L96.8318 10.2712C97.1511 10.9159 97.6438 11.4579 98.2541 11.8361C98.8546 12.2076 99.5494 12.3963 100.255 12.3794C101.36 12.3794 102.42 11.9213 103.201 11.1062C103.982 10.2911 104.421 9.18585 104.421 8.03318C104.421 6.88052 103.982 5.77491 103.201 4.9598C102.42 4.14468 101.36 3.68696 100.255 3.68696C99.5495 3.66991 98.8546 3.85849 98.2541 4.22985C97.6438 4.60806 97.1511 5.15012 96.8318 5.79474L96.5183 6.40607V0.412128H96.0088V12.1854H96.5183V9.65991ZM100.203 11.8956C99.4669 11.8983 98.7472 11.6743 98.1414 11.254C97.5247 10.8252 97.0477 10.2235 96.7698 9.52418C96.4865 8.81594 96.4108 8.04117 96.5516 7.29118C96.6898 6.54619 97.0404 5.85746 97.561 5.30863C98.0714 4.77033 98.7324 4.39991 99.4568 4.24618C100.176 4.09567 100.924 4.17131 101.599 4.4628C102.282 4.75978 102.862 5.25517 103.264 5.88535C103.673 6.52633 103.89 7.27188 103.889 8.03318C103.895 8.53949 103.804 9.04228 103.621 9.51407C103.44 9.98133 103.169 10.4084 102.824 10.771C102.484 11.1282 102.075 11.4126 101.622 11.6071C101.174 11.7996 100.691 11.8969 100.203 11.8929V11.8956ZM100.203 4.5188C99.5333 4.51663 98.8787 4.72062 98.3277 5.1033C97.7668 5.49342 97.3328 6.04084 97.0801 6.67713C96.8224 7.3215 96.7537 8.02641 96.8821 8.70868C97.0078 9.38645 97.3268 10.013 97.8004 10.5124C98.2649 11.0019 98.8663 11.3387 99.5254 11.4784C100.18 11.6152 100.86 11.5464 101.474 11.2812C102.096 11.0111 102.623 10.5603 102.988 9.98696C103.361 9.40398 103.558 8.72576 103.558 8.03318C103.563 7.57225 103.481 7.11448 103.314 6.68491C103.15 6.25939 102.903 5.87052 102.589 5.54041C102.279 5.21492 101.907 4.95576 101.495 4.77857C101.087 4.60351 100.647 4.51506 100.203 4.5188ZM35.2107 16.3138L33.8957 20.6437H33.4393L32.2847 16.957L31.1304 20.6437H30.6748L29.3613 16.3161H29.8177L30.9212 20.0829L32.0836 16.3161H32.5137L33.676 20.0829L34.7795 16.3161L35.2103 16.3134L35.2107 16.3138ZM39.7575 18.4959V18.7031H36.0007C36.0341 19.154 36.2363 19.5754 36.5668 19.8826C36.7268 20.0313 36.9146 20.1466 37.1193 20.2221C37.324 20.2975 37.5415 20.3315 37.7594 20.3221C38.0463 20.3371 38.3316 20.2708 38.5827 20.1307C38.8375 19.988 39.0489 19.7785 39.1941 19.5245L39.5587 19.7504C39.3685 20.0621 39.0997 20.3181 38.7796 20.4924C38.4638 20.6637 38.1075 20.7454 37.7489 20.7289C37.4624 20.7302 37.1786 20.6734 36.9145 20.5618C36.6504 20.4502 36.4115 20.2861 36.2123 20.0794C35.8002 19.652 35.5688 19.0813 35.5664 18.4865C35.5603 17.8917 35.7834 17.3175 36.189 16.8839C36.3851 16.6741 36.6214 16.5063 36.8838 16.3905C37.1461 16.2747 37.429 16.2133 37.7156 16.21C38.9799 16.215 39.7575 17.3105 39.7575 18.4959ZM35.988 18.2804H39.3239C39.2325 17.2172 38.5188 16.6354 37.7059 16.6354C37.4899 16.6312 37.2752 16.6699 37.0741 16.7494C36.8731 16.8289 36.6898 16.9476 36.5346 17.0986C36.2142 17.4107 36.0234 17.8331 36.0007 18.2808H35.988V18.2804ZM44.9819 18.4772C44.9857 18.7731 44.9328 19.067 44.8262 19.3428C44.7206 19.616 44.5626 19.8658 44.3612 20.0779C44.1626 20.287 43.9239 20.4536 43.6595 20.5679C43.3978 20.6808 43.1157 20.7383 42.8308 20.7366C42.4632 20.7441 42.1014 20.645 41.7885 20.4512C41.4708 20.2538 41.214 19.9715 41.0469 19.6361V20.641H40.6316V14.5801H41.0469V17.3156C41.214 16.9801 41.4708 16.6979 41.7885 16.5005C42.1014 16.3067 42.4632 16.2076 42.8308 16.215C43.1159 16.2133 43.3983 16.2708 43.6603 16.3838C43.923 16.4974 44.1617 16.6638 44.362 16.8746C44.5635 17.0871 44.7214 17.3372 44.8269 17.6107C44.9333 17.887 44.9859 18.1811 44.9819 18.4772ZM44.5666 18.4772C44.5649 18.1165 44.4603 17.7639 44.2651 17.461C44.0737 17.1635 43.7982 16.9299 43.4739 16.7902C43.1538 16.6532 42.7994 16.6183 42.4588 16.6902C42.1157 16.7636 41.8028 16.9395 41.5611 17.1946C41.3144 17.4546 41.1482 17.7809 41.0826 18.1338C41.0155 18.489 41.0507 18.8561 41.1841 19.192C41.3178 19.5264 41.5429 19.8126 41.8319 20.0137C42.1183 20.214 42.4589 20.3216 42.8079 20.3221C43.0407 20.3238 43.2712 20.2772 43.4852 20.1852C43.7014 20.0919 43.8966 19.9557 44.059 19.7846C44.2225 19.6135 44.3519 19.409 44.4391 19.1846C44.5263 18.9591 44.5696 18.719 44.5666 18.4772ZM50.7825 19.5085C50.7825 20.2182 50.1858 20.7366 49.2966 20.7366C48.4655 20.7366 47.9177 20.3299 47.7189 19.7741L48.0757 19.5591C48.2261 20.0269 48.6747 20.3217 49.2966 20.3217C49.8774 20.3217 50.3668 20.0561 50.3668 19.5085C50.3668 18.331 47.8514 19.0061 47.8514 17.4482C47.8514 16.7653 48.4148 16.2201 49.2633 16.2201C49.5547 16.2018 49.8445 16.2745 50.0959 16.4289C50.3474 16.5833 50.5492 16.8124 50.6752 17.0869L50.3261 17.2942C50.2363 17.0862 50.0854 16.9107 49.8937 16.791C49.7052 16.6735 49.4846 16.6189 49.2633 16.635C48.7232 16.635 48.2668 16.9298 48.2668 17.4482C48.2695 18.6071 50.7825 17.9242 50.7825 19.5085ZM52.4032 16.747V19.5622C52.4032 20.3252 52.793 20.3411 53.6392 20.2637V20.6546C52.5508 20.8276 51.9801 20.5511 51.9801 19.5649V16.747H51.0677V16.322H51.9902V15.2319L52.4133 15.1016V16.3138H53.6493V16.747H52.4032ZM57.931 16.3138V20.641H57.5157V19.8196C57.3839 20.1053 57.1716 20.346 56.905 20.5119C56.6408 20.6752 56.3363 20.753 56.0298 20.7366C55.041 20.7366 54.4191 20.0537 54.4191 19.0061V16.3138H54.8422V19.0069C54.8422 19.8041 55.2832 20.3357 56.0627 20.3357C56.8427 20.3357 57.5157 19.7831 57.5157 18.6129V16.327L57.931 16.3138ZM63.176 14.5832V20.6441H62.7606V19.6388C62.5933 19.9742 62.3364 20.2564 62.0187 20.4539C61.7058 20.6477 61.3439 20.7469 60.9764 20.7394C60.6898 20.7384 60.4064 20.6793 60.1432 20.5655C59.88 20.4518 59.6424 20.2858 59.4448 20.0775C59.0358 19.6471 58.8084 19.0747 58.8101 18.4799C58.8101 17.8806 59.0384 17.3059 59.4448 16.882C59.6425 16.6737 59.88 16.5078 60.1433 16.3941C60.4065 16.2804 60.6899 16.2214 60.9764 16.2205C61.3439 16.2128 61.7058 16.3118 62.0187 16.5055C62.3364 16.703 62.5933 16.9852 62.7606 17.3206V14.5832H63.176ZM62.7606 18.4799C62.7589 18.1194 62.6543 17.7669 62.4592 17.4641C62.2677 17.1666 61.9923 16.933 61.668 16.7933C61.3477 16.6563 60.9932 16.6214 60.6525 16.6933C60.3095 16.767 59.9966 16.9427 59.7548 17.1977C59.5083 17.4579 59.3423 17.7841 59.2766 18.1369C59.2096 18.4921 59.2448 18.8592 59.3782 19.1951C59.5118 19.5295 59.7369 19.8157 60.026 20.0168C60.3124 20.217 60.6529 20.3246 61.002 20.3252C61.235 20.3269 61.4659 20.2801 61.68 20.1879C61.8962 20.0945 62.0914 19.9583 62.2538 19.7873C62.4177 19.6151 62.5468 19.4105 62.6339 19.1857C62.7209 18.96 62.7639 18.7196 62.7606 18.4776V18.4803V18.4799ZM64.2233 14.9208C64.2233 14.8524 64.2426 14.7855 64.2791 14.7287C64.315 14.6724 64.3668 14.6282 64.4278 14.6015C64.4881 14.5755 64.555 14.5687 64.6192 14.5821C64.684 14.5957 64.7432 14.6286 64.7889 14.6766C64.8353 14.726 64.8666 14.7877 64.8793 14.8543C64.892 14.921 64.8855 14.9899 64.8606 15.053C64.836 15.1156 64.7936 15.1696 64.7386 15.2082C64.6754 15.2526 64.5984 15.2727 64.5216 15.2648C64.4449 15.257 64.3735 15.2217 64.3205 15.1654C64.2577 15.0996 64.2229 15.0119 64.2233 14.9208ZM64.348 16.3138H64.7638V20.6413H64.348V16.3138ZM65.6506 18.4772C65.6474 18.0293 65.7725 17.5899 66.011 17.2113C66.245 16.8394 66.5843 16.546 66.9854 16.3686C67.3814 16.1946 67.8212 16.1472 68.245 16.2329C68.6716 16.3206 69.0617 16.5359 69.364 16.8505C69.6722 17.1712 69.881 17.5749 69.9649 18.0125C70.0507 18.4531 70.0091 18.9092 69.8452 19.3269C69.6843 19.7394 69.4061 20.0952 69.0451 20.3501C68.6905 20.6 68.2681 20.7349 67.8347 20.7366C67.5476 20.7412 67.2626 20.6859 66.9978 20.5745C66.7304 20.4617 66.4885 20.2957 66.2868 20.0864C66.0821 19.8742 65.9211 19.6235 65.813 19.3487C65.7035 19.0715 65.6484 18.7757 65.6506 18.4776V18.4772ZM69.5856 18.4772C69.5833 18.117 69.4783 17.7651 69.283 17.463C69.0914 17.1659 68.8158 16.933 68.4915 16.7941C68.1714 16.6577 67.8172 16.6235 67.4771 16.6961C67.1346 16.7702 66.8225 16.9466 66.5817 17.202C66.3358 17.4624 66.1706 17.7888 66.1059 18.1416C66.0398 18.4965 66.0758 18.863 66.2097 19.1982C66.3438 19.5319 66.5697 19.8165 66.8591 20.0168C67.1457 20.2161 67.4861 20.3226 67.8347 20.3221C68.0656 20.3221 68.2942 20.2742 68.5073 20.1813C68.7204 20.088 68.9134 19.9519 69.0754 19.78C69.2383 19.6069 69.3659 19.4034 69.4508 19.1811C69.5368 18.9575 69.579 18.7183 69.5752 18.4772H69.5856Z" fill="white"/>
</g>
<defs>
<clipPath id="clip0_161_3325">
<rect width="105" height="21" fill="white"/>
</clipPath>
</defs>
</svg>
