<svg width="124" height="24" viewBox="0 0 124 24" fill="none" xmlns="http://www.w3.org/2000/svg">
<path d="M10.9221 15.1142L9.21263 19.7466L6.98566 13.7435L5.93784 16.5808L8.29476 22.9333C8.36522 23.1226 8.49151 23.2853 8.65578 23.4004C8.81885 23.5151 9.01509 23.5768 9.21644 23.5767C9.41779 23.5765 9.61393 23.5145 9.77681 23.3995C9.94153 23.284 10.0669 23.12 10.1369 22.9302L12.4362 16.7026L11.3829 13.868L10.9221 15.1137V15.1142ZM33.2302 0.334176C33.1096 0.288936 32.9808 0.268084 32.8516 0.272899C32.7224 0.277713 32.5956 0.308093 32.4789 0.362176C32.2392 0.474268 32.0549 0.674019 31.9664 0.917732L25.016 19.7524L18.0038 0.850621C17.9289 0.645821 17.7864 0.47082 17.5984 0.352843C17.4131 0.23698 17.1923 0.186955 16.9734 0.211259C16.7544 0.235562 16.5509 0.332696 16.3973 0.486176C16.2404 0.63951 16.1383 0.841732 16.1077 1.0604L13.845 7.19996L14.8983 10.0342L17.1015 4.06484L24.099 22.9213C24.1695 23.1106 24.2958 23.2737 24.4601 23.3888C24.6248 23.5035 24.8197 23.5653 25.0201 23.5657C25.2205 23.5653 25.4164 23.5031 25.5811 23.3875C25.7458 23.272 25.8712 23.108 25.9412 22.9182L33.8086 1.60707C33.8982 1.36032 33.8877 1.08969 33.7793 0.850176C33.6738 0.614382 33.4763 0.428831 33.2302 0.334176V0.334176ZM4.1053 5.97862L2.2032 0.850621C2.18204 0.794859 2.15586 0.741021 2.12496 0.689732L2.09476 0.643954C2.07187 0.610014 2.04681 0.577506 2.01972 0.546621L1.98037 0.504399C1.94928 0.473815 1.91611 0.445306 1.88107 0.419065L1.84813 0.391954C1.80156 0.359327 1.7521 0.33077 1.70034 0.306621L1.65824 0.29151C1.61913 0.274866 1.57893 0.260761 1.5379 0.249287H1.48071L1.36357 0.233732H1.12243C1.06819 0.243486 1.01492 0.257761 0.9632 0.276399H0.942152C0.820281 0.322453 0.709181 0.391826 0.615451 0.480399C0.520735 0.569288 0.444779 0.676399 0.391244 0.795065C0.282777 1.03608 0.274092 1.30843 0.366993 1.55551L3.4734 9.92529L4.52076 7.08795L4.1053 5.97907V5.97862Z" fill="#6228B1"/>
<path d="M10.0705 0.850665C10.0014 0.663205 9.87552 0.500398 9.7095 0.383554C9.54655 0.26897 9.35062 0.207086 9.14945 0.206665C8.94903 0.206665 8.7532 0.268887 8.58847 0.384443C8.42375 0.499998 8.29838 0.663998 8.22837 0.853776L0.36146 22.1773C0.253682 22.4282 0.252695 22.7102 0.358715 22.9618C0.411335 23.0858 0.488206 23.1978 0.584752 23.2907C0.68084 23.384 0.795231 23.4564 0.921062 23.5036C1.04592 23.5505 1.1796 23.5714 1.31333 23.5647C1.44706 23.5581 1.57784 23.524 1.69709 23.4649C1.81697 23.4058 1.92404 23.3227 2.01098 23.22C2.09792 23.1178 2.16335 22.9987 2.20316 22.8698L9.15311 4.03422L16.1621 22.9244C16.2033 23.052 16.2696 23.1693 16.357 23.2702C16.4449 23.3707 16.5515 23.4524 16.6709 23.5102C16.8507 23.5978 17.0544 23.628 17.2529 23.5965C17.4515 23.565 17.6347 23.4733 17.7764 23.3347C17.8725 23.2422 17.9489 23.1311 18.0015 23.008C18.1076 22.7587 18.1086 22.4789 18.0042 22.2289L10.0701 0.850665H10.0705Z" fill="#07CFB5"/>
<path d="M44.2245 10.6027H37.3446L36.0112 14.1267H34.9122L40.246 0.273346H41.3442L46.6505 14.1267H45.5524L44.2245 10.6022V10.6027ZM43.8516 9.61201L40.7937 1.55868L37.7358 9.61201H43.8516Z" fill="white"/>
<path d="M46.9516 14.3244H45.4462L44.1133 10.8031H37.4924L36.1586 14.324H34.6536L40.1375 0.0759888H41.5038L46.9516 14.324V14.3244ZM45.7024 13.9289H46.3796L41.2183 0.473767H40.3874L35.2137 13.9289H35.8909L37.2242 10.408H44.3746L45.702 13.9289H45.7024ZM44.1467 9.81243H37.4525L40.7964 1.00266L44.1463 9.81243H44.1467ZM38.0218 9.41777H43.5684L40.7964 2.12666L38.0218 9.41777V9.41777ZM48.6757 9.17777C48.6623 8.49382 48.7868 7.81394 49.0422 7.17643C49.2945 6.54498 49.6741 5.96883 50.1587 5.48177C50.6365 5.00185 51.2109 4.62258 51.8462 4.36754C52.4751 4.11557 53.1515 3.99488 53.8315 4.01332C55.7515 4.01332 57.401 5.00354 58.1052 6.54666L57.3017 7.02088C56.7329 5.7751 55.3996 4.96399 53.8315 4.96399C52.7238 4.96399 51.6618 5.40843 50.8789 6.19865C50.0955 6.98932 49.6553 8.06088 49.6553 9.1791C49.6553 10.2973 50.0955 11.3693 50.8789 12.16C51.6618 12.9502 52.7238 13.3942 53.8315 13.3942C54.553 13.4113 55.2646 13.2283 55.8828 12.8667C56.511 12.4985 57.0228 11.9696 57.3621 11.3378L58.1866 11.8329C57.7662 12.6081 57.1342 13.256 56.36 13.7058C55.5979 14.1476 54.722 14.3694 53.8347 14.3453C53.1541 14.3641 52.477 14.2436 51.8475 13.9915C51.2117 13.7366 50.6368 13.3572 50.1587 12.8769C49.6736 12.3895 49.2937 11.8129 49.0413 11.1809C48.786 10.5428 48.6618 9.86225 48.6757 9.17777V9.17777Z" fill="white"/>
<path d="M53.8316 14.5431C52.4223 14.5431 51.0711 13.9778 50.0745 12.972C49.0779 11.9662 48.5179 10.6022 48.5179 9.17957C48.5179 7.75734 49.0779 6.3929 50.0745 5.38712C51.0711 4.3809 52.4223 3.81601 53.8316 3.81601C55.8302 3.81601 57.5365 4.83068 58.2832 6.4649L58.3583 6.62934L57.2148 7.29157L57.1242 7.09379C56.5765 5.89379 55.3187 5.14979 53.8316 5.14979C52.776 5.14979 51.7638 5.5729 51.0171 6.32623C50.2708 7.08001 49.8512 8.10179 49.8512 9.16757C49.8512 10.2329 50.2708 11.2547 51.0171 12.0085C51.7638 12.7618 52.776 13.1849 53.8316 13.1849C54.5161 13.2029 55.1917 13.0308 55.779 12.6889C56.3755 12.3408 56.8619 11.8398 57.1846 11.2409L57.2807 11.0587L58.4397 11.7542L58.3555 11.9213C57.9186 12.7282 57.2621 13.4031 56.4575 13.8725C55.6654 14.3333 54.7547 14.5659 53.8316 14.5431V14.5431ZM53.8316 4.21423C52.5266 4.21423 51.2752 4.73734 50.3523 5.6689C49.4293 6.60045 48.9109 7.86357 48.9109 9.1809C48.9109 10.4982 49.4293 11.7618 50.3523 12.6933C51.2752 13.6249 52.5266 14.148 53.8316 14.148C54.6511 14.1691 55.461 13.9728 56.1743 13.5805C56.8983 13.1815 57.5011 12.6039 57.9217 11.9062L57.4344 11.6022C57.0633 12.219 56.5313 12.7298 55.892 13.0831C55.2622 13.4304 54.5468 13.6043 53.8229 13.5862C52.6831 13.556 51.6005 13.0778 50.8048 12.2533C50.0095 11.4293 49.5643 10.3245 49.5643 9.17334C49.5643 8.02268 50.0095 6.91779 50.8048 6.09334C51.6005 5.2689 52.6831 4.79112 53.8229 4.7609C55.3818 4.7609 56.7211 5.51423 57.374 6.73868L57.8408 6.46223C57.1334 5.07379 55.6106 4.21112 53.8316 4.21112V4.21379V4.21423ZM65.6747 4.09201V5.04312C63.9895 5.04312 62.4004 6.09112 62.4004 8.6249V14.1267H61.4189V4.23112H62.4004V6.16934C63.0684 4.60801 64.3414 4.09157 65.6747 4.09157V4.09201Z" fill="white"/>
<path d="M62.6021 14.3244H61.2294V4.03467H62.6021V5.39911C63.2729 4.41156 64.3235 3.89511 65.6811 3.89511H65.8765V5.24089H65.6811C64.194 5.24089 62.6021 6.13111 62.6021 8.62533V14.3244ZM61.6207 13.9293H62.2228V8.62533C62.2228 5.94844 63.9442 4.92756 65.4971 4.84889V4.29333C64.1039 4.34756 63.1288 5.004 62.5989 6.24622L62.2228 7.12756V4.42667H61.6207V13.9289V13.9293ZM67.4775 9.17778C67.4704 8.15392 67.7663 7.14965 68.3299 6.28444C68.8825 5.43382 69.6841 4.76292 70.6319 4.35778C71.5671 3.96003 72.6058 3.85186 73.6066 4.048C74.6143 4.24848 75.5357 4.74095 76.2494 5.46044C76.9775 6.19384 77.4706 7.11686 77.6688 8.11733C77.8706 9.12533 77.7718 10.1707 77.3847 11.1222C77.004 12.065 76.3462 12.8782 75.4931 13.4604C74.655 14.0315 73.657 14.3393 72.6333 14.3427C71.9554 14.3525 71.2826 14.2258 70.6576 13.9707C70.0263 13.7127 69.4554 13.3332 68.9792 12.8551C68.4964 12.3698 68.1164 11.797 67.8609 11.1693C67.6029 10.5356 67.4727 9.85967 67.4775 9.17822V9.17778ZM76.7715 9.17778C76.7674 8.35439 76.5199 7.54947 76.0586 6.85867C75.6064 6.17939 74.9558 5.64672 74.19 5.32889C73.4341 5.01678 72.5976 4.93811 71.7941 5.10356C70.9849 5.27262 70.2472 5.67544 69.6779 6.25911C69.0972 6.85401 68.7066 7.59966 68.5532 8.40578C68.3966 9.21756 68.4819 10.0559 68.7989 10.8222C69.1098 11.5786 69.6429 12.2295 70.3318 12.6938C71.0087 13.1493 71.813 13.3928 72.6365 13.3916C73.1851 13.395 73.7285 13.2882 74.2325 13.0778C74.7415 12.8646 75.2009 12.5534 75.5828 12.1631C75.9701 11.7674 76.2734 11.3015 76.4755 10.792C76.6803 10.2776 76.7809 9.72965 76.7715 9.17822V9.17778Z" fill="white"/>
<path d="M72.6361 14.5431C71.5813 14.5373 70.5536 14.2183 69.6907 13.6289C68.8125 13.028 68.1354 12.1897 67.7433 11.2182C67.3442 10.2342 67.2424 9.16002 67.45 8.12179C67.6532 7.09063 68.1599 6.13884 68.9087 5.38179C69.6428 4.6393 70.5909 4.12987 71.6285 3.92046C72.6591 3.71541 73.7297 3.82325 74.6951 4.22935C75.6733 4.64304 76.5022 5.33072 77.0758 6.20446C77.6606 7.09319 77.9707 8.12616 77.9694 9.1809C77.9747 9.88681 77.84 10.5871 77.5727 11.2436C77.309 11.894 76.9163 12.4877 76.4169 12.9911C75.9247 13.4874 75.3344 13.8819 74.6814 14.1511C74.0321 14.4178 73.3371 14.5511 72.6361 14.5431V14.5431ZM72.6361 4.21423C71.6591 4.21969 70.7072 4.51528 69.9081 5.06135C69.0948 5.6182 68.4678 6.39477 68.1048 7.29468C67.7355 8.20633 67.6413 9.20136 67.8335 10.1631C68.0219 11.1182 68.4914 11.9997 69.1851 12.7009C69.8652 13.3886 70.7437 13.8604 71.7049 14.0542C72.6596 14.2441 73.6513 14.1442 74.5455 13.768C75.4515 13.3846 76.2192 12.7476 76.7505 11.9382C77.2922 11.1149 77.5794 10.158 77.5782 9.1809C77.5834 8.52664 77.4589 7.87752 77.2117 7.2689C76.967 6.66627 76.6031 6.11606 76.1406 5.64935C75.6844 5.1892 75.1372 4.82336 74.5318 4.57379C73.9323 4.32725 73.287 4.20363 72.6361 4.21068V4.21379V4.21423ZM72.6361 13.5951C71.7657 13.6018 70.9141 13.349 70.1963 12.8707C69.4657 12.3829 68.8994 11.6967 68.5683 10.8978C68.2309 10.0887 68.139 9.20268 68.3034 8.34446C68.4642 7.49169 68.8769 6.70277 69.4912 6.07379C70.0932 5.45678 70.8737 5.03169 71.7296 4.85468C72.5793 4.68116 73.4634 4.76653 74.2613 5.09912C75.0699 5.43787 75.7557 6.00394 76.2302 6.72446C76.7144 7.45735 76.9713 8.31009 76.9701 9.1809C76.9776 9.75807 76.8709 10.3313 76.6558 10.8693C76.443 11.4023 76.1248 11.8895 75.7191 12.3036C75.3193 12.7118 74.8387 13.0374 74.3062 13.2609C73.7788 13.4816 73.2103 13.5943 72.6361 13.592V13.5951V13.5951ZM72.6361 5.1649C71.8439 5.15824 71.0687 5.38783 70.4151 5.82268C69.75 6.26598 69.2343 6.88992 68.9325 7.61646C68.6251 8.35262 68.5409 9.15889 68.69 9.94001C68.8361 10.716 69.2113 11.434 69.7699 12.0067C70.3175 12.5684 71.0276 12.9555 71.8065 13.1169C72.5798 13.275 73.3845 13.1976 74.1108 12.8951C74.8466 12.5869 75.4706 12.0719 75.9026 11.4165C76.3433 10.7495 76.5771 9.97342 76.5762 9.1809C76.5827 8.65604 76.4858 8.13481 76.2906 7.64535C76.0974 7.16042 75.8083 6.71695 75.4396 6.34001C75.0761 5.9683 74.6391 5.67171 74.1547 5.46801C73.6753 5.26662 73.1584 5.16343 72.6361 5.1649V5.1649ZM80.341 0.273346H81.4396L84.988 12.7293L88.8105 0.273346H90.0446L93.8877 12.7293L97.4182 0.273346H98.5168L94.5347 14.1267H93.28L89.4365 1.64046L85.5751 14.1267H84.32L80.341 0.273346Z" fill="white"/>
<path d="M94.6825 14.3244H93.1354L89.4365 2.30577L85.7197 14.324H84.1727L80.0793 0.0759888H81.5842L84.9944 12.0302L88.6659 0.0759888H90.1892L93.879 12.0302L97.2677 0.0759888H98.7726L94.6825 14.324V14.3244ZM93.4246 13.9289H94.3873L98.2551 0.473767H97.5656L93.9028 13.4129L89.9091 0.470655H88.9638L84.988 13.4129L81.2982 0.470655H80.6L84.4673 13.9262H85.4305L89.4365 0.971989L93.4246 13.9289V13.9289ZM109.827 9.21688C109.827 9.3751 109.806 9.52088 109.806 9.6911H100.927C101.162 11.9267 102.848 13.3911 105.084 13.3911C106.691 13.3911 107.907 12.6378 108.476 11.5898L109.34 12.1031C108.536 13.4489 107.007 14.3391 105.066 14.3391C102.056 14.3391 99.9101 12.1609 99.9101 9.17466C99.9101 6.26399 101.987 4.01021 104.988 4.01021C107.988 4.01021 109.827 6.5071 109.827 9.21688V9.21688ZM100.927 8.72177H108.81C108.593 6.30666 106.908 4.96088 104.988 4.96088C103.958 4.93066 102.958 5.30754 102.2 6.01021C101.442 6.71332 100.985 7.6871 100.927 8.72488V8.72177Z" fill="white"/>
<path d="M105.063 14.5431C101.963 14.5431 99.7115 12.2889 99.7115 9.1809C99.7115 6.07335 101.93 3.81912 104.985 3.81912C108.256 3.81912 110.023 6.60179 110.023 9.22046V9.89201H101.15C101.451 11.8787 103.01 13.1973 105.084 13.1973C106.522 13.1973 107.726 12.5622 108.304 11.4991L108.401 11.3196L109.605 12.0396L109.502 12.2098C108.62 13.6925 107.001 14.5431 105.063 14.5431V14.5431ZM104.985 4.21424C102.155 4.21424 100.103 6.30401 100.103 9.1809C100.103 12.0582 102.188 14.148 105.063 14.148C106.784 14.148 108.229 13.4311 109.063 12.1765L108.542 11.8729C107.865 12.9573 106.586 13.6013 105.081 13.6013C102.721 13.6013 100.973 12.0427 100.729 9.7249L100.705 9.50624H109.613V9.22979C109.632 6.78979 108.003 4.21112 104.985 4.21112V4.21379V4.21424ZM109.023 8.92268H100.711L100.729 8.70712C100.792 7.6209 101.271 6.60179 102.065 5.86535C102.858 5.12846 103.904 4.73157 104.981 4.75779C107.176 4.75779 108.789 6.34046 109 8.70712L109.023 8.92268V8.92268ZM101.147 8.52801H108.59C108.322 6.50757 106.899 5.1649 104.979 5.1649C104.03 5.13254 103.107 5.46161 102.405 6.08179C101.693 6.70535 101.243 7.57868 101.144 8.5249L101.147 8.52801ZM123.473 9.17779C123.482 9.85386 123.357 10.5253 123.105 11.1556C122.856 11.7799 122.484 12.3506 122.008 12.8356C121.54 13.3134 120.976 13.6944 120.352 13.9556C119.734 14.2139 119.068 14.3455 118.396 14.3422C117.528 14.36 116.673 14.134 115.935 13.6916C115.184 13.241 114.577 12.5963 114.182 11.8298V14.1267H113.201V0.273346H114.182V6.52579C114.577 5.75909 115.184 5.11428 115.935 4.66357C116.673 4.22127 117.528 3.9955 118.396 4.01335C119.067 4.00935 119.732 4.1409 120.352 4.40001C120.976 4.66124 121.54 5.04219 122.008 5.52001C122.484 6.00495 122.856 6.57572 123.105 7.20001C123.357 7.82801 123.482 8.50046 123.473 9.17779V9.17779ZM122.492 9.17779C122.49 8.35256 122.243 7.5453 121.783 6.85201C121.331 6.17032 120.68 5.63502 119.914 5.31468C119.157 5.0003 118.319 4.91961 117.514 5.08357C116.702 5.25077 115.962 5.65235 115.39 6.23557C114.807 6.83025 114.414 7.57655 114.258 8.38401C114.099 9.19694 114.182 10.0371 114.497 10.8058C114.807 11.5646 115.339 12.2184 116.028 12.6858C116.705 13.1441 117.511 13.3904 118.336 13.3916C118.886 13.3958 119.43 13.2896 119.936 13.0796C120.447 12.8671 120.908 12.5564 121.292 12.1662C121.682 11.7705 121.987 11.3044 122.192 10.7942C122.399 10.2793 122.502 9.73053 122.495 9.17779H122.492V9.17779Z" fill="white"/>
<path d="M118.396 14.5427C117.61 14.5616 116.832 14.3873 116.134 14.036C115.427 13.6795 114.821 13.1599 114.369 12.5227V14.324H112.996V0.0759888H114.369V5.84799C114.82 5.21254 115.425 4.69418 116.131 4.33821C116.827 3.98772 117.603 3.81331 118.387 3.8311C119.796 3.8311 121.148 4.39599 122.144 5.40177C123.141 6.40754 123.7 7.77199 123.7 9.19466C123.7 10.6169 123.141 11.9813 122.144 12.9871C121.148 13.9929 119.796 14.5578 118.387 14.5578L118.396 14.5427V14.5427ZM113.983 11.04L114.354 11.7387C114.731 12.4754 115.313 13.0949 116.033 13.5271C116.742 13.9516 117.563 14.1673 118.396 14.148C119.701 14.148 120.953 13.6244 121.876 12.6929C122.798 11.7613 123.316 10.4982 123.316 9.18088C123.316 7.86354 122.798 6.59999 121.876 5.66843C120.953 4.73688 119.701 4.21377 118.396 4.21377C117.563 4.19428 116.742 4.4098 116.033 4.83421C115.313 5.26645 114.731 5.88595 114.354 6.62266L113.983 7.32132V0.4711H113.382V13.9262H113.983V11.04V11.04ZM118.335 13.5951C117.466 13.5981 116.616 13.3422 115.9 12.8618C115.172 12.3717 114.609 11.6841 114.28 10.8849C113.946 10.0755 113.856 9.19 114.023 8.33288C114.186 7.48145 114.6 6.69433 115.215 6.0671C115.818 5.4519 116.598 5.02856 117.454 4.85288C118.303 4.68087 119.186 4.76731 119.983 5.10043C120.791 5.43984 121.475 6.00601 121.949 6.72621C122.433 7.45876 122.689 8.31081 122.688 9.18088C122.695 9.75951 122.588 10.3341 122.372 10.8733C122.158 11.4073 121.838 11.8954 121.43 12.3098C121.028 12.718 120.546 13.043 120.011 13.2653C119.482 13.4853 118.911 13.5965 118.335 13.592V13.5951V13.5951ZM118.335 5.16443C117.544 5.16196 116.771 5.39509 116.12 5.83243C115.458 6.27829 114.945 6.90391 114.647 7.6311C114.343 8.36752 114.261 9.17313 114.413 9.95288C114.562 10.7275 114.938 11.4436 115.498 12.0142C116.046 12.5737 116.756 12.9586 117.535 13.1182C118.307 13.2746 119.111 13.196 119.836 12.8929C120.57 12.5842 121.193 12.0691 121.624 11.4138C122.064 10.7475 122.298 9.97239 122.296 9.18088C122.303 8.65409 122.206 8.13093 122.009 7.63999C121.815 7.15368 121.524 6.70926 121.153 6.33199C120.787 5.96 120.348 5.66382 119.861 5.46132C119.379 5.26125 118.859 5.16017 118.335 5.16443V5.16443ZM41.5821 18.6444L40.0291 23.5929H39.4901L38.1266 19.3795L36.7635 23.5929H36.2254L34.6743 18.6471H35.2133L36.5164 22.952L37.8891 18.6471H38.397L39.7697 22.952L41.0728 18.6471L41.5816 18.644L41.5821 18.6444ZM46.9516 21.1382V21.3751H42.5151C42.5545 21.8904 42.7933 22.372 43.1836 22.7231C43.3726 22.893 43.5943 23.0248 43.8361 23.111C44.0778 23.1972 44.3347 23.2361 44.592 23.2253C44.9308 23.2425 45.2677 23.1667 45.5643 23.0067C45.8652 22.8436 46.1148 22.6041 46.2863 22.3138L46.7169 22.572C46.4922 22.9283 46.1748 23.2207 45.7967 23.42C45.4238 23.6157 45.0031 23.7092 44.5796 23.6902C44.2412 23.6918 43.906 23.6268 43.5942 23.4993C43.2823 23.3717 43.0002 23.1842 42.7649 22.948C42.2783 22.4596 42.005 21.8072 42.0022 21.1275C41.9949 20.4478 42.2584 19.7916 42.7375 19.296C42.969 19.0563 43.2481 18.8645 43.5579 18.7321C43.8677 18.5998 44.2018 18.5296 44.5403 18.5258C46.0333 18.5315 46.9516 19.7835 46.9516 21.1382V21.1382ZM42.5 20.892H46.4396C46.3316 19.6769 45.4888 19.012 44.5288 19.012C44.2737 19.0072 44.0201 19.0515 43.7827 19.1423C43.5453 19.2332 43.3288 19.3688 43.1456 19.5413C42.7671 19.8981 42.5418 20.3808 42.5151 20.8924H42.5V20.892ZM53.1214 21.1169C53.1258 21.455 53.0634 21.7909 52.9375 22.1062C52.8128 22.4184 52.6263 22.7038 52.3884 22.9462C52.1538 23.1852 51.872 23.3757 51.5598 23.5062C51.2507 23.6353 50.9175 23.701 50.581 23.6991C50.147 23.7076 49.7196 23.5944 49.3502 23.3729C48.975 23.1473 48.6717 22.8247 48.4744 22.4413V23.5898H47.9839V16.6631H48.4744V19.7893C48.6717 19.4059 48.9749 19.0834 49.3502 18.8578C49.7196 18.6363 50.147 18.523 50.581 18.5315C50.9178 18.5296 51.2513 18.5953 51.5607 18.7244C51.8709 18.8542 52.1528 19.0444 52.3893 19.2853C52.6273 19.5282 52.8138 19.814 52.9384 20.1267C53.064 20.4423 53.1261 20.7785 53.1214 21.1169V21.1169ZM52.6309 21.1169C52.6289 20.7047 52.5054 20.3017 52.2749 19.9555C52.0488 19.6155 51.7235 19.3486 51.3406 19.1889C50.9625 19.0323 50.544 18.9924 50.1418 19.0747C49.7366 19.1585 49.367 19.3595 49.0816 19.6511C48.7903 19.9482 48.594 20.3211 48.5165 20.7244C48.4373 21.1304 48.4789 21.5499 48.6364 21.9338C48.7942 22.316 49.0601 22.6431 49.4014 22.8729C49.7397 23.1018 50.1418 23.2247 50.554 23.2253C50.8289 23.2273 51.1012 23.174 51.3539 23.0689C51.6092 22.9623 51.8398 22.8066 52.0315 22.6111C52.2246 22.4155 52.3774 22.1818 52.4804 21.9253C52.5833 21.6677 52.6344 21.3932 52.6309 21.1169V21.1169ZM59.9716 22.2955C59.9716 23.1067 59.267 23.6991 58.2169 23.6991C57.2354 23.6991 56.5884 23.2342 56.3537 22.5991L56.7751 22.3533C56.9526 22.888 57.4825 23.2249 58.2169 23.2249C58.9028 23.2249 59.4807 22.9213 59.4807 22.2955C59.4807 20.9498 56.5102 21.7213 56.5102 19.9409C56.5102 19.1604 57.1755 18.5373 58.1775 18.5373C58.5216 18.5164 58.8639 18.5995 59.1608 18.776C59.4578 18.9524 59.6962 19.2142 59.8449 19.528L59.4326 19.7649C59.3266 19.5272 59.1484 19.3266 58.922 19.1898C58.6994 19.0555 58.4388 18.9931 58.1775 19.0115C57.5397 19.0115 57.0007 19.3484 57.0007 19.9409C57.0039 21.2653 59.9716 20.4849 59.9716 22.2955V22.2955ZM61.8856 19.1395V22.3569C61.8856 23.2289 62.3459 23.2471 63.3453 23.1587V23.6053C62.06 23.8031 61.386 23.4871 61.386 22.36V19.1395H60.3084V18.6538H61.3979V17.408L61.8975 17.2591V18.6444H63.3571V19.1395H61.8856ZM68.4137 18.6444V23.5898H67.9232V22.6511C67.7676 22.9776 67.5169 23.2527 67.2021 23.4422C66.89 23.6289 66.5304 23.7178 66.1684 23.6991C65.0007 23.6991 64.2663 22.9187 64.2663 21.7213V18.6444H64.766V21.7222C64.766 22.6333 65.2867 23.2409 66.2073 23.2409C67.1284 23.2409 67.9232 22.6093 67.9232 21.272V18.6595L68.4137 18.6444V18.6444ZM74.6077 16.6667V23.5933H74.1172V22.4444C73.9196 22.8278 73.6162 23.1503 73.241 23.376C72.8716 23.5975 72.4442 23.7108 72.0101 23.7022C71.6717 23.7011 71.337 23.6335 71.0262 23.5035C70.7153 23.3735 70.4348 23.1838 70.2014 22.9458C69.7184 22.4539 69.4498 21.7997 69.4519 21.12C69.4519 20.4351 69.7214 19.7782 70.2014 19.2938C70.4348 19.0558 70.7154 18.8662 71.0262 18.7362C71.3371 18.6063 71.6718 18.5388 72.0101 18.5378C72.4442 18.5291 72.8715 18.6422 73.241 18.8635C73.6162 19.0893 73.9196 19.4118 74.1172 19.7951V16.6667H74.6077ZM74.1172 21.12C74.1151 20.7079 73.9916 20.3051 73.7612 19.9591C73.5351 19.619 73.2099 19.3521 72.8269 19.1924C72.4487 19.0358 72.03 18.996 71.6276 19.0782C71.2226 19.1623 70.8531 19.3632 70.5674 19.6547C70.2764 19.9519 70.0803 20.3247 70.0028 20.728C69.9236 21.134 69.9652 21.5535 70.1227 21.9373C70.2806 22.3195 70.5464 22.6467 70.8877 22.8764C71.226 23.1053 71.6281 23.2283 72.0403 23.2289C72.3155 23.2308 72.5882 23.1774 72.8411 23.072C73.0964 22.9653 73.3269 22.8096 73.5187 22.6142C73.7123 22.4173 73.8647 22.1835 73.9676 21.9267C74.0703 21.6686 74.1211 21.3939 74.1172 21.1173V21.1204V21.12ZM75.8445 17.0524C75.8445 16.9742 75.8674 16.8978 75.9104 16.8329C75.9529 16.7686 76.014 16.718 76.0861 16.6875C76.1573 16.6578 76.2363 16.65 76.3122 16.6653C76.3887 16.6809 76.4585 16.7185 76.5126 16.7733C76.5673 16.8298 76.6043 16.9003 76.6193 16.9765C76.6343 17.0527 76.6266 17.1314 76.5972 17.2035C76.5681 17.2751 76.518 17.3368 76.4531 17.3809C76.3785 17.4316 76.2875 17.4546 76.1969 17.4456C76.1063 17.4366 76.022 17.3963 75.9594 17.332C75.8853 17.2568 75.8441 17.1566 75.8445 17.0524V17.0524ZM75.9919 18.6444H76.4828V23.5902H75.9919V18.6444V18.6444ZM77.5302 21.1169C77.5264 20.605 77.6741 20.1029 77.9557 19.6702C78.2321 19.2451 78.6328 18.9098 79.1065 18.7071C79.5742 18.5082 80.0936 18.454 80.5941 18.552C81.0978 18.6522 81.5585 18.8983 81.9155 19.2578C82.2795 19.6243 82.526 20.0857 82.6252 20.5858C82.7264 21.0894 82.6774 21.6106 82.4838 22.088C82.2938 22.5594 81.9652 22.966 81.5389 23.2573C81.1201 23.5429 80.6212 23.6971 80.1095 23.6991C79.7704 23.7043 79.4339 23.6412 79.1212 23.5138C78.8053 23.3849 78.5197 23.1951 78.2815 22.956C78.0397 22.7134 77.8495 22.4269 77.7219 22.1129C77.5926 21.7961 77.5275 21.4581 77.5302 21.1173V21.1169ZM82.1772 21.1169C82.1745 20.7053 82.0505 20.3031 81.8199 19.9578C81.5936 19.6182 81.2681 19.3521 80.8851 19.1933C80.5071 19.0375 80.0888 18.9984 79.6872 19.0813C79.2827 19.1661 78.9141 19.3676 78.6297 19.6595C78.3394 19.9571 78.1442 20.3301 78.0678 20.7333C77.9898 21.139 78.0323 21.5578 78.1905 21.9409C78.3488 22.3222 78.6155 22.6475 78.9574 22.8764C79.2958 23.1042 79.6978 23.2259 80.1095 23.2253C80.3822 23.2253 80.6522 23.1707 80.9038 23.0644C81.1555 22.9578 81.3834 22.8022 81.5746 22.6058C81.7671 22.408 81.9177 22.1754 82.018 21.9213C82.1196 21.6658 82.1695 21.3924 82.1649 21.1169H82.1772V21.1169Z" fill="white"/>
</svg>
