<svg xmlns="http://www.w3.org/2000/svg">
<defs>
<clipPath id="clip0_618_4084">
<rect width="44" height="40" fill="white"/>
</clipPath>


<clipPath id="clip0_618_4116">
<rect width="35" height="40" fill="white"/>
</clipPath>


<clipPath id="clip0_618_4412">
<rect width="40" height="40" fill="white"/>
</clipPath>
</defs>
<symbol id="arrow1" viewBox="0 0 14 14">
  <path d="M9.68275 2.40355L1.02689 2.28176L0.994784 -2.77652e-06L13.5461 0.176596L13.7227 12.7279L11.4409 12.6958L11.3192 4.03995L1.63638 13.7227L-1.5603e-05 12.0863L9.68275 2.40355Z"/>
</symbol>
<symbol id="arrow2" viewBox="0 0 18 18">
  <path d="M13.6935 7.84289L7.659 1.63615L9.24975 0L18 9L9.24975 18L7.659 16.3638L13.6935 10.1571L1.01158e-07 10.1571L0 7.84289L13.6935 7.84289Z"/>
</symbol>
<symbol id="arrow3" viewBox="0 0 16 16">
  <path d="M12.172 6.97146L6.808 1.45436L8.222 0L16 8L8.222 16L6.808 14.5456L12.172 9.02854L8.9918e-08 9.02854L0 6.97146L12.172 6.97146Z"/>
</symbol>
<symbol id="bin1" viewBox="0 0 20 22">
  <path d="M5.76074 7.73535C6.1143 7.71322 6.42224 7.98361 6.44434 8.33887L7.08887 18.7373C7.11177 19.1074 6.81761 19.4219 6.44434 19.4219C6.1068 19.4217 5.82301 19.1589 5.80176 18.8174L5.15723 8.41895C5.13523 8.06373 5.40551 7.75747 5.76074 7.73535Z"/>
  <path d="M9.66797 7.73438C10.0239 7.73438 10.3125 8.02295 10.3125 8.37891V18.7773C10.3125 19.1333 10.0239 19.4219 9.66797 19.4219C9.31202 19.4219 9.02344 19.1333 9.02344 18.7773V8.37891C9.02344 8.02295 9.31202 7.73438 9.66797 7.73438Z"/>
  <path d="M13.5752 7.73535C13.9304 7.75745 14.2007 8.0637 14.1787 8.41895L13.5342 18.8174C13.5121 19.1724 13.206 19.4429 12.8506 19.4209C12.4954 19.3988 12.2251 19.0925 12.2471 18.7373L12.8916 8.33887C12.9137 7.98363 13.2208 7.71331 13.5752 7.73535Z"/>
  <path fill-rule="evenodd" clip-rule="evenodd" d="M12.2461 0C13.3123 0 14.1797 0.86741 14.1797 1.93359V2.57812H17.4023C18.4685 2.57812 19.3359 3.44554 19.3359 4.51172C19.3359 5.36788 18.7763 6.09506 18.0039 6.34863L16.8545 20.2266C16.7716 21.2211 15.9245 22 14.9268 22H4.40918C3.41149 22 2.56425 21.2208 2.48145 20.2266L1.33203 6.34863C0.559626 6.09502 0 5.36788 0 4.51172C0 3.44554 0.86741 2.57812 1.93359 2.57812H5.15625V1.93359C5.15625 0.86741 6.02366 0 7.08984 0H12.2461ZM3.7666 20.1201C3.79414 20.4512 4.07664 20.7109 4.40918 20.7109H14.9268C15.2593 20.7109 15.5416 20.4514 15.5693 20.1201L16.7021 6.44531H2.63379L3.7666 20.1201ZM1.93359 3.86719C1.5782 3.86719 1.28906 4.15632 1.28906 4.51172C1.28906 4.86711 1.5782 5.15625 1.93359 5.15625H17.4023C17.7577 5.15625 18.0469 4.86711 18.0469 4.51172C18.0469 4.15632 17.7577 3.86719 17.4023 3.86719H1.93359ZM7.08984 1.28906C6.73445 1.28906 6.44531 1.5782 6.44531 1.93359V2.57812H12.8906V1.93359C12.8906 1.5782 12.6015 1.28906 12.2461 1.28906H7.08984Z"/>
</symbol>
<symbol id="burger1" viewBox="0 0 36 12">
  <path d="M0 0H36V2H0V0Z"/>
  <path d="M0 10H36V12H0V10Z"/>
</symbol>
<symbol id="burger2" viewBox="0 0 30 18">
  <path d="M23 16C23.5523 16 24 16.4477 24 17C24 17.5523 23.5523 18 23 18H1C0.447715 18 0 17.5523 0 17C0 16.4477 0.447715 16 1 16H23Z"/>
  <path d="M29 8C29.5523 8 30 8.44772 30 9C30 9.55228 29.5523 10 29 10H1C0.447715 10 0 9.55228 0 9C0 8.44772 0.447715 8 1 8H29Z"/>
  <path d="M17 0C17.5523 0 18 0.447715 18 1C18 1.55228 17.5523 2 17 2H1C0.447715 2 0 1.55228 0 1C0 0.447715 0.447715 0 1 0H17Z"/>
</symbol>
<symbol id="burger3" viewBox="0 0 23 10">
  <rect width="23" height="2"/>
  <rect y="8" width="23" height="2"/>
</symbol>
<symbol id="cart1" viewBox="0 0 24 25">
  <path fill-rule="evenodd" clip-rule="evenodd" d="M11.5866 0C13.7269 4.92893e-05 14.9816 0.428333 15.945 1.3916C16.8357 2.28238 17.3366 3.49031 17.3366 4.75V6.25H19.6735C20.178 6.24994 20.6771 6.35878 21.1354 6.56934C21.5938 6.77997 22.0012 7.08795 22.3298 7.4707C22.6583 7.85357 22.9011 8.30302 23.0397 8.78809C23.1784 9.27332 23.2102 9.78345 23.1335 10.2822L21.5642 20.4717C21.3917 21.5933 20.8239 22.6166 19.9626 23.3555C19.155 24.048 18.1395 24.4481 17.0808 24.4951L16.8688 24.5H6.30342C5.16905 24.4998 4.07156 24.0932 3.21064 23.3545C2.34987 22.6157 1.7815 21.5929 1.60908 20.4717L0.0407199 10.2822C-0.0359678 9.7835 -0.00412688 9.27326 0.13447 8.78809C0.273094 8.30311 0.515019 7.85352 0.843454 7.4707C1.17194 7.0879 1.57949 6.78004 2.03779 6.56934C2.49608 6.35873 2.99535 6.25006 3.4997 6.25H5.83662V4.75C5.83662 3.49046 6.33677 2.28235 7.22724 1.3916C8.19065 0.428193 9.44617 5.56339e-05 11.5866 0ZM3.4997 8.25C3.28378 8.25006 3.06995 8.29662 2.87373 8.38672C2.67735 8.47702 2.50179 8.6094 2.36103 8.77344C2.22042 8.93746 2.11668 9.13015 2.05732 9.33789C1.99798 9.54565 1.98451 9.76397 2.01728 9.97754L3.58564 20.168L3.63349 20.4082C3.77008 20.9624 4.07717 21.4626 4.51338 21.8369C5.0117 22.2645 5.64683 22.4998 6.30342 22.5H16.8688L17.114 22.4893C17.6825 22.4386 18.2235 22.2111 18.6599 21.8369C19.1585 21.4092 19.4877 20.8173 19.5876 20.168L21.1569 9.97754C21.1897 9.76393 21.1753 9.54568 21.1159 9.33789C21.0565 9.13005 20.953 8.93749 20.8122 8.77344C20.6714 8.6094 20.4969 8.47699 20.3005 8.38672C20.1533 8.31913 19.996 8.27616 19.8356 8.25879L19.6735 8.25H17.3366V12H15.3366V8.25H7.83662V12H5.83662V8.25H3.4997ZM11.5866 2C9.72788 2.00005 9.08432 2.36265 8.64131 2.80566C8.1259 3.32134 7.83662 4.0209 7.83662 4.75V6.25H15.3366V4.75C15.3366 4.02074 15.0466 3.32137 14.531 2.80566C14.0879 2.36274 13.4451 2.00005 11.5866 2Z"/>
</symbol>
<symbol id="cart2" viewBox="0 0 13 14">
  <path fill-rule="evenodd" clip-rule="evenodd" d="M6.28461 0C7.4407 4.37873e-05 8.14206 0.231601 8.68305 0.772461C9.1777 1.26716 9.45551 1.93812 9.45551 2.6377V3.33301H10.5981C10.882 3.33305 11.1633 3.3942 11.4213 3.5127C11.6794 3.63133 11.9092 3.80496 12.0942 4.02051C12.2792 4.23615 12.4155 4.4895 12.4936 4.7627C12.5716 5.03583 12.5894 5.32275 12.5463 5.60352L11.7094 11.0391C11.6135 11.6617 11.2979 12.2294 10.8198 12.6396C10.3415 13.0497 9.73195 13.2754 9.10199 13.2754H3.46723C2.8373 13.2753 2.22755 13.0498 1.74945 12.6396C1.27148 12.2294 0.955639 11.6616 0.859805 11.0391L0.0228909 5.60449C-0.0201939 5.32379 -0.00237247 5.03577 0.0756253 4.7627C0.153666 4.48955 0.2901 4.23613 0.475039 4.02051C0.659993 3.80496 0.889857 3.63137 1.14789 3.5127C1.40585 3.39415 1.68725 3.33312 1.97113 3.33301H3.11273V2.6377C3.11273 1.9383 3.39079 1.26712 3.8852 0.772461C4.4262 0.23146 5.12843 5.95957e-05 6.28461 0ZM1.97113 4.60938C1.87116 4.60949 1.77194 4.6311 1.68109 4.67285C1.5902 4.71471 1.50896 4.77562 1.44379 4.85156C1.37863 4.92757 1.33069 5.01702 1.30316 5.11328C1.27566 5.20963 1.26939 5.31112 1.28461 5.41016L2.12055 10.8447L2.14496 10.9639C2.21263 11.2382 2.36461 11.4865 2.58051 11.6719C2.82724 11.8834 3.14224 11.9999 3.46723 12H9.10199C9.42711 12 9.74183 11.8834 9.98871 11.6719C10.2357 11.46 10.3992 11.1663 10.4487 10.8447L11.2846 5.41016L11.2924 5.33496C11.2957 5.26033 11.2867 5.18543 11.2661 5.11328C11.2385 5.01697 11.1907 4.92758 11.1254 4.85156C11.0602 4.77562 10.9791 4.71467 10.8881 4.67285C10.7972 4.63115 10.6981 4.60942 10.5981 4.60938H9.45551V6.60938H8.18012V4.60938H4.3891V6.60938H3.11273V4.60938H1.97113ZM6.28461 1.27539C5.3082 1.27545 4.99658 1.46576 4.78754 1.6748C4.53241 1.93019 4.3891 2.27668 4.3891 2.6377V3.33301H8.18012V2.6377C8.18012 2.2765 8.03608 1.93023 7.7807 1.6748C7.57165 1.46584 7.26077 1.27543 6.28461 1.27539Z"/>
</symbol>
<symbol id="chevron1" viewBox="0 0 10 6">
  <path d="M9.06055 1.06055L4.53027 5.59082L0 1.06055L1.06055 0L4.53027 3.46973L8 0L9.06055 1.06055Z"/>
</symbol>
<symbol id="chevron2" viewBox="0 0 16 9">
  <path d="M7.77734 8.70508L15.5547 1.23633L14.3672 0L7.77734 6.32812L1.1875 0L0 1.23633L7.77734 8.70508Z"/>
</symbol>
<symbol id="cross1" viewBox="0 0 18 18">
  <path d="M15.8486 0.292893C16.2391 -0.0973396 16.8722 -0.0975337 17.2626 0.292893C17.653 0.68332 17.6529 1.31543 17.2626 1.70598L10.1913 8.77727L17.2626 15.8486C17.6529 16.2391 17.653 16.8722 17.2626 17.2626C16.8722 17.653 16.2391 17.6529 15.8486 17.2626L8.77727 10.1913L1.70598 17.2626C1.31545 17.6531 0.683417 17.6531 0.292893 17.2626C-0.0976307 16.8721 -0.097631 16.2391 0.292893 15.8486L7.36321 8.77727L0.292893 1.70598C-0.097631 1.31545 -0.0976311 0.683417 0.292893 0.292893C0.683417 -0.097631 1.31545 -0.0976311 1.70598 0.292893L8.77727 7.36321L15.8486 0.292893Z"/>
</symbol>
<symbol id="delivery" viewBox="0 0 44 40">
<g clip-path="url(#clip0_618_4084)">
<path d="M41.8 21.4815H40.92L40.0913 17.7185C39.915 16.8933 39.4632 16.1545 38.8117 15.6258C38.1601 15.0971 37.3484 14.8108 36.5127 14.8148H27.8667C27.8667 14.8148 27.8593 5.17041 27.8593 5.1556C27.8496 5.06237 27.8299 4.97048 27.8007 4.88152C27.7933 4.87411 25.586 0.407455 25.586 0.407455C25.5259 0.284645 25.4328 0.18135 25.3174 0.109326C25.2021 0.0373014 25.069 -0.000560762 24.9333 4.77371e-05H2.93333C2.7975 -0.001528 2.66402 0.0359356 2.54846 0.108069C2.4329 0.180203 2.34003 0.284034 2.28067 0.407455C2.28067 0.407455 0.0733333 4.87411 0.0659999 4.88152C0.0367187 4.97048 0.0170488 5.06237 0.00733333 5.1556C0.00733333 5.163 0 34.8148 0 34.8148C0.001741 35.4036 0.234085 35.9678 0.646288 36.3842C1.05849 36.8006 1.61706 37.0353 2.2 37.037H7.09867C7.51427 37.9234 8.17046 38.6724 8.99092 39.1969C9.81137 39.7214 10.7624 39.9998 11.7333 39.9998C12.7043 39.9998 13.6553 39.7214 14.4758 39.1969C15.2962 38.6724 15.9524 37.9234 16.368 37.037H30.5727C30.9866 37.9232 31.6413 38.6722 32.4606 39.1969C33.2799 39.7215 34.23 40 35.2 40C36.17 40 37.1201 39.7215 37.9394 39.1969C38.7587 38.6722 39.4134 37.9232 39.8273 37.037H41.8C42.3829 37.0353 42.9415 36.8006 43.3537 36.3842C43.7659 35.9678 43.9983 35.4036 44 34.8148V23.7037C43.9983 23.1149 43.7659 22.5507 43.3537 22.1343C42.9415 21.7179 42.3829 21.4833 41.8 21.4815ZM30.8 16.2963H36.5127C37.0139 16.2943 37.5007 16.4661 37.8918 16.7829C38.2828 17.0997 38.5544 17.5424 38.6613 18.0371L39.4167 21.4815H31.5333C31.3388 21.4815 31.1523 21.4035 31.0148 21.2645C30.8773 21.1256 30.8 20.9372 30.8 20.7408V16.2963ZM24.4787 1.48153L25.9453 4.44449H17.49L16.9987 1.48153H24.4787ZM12.3567 1.48153H15.51L16.0013 4.44449H11.8653L12.3567 1.48153ZM11.7333 5.92597H16.1333V12.1334L14.2853 11.1926C14.1851 11.1386 14.0735 11.1097 13.9599 11.1084C13.8463 11.1071 13.7341 11.1334 13.6327 11.1852L11.7333 12.1408V5.92597ZM3.388 1.48153H10.868L10.3767 4.44449H1.92133L3.388 1.48153ZM1.46667 18.5185H8.06667C8.26116 18.5185 8.44769 18.4405 8.58521 18.3016C8.72274 18.1627 8.8 17.9743 8.8 17.7778V17.0371L12.7087 20L8.8 22.963V22.2222C8.8 22.0258 8.72274 21.8374 8.58521 21.6985C8.44769 21.5595 8.26116 21.4815 8.06667 21.4815H1.46667V18.5185ZM1.46667 22.963H7.33333V24.4445C7.33177 24.5817 7.36886 24.7165 7.44027 24.8332C7.51169 24.9499 7.61448 25.0438 7.73667 25.1037C7.83784 25.1592 7.95154 25.1873 8.06667 25.1852C8.22509 25.1837 8.37903 25.1319 8.50667 25.037L14.3733 20.5926C14.4644 20.5236 14.5383 20.4341 14.5892 20.3313C14.6402 20.2284 14.6667 20.115 14.6667 20C14.6667 19.885 14.6402 19.7716 14.5892 19.6688C14.5383 19.5659 14.4644 19.4764 14.3733 19.4074L8.50667 14.963C8.39719 14.8806 8.26711 14.8307 8.13107 14.8189C7.99503 14.8071 7.85843 14.8339 7.73667 14.8963C7.61448 14.9563 7.51169 15.0501 7.44027 15.1668C7.36886 15.2835 7.33177 15.4184 7.33333 15.5556V17.0371H1.46667V5.92597H10.2667V13.3334C10.2664 13.4592 10.2979 13.5831 10.3582 13.6933C10.4185 13.8034 10.5057 13.8963 10.6113 13.963C10.7283 14.0355 10.8628 14.074 11 14.0741C11.1118 14.0752 11.2223 14.0498 11.3227 14L13.9553 12.6815L16.5367 13.9926C16.6483 14.0494 16.7725 14.0765 16.8974 14.0712C17.0223 14.0659 17.1437 14.0285 17.2503 13.9624C17.3568 13.8964 17.4449 13.8039 17.5061 13.6938C17.5673 13.5837 17.5996 13.4596 17.6 13.3334V5.92597H26.4V26.6667H1.46667V22.963ZM6.65867 35.5555H2.2C2.00551 35.5555 1.81898 35.4775 1.68146 35.3386C1.54393 35.1997 1.46667 35.0113 1.46667 34.8148V34.0741H6.65867C6.58044 34.5647 6.58044 35.0649 6.65867 35.5555ZM11.7333 38.5185C11.0081 38.5185 10.2992 38.3013 9.69624 37.8943C9.09326 37.4874 8.6233 36.9089 8.34577 36.2322C8.06825 35.5554 7.99564 34.8107 8.13712 34.0923C8.2786 33.3738 8.62782 32.7139 9.14061 32.1959C9.6534 31.6779 10.3067 31.3252 11.018 31.1823C11.7293 31.0394 12.4665 31.1127 13.1365 31.393C13.8065 31.6734 14.3792 32.1481 14.7821 32.7571C15.185 33.3662 15.4 34.0823 15.4 34.8148C15.4 35.3012 15.3052 35.7828 15.1209 36.2322C14.9366 36.6815 14.6665 37.0898 14.3261 37.4337C13.9856 37.7776 13.5814 38.0505 13.1365 38.2366C12.6916 38.4227 12.2148 38.5185 11.7333 38.5185ZM16.368 32.5926C15.9524 31.7062 15.2962 30.9572 14.4758 30.4328C13.6553 29.9083 12.7043 29.6298 11.7333 29.6298C10.7624 29.6298 9.81137 29.9083 8.99092 30.4328C8.17046 30.9572 7.51427 31.7062 7.09867 32.5926H1.46667V28.1482H26.4V32.5926H16.368ZM30.1253 35.5555H16.808C16.8862 35.0649 16.8862 34.5647 16.808 34.0741H30.1253C30.0471 34.5647 30.0471 35.0649 30.1253 35.5555ZM35.2 38.5185C34.4748 38.5185 33.7659 38.3013 33.1629 37.8943C32.5599 37.4874 32.09 36.9089 31.8124 36.2322C31.5349 35.5554 31.4623 34.8107 31.6038 34.0923C31.7453 33.3738 32.0945 32.7139 32.6073 32.1959C33.1201 31.6779 33.7734 31.3252 34.4847 31.1823C35.1959 31.0394 35.9332 31.1127 36.6032 31.393C37.2732 31.6734 37.8458 32.1481 38.2487 32.7571C38.6516 33.3662 38.8667 34.0823 38.8667 34.8148C38.8667 35.7971 38.4804 36.7391 37.7927 37.4337C37.1051 38.1283 36.1725 38.5185 35.2 38.5185ZM42.5333 34.8148C42.5333 35.0113 42.4561 35.1997 42.3185 35.3386C42.181 35.4775 41.9945 35.5555 41.8 35.5555H40.2747C40.3529 35.0649 40.3529 34.5647 40.2747 34.0741H42.5333V34.8148ZM42.5333 29.6296H41.8C41.6055 29.6296 41.419 29.5516 41.2815 29.4127C41.1439 29.2738 41.0667 29.0854 41.0667 28.8889V28.1482C41.0667 27.9517 41.1439 27.7633 41.2815 27.6244C41.419 27.4855 41.6055 27.4074 41.8 27.4074H42.5333V29.6296ZM42.5333 25.9259H41.8C41.2171 25.9277 40.6585 26.1624 40.2463 26.5788C39.8341 26.9951 39.6017 27.5593 39.6 28.1482V28.8889C39.6017 29.4777 39.8341 30.0419 40.2463 30.4583C40.6585 30.8747 41.2171 31.1094 41.8 31.1111H42.5333V32.5926H39.8273C39.4134 31.7064 38.7587 30.9574 37.9394 30.4328C37.1201 29.9082 36.17 29.6296 35.2 29.6296C34.23 29.6296 33.2799 29.9082 32.4606 30.4328C31.6413 30.9574 30.9866 31.7064 30.5727 32.5926H27.8667V16.2963H29.3333V20.7408C29.3351 21.3296 29.5674 21.8938 29.9796 22.3102C30.3918 22.7265 30.9504 22.9612 31.5333 22.963H41.8C41.9945 22.963 42.181 23.041 42.3185 23.1799C42.4561 23.3188 42.5333 23.5073 42.5333 23.7037V25.9259Z" fill="#EC1314"/>
<path d="M30.0673 25.9258H31.534C31.7285 25.9258 31.915 25.8478 32.0525 25.7089C32.1901 25.5699 32.2673 25.3815 32.2673 25.1851C32.2673 24.9886 32.1901 24.8002 32.0525 24.6613C31.915 24.5224 31.7285 24.4443 31.534 24.4443H30.0673C29.8728 24.4443 29.6863 24.5224 29.5488 24.6613C29.4112 24.8002 29.334 24.9886 29.334 25.1851C29.334 25.3815 29.4112 25.5699 29.5488 25.7089C29.6863 25.8478 29.8728 25.9258 30.0673 25.9258Z" fill="#EC1314"/>
<path d="M35.2 32.5928C34.7649 32.5928 34.3395 32.7231 33.9777 32.9673C33.616 33.2115 33.334 33.5585 33.1675 33.9646C33.001 34.3706 32.9574 34.8175 33.0423 35.2485C33.1272 35.6796 33.3367 36.0756 33.6444 36.3863C33.952 36.6971 34.344 36.9088 34.7708 36.9945C35.1976 37.0803 35.6399 37.0362 36.0419 36.8681C36.4439 36.6999 36.7875 36.415 37.0292 36.0496C37.271 35.6841 37.4 35.2545 37.4 34.815C37.4 34.2256 37.1682 33.6604 36.7556 33.2436C36.3431 32.8269 35.7835 32.5928 35.2 32.5928ZM35.2 35.5557C35.055 35.5557 34.9132 35.5123 34.7926 35.4309C34.672 35.3495 34.578 35.2338 34.5225 35.0985C34.467 34.9631 34.4525 34.8142 34.4808 34.6705C34.5091 34.5268 34.5789 34.3948 34.6815 34.2912C34.784 34.1876 34.9147 34.1171 35.0569 34.0885C35.1992 34.0599 35.3466 34.0746 35.4806 34.1306C35.6146 34.1867 35.7292 34.2816 35.8097 34.4035C35.8903 34.5253 35.9333 34.6685 35.9333 34.815C35.9333 35.0114 35.8561 35.1999 35.7185 35.3388C35.581 35.4777 35.3945 35.5557 35.2 35.5557Z" fill="#EC1314"/>
<path d="M11.7332 32.5928C11.2981 32.5928 10.8727 32.7231 10.511 32.9673C10.1492 33.2115 9.86718 33.5585 9.70067 33.9646C9.53416 34.3706 9.49059 34.8175 9.57548 35.2485C9.66036 35.6796 9.86989 36.0756 10.1776 36.3863C10.4852 36.6971 10.8772 36.9088 11.304 36.9945C11.7308 37.0803 12.1731 37.0362 12.5751 36.8681C12.9771 36.6999 13.3207 36.415 13.5624 36.0496C13.8042 35.6841 13.9332 35.2545 13.9332 34.815C13.9332 34.2256 13.7014 33.6604 13.2888 33.2436C12.8763 32.8269 12.3167 32.5928 11.7332 32.5928ZM11.7332 35.5557C11.5882 35.5557 11.4464 35.5123 11.3258 35.4309C11.2052 35.3495 11.1112 35.2338 11.0557 35.0985C11.0002 34.9631 10.9857 34.8142 11.014 34.6705C11.0423 34.5268 11.1121 34.3948 11.2147 34.2912C11.3172 34.1876 11.4479 34.1171 11.5901 34.0885C11.7324 34.0599 11.8798 34.0746 12.0138 34.1306C12.1478 34.1867 12.2624 34.2816 12.3429 34.4035C12.4235 34.5253 12.4665 34.6685 12.4665 34.815C12.4665 35.0114 12.3893 35.1999 12.2517 35.3388C12.1142 35.4777 11.9277 35.5557 11.7332 35.5557Z" fill="#EC1314"/>
</g>

</symbol>
<symbol id="download1" viewBox="0 0 21 21">
  <path d="M1.90039 13.334V18.5186H18.5V13.334H20.4004V20.4004H0V13.334H1.90039Z"/>
  <path d="M11.1504 11.8057L15.7803 7.46094L15.9248 7.32617L16.0615 7.46777L17.0947 8.54199L17.2344 8.6875L17.0869 8.82617L10.3369 15.1602L10.2002 15.2881L10.0635 15.1602L3.31348 8.82617L3.16602 8.6875L3.30566 8.54199L4.33887 7.46777L4.47559 7.32617L4.62012 7.46094L9.25 11.8057V0H11.1504V11.8057Z"/>
</symbol>
<symbol id="eye-off1" viewBox="0 0 24 24">
  <path d="M2.35059 6.71582C2.35419 6.72322 2.36015 6.73623 2.36914 6.75391C2.38726 6.78952 2.41657 6.84534 2.45703 6.91797C2.5383 7.06384 2.66587 7.27852 2.8418 7.53809C3.19421 8.058 3.73966 8.75569 4.50684 9.45312C6.03346 10.841 8.4432 12.2383 12 12.2383C15.9719 12.2383 18.3692 10.8276 19.7734 9.46875C20.4828 8.78229 20.9502 8.09729 21.2383 7.58887C21.3821 7.33503 21.4809 7.12641 21.542 6.98535C21.5724 6.91507 21.5937 6.86165 21.6064 6.82812C21.6128 6.81148 21.6169 6.7994 21.6191 6.79297C21.6203 6.78977 21.6211 6.78711 21.6211 6.78711V6.78906L23.043 7.26562L23.042 7.26953C23.042 7.26953 23.0409 7.27391 23.04 7.27637C23.0382 7.28157 23.035 7.28797 23.0322 7.2959C23.0265 7.31197 23.0189 7.33365 23.0088 7.36035C22.9883 7.41416 22.959 7.48952 22.9189 7.58203C22.8388 7.76687 22.7166 8.02347 22.5439 8.32812C22.1987 8.93731 21.6478 9.74322 20.8174 10.5469C20.3529 10.9964 19.8027 11.4394 19.1592 11.8486L20.8477 14.1807L19.5459 15.0801L17.7529 12.6035C16.4108 13.2052 14.7631 13.636 12.75 13.7217V16.9727H11.25V13.7188C9.30714 13.6196 7.67821 13.1396 6.33203 12.4844L4.4541 15.0801L3.15234 14.1807L4.95117 11.6943C4.40591 11.3322 3.9222 10.9481 3.49805 10.5625C2.62632 9.76999 2.0047 8.97754 1.59961 8.37988C1.39682 8.08069 1.2478 7.82853 1.14746 7.64844C1.09726 7.55834 1.05849 7.48619 1.03223 7.43457C1.01915 7.40887 1.0093 7.38813 1.00195 7.37305C0.998308 7.36556 0.995417 7.35922 0.993164 7.35449C0.992091 7.35224 0.990234 7.34863 0.990234 7.34863L0.989258 7.3457C0.989258 7.3457 0.989757 7.34384 1.66797 7.02734C2.26825 6.74721 2.33862 6.71502 2.34668 6.71094C2.34668 6.71094 2.34942 6.71342 2.35059 6.71582Z"/>
</symbol>
<symbol id="eye-on1" viewBox="0 0 24 24">
  <path fill-rule="evenodd" clip-rule="evenodd" d="M12 7.90601C14.2609 7.90601 16.0937 9.73883 16.0938 11.9998C16.0938 14.2608 14.261 16.0935 12 16.0935C9.73907 16.0934 7.90625 14.2607 7.90625 11.9998C7.90633 9.73888 9.73912 7.90608 12 7.90601ZM12 9.40601C10.5676 9.40608 9.40633 10.5673 9.40625 11.9998C9.40625 13.4323 10.5675 14.5934 12 14.5935C13.4326 14.5935 14.5938 13.4323 14.5938 11.9998C14.5937 10.5673 13.4325 9.40601 12 9.40601Z"/>
  <path fill-rule="evenodd" clip-rule="evenodd" d="M12 5.44116L12.4258 5.44604C21.213 5.64395 23.3517 11.944 23.3701 11.9988L23.2578 12.281C22.7136 13.5368 20.0354 18.5593 12 18.5593L11.6143 18.5544C3.59612 18.3558 0.629883 11.9988 0.629883 11.9988C0.654869 11.9455 3.72507 5.44116 12 5.44116ZM12 6.94116C8.28227 6.94116 5.78673 8.39507 4.20801 9.82983C3.41063 10.5545 2.84358 11.2791 2.47949 11.8162C2.43646 11.8796 2.39757 11.9411 2.36035 11.9988C2.39769 12.0566 2.43629 12.1186 2.47949 12.1824C2.84356 12.7195 3.41076 13.4439 4.20801 14.1687C5.78675 15.6039 8.28223 17.0593 12 17.0593C16.1909 17.0593 18.6627 15.5783 20.0859 14.2009C20.8119 13.4983 21.2887 12.799 21.5801 12.2849C21.6387 12.1815 21.6877 12.0848 21.7314 11.9988C21.6879 11.9131 21.6384 11.8175 21.5801 11.7146C21.2887 11.2006 20.812 10.5011 20.0859 9.79858C18.6627 8.4216 16.191 6.94116 12 6.94116Z"/>
</symbol>
<symbol id="guarantee" viewBox="0 0 40 40">
<path d="M35.9252 2.62119C31.4119 2.62119 26.9996 1.77124 22.8103 0.0958723L22.5711 0L22.3326 0.0957351C18.1427 1.77124 13.7303 2.62106 9.217 2.62106H7.78385V16.1225H4.56932C3.50594 16.1225 2.64062 16.9878 2.64062 18.0511V28.9809C2.64062 30.0442 3.50594 30.9097 4.56932 30.9097H10.3555C10.3568 30.9097 10.3575 30.9097 10.3587 30.9097C11.8773 33.3225 13.9815 35.3156 16.4903 36.6831L22.5709 40L28.6516 36.6831C34.0225 33.754 37.3581 28.1342 37.3581 22.0169V2.62119H35.9252ZM3.92633 28.9809V18.0511C3.92633 17.6969 4.21436 17.4083 4.56918 17.4083H10.3554C10.7102 17.4083 10.9982 17.697 10.9982 18.0511V28.9809C10.9982 29.3351 10.7102 29.6238 10.3554 29.6238H4.56932C4.21436 29.6238 3.92633 29.3351 3.92633 28.9809ZM12.2844 19.3314C14.4311 19.2151 16.1419 17.4315 16.1419 15.2566V11.9436C16.1419 11.0577 16.8626 10.3362 17.7492 10.3362C18.6358 10.3362 19.3566 11.0575 19.3566 11.9436V15.9901C19.3566 17.1267 20.2811 18.0513 21.4177 18.0513H26.131C27.3583 18.0513 28.3574 19.0498 28.3574 20.2777V27.3974C28.3574 28.6254 27.3584 29.6238 26.131 29.6238H16.6581C16.1476 29.6238 15.6745 29.3698 15.391 28.9456C14.8689 28.1626 13.9951 27.6952 13.0539 27.6952H12.2844V19.3314ZM36.0723 22.0167C36.0723 27.6629 32.9935 32.8506 28.0365 35.5541L22.5711 38.5353L17.1057 35.5541C14.8689 34.3338 12.9788 32.5767 11.5888 30.4512C11.9791 30.1232 12.2357 29.6476 12.2716 29.1075C13.569 31.3454 15.4373 33.1791 17.7217 34.425L22.5712 37.0706L27.4208 34.425C31.9644 31.9471 34.7868 27.1928 34.7868 22.0173V12.2649H33.5009V22.0174C33.5009 26.7216 30.9357 31.0441 26.8055 33.2962L22.5712 35.6056L18.3369 33.2962C16.5252 32.308 15.0033 30.9116 13.8596 29.222C14.039 29.3344 14.1997 29.4772 14.3213 29.6592C14.8433 30.4423 15.7171 30.9097 16.6583 30.9097H26.1311C28.0682 30.9097 29.6434 29.3339 29.6434 27.3974V20.2777C29.6434 18.3412 28.0683 16.7654 26.1311 16.7654H21.4179C20.9904 16.7654 20.6425 16.4176 20.6425 15.9901V11.9436C20.6425 10.3484 19.3445 9.0504 17.7494 9.0504C16.1542 9.0504 14.8562 10.3484 14.8562 11.9436V15.2559C14.8562 16.7218 13.7189 17.9137 12.2819 18.0288C12.2754 17.4702 12.0279 16.9724 11.6415 16.624V6.40479C15.3756 6.17533 19.0486 5.41219 22.5711 4.13266C26.0937 5.41205 29.766 6.17519 33.5007 6.40479V7.12171H34.7865V5.18135L34.1731 5.1531C30.2809 4.97507 26.4523 4.19836 22.7941 2.84503L22.5709 2.76205L22.3478 2.84435C18.6889 4.19767 14.8603 4.97439 10.9688 5.15242L10.3554 5.18135V16.1226H9.06955V3.90704H9.21672C13.8091 3.90704 18.2999 3.05831 22.5708 1.38418C26.8417 3.05831 31.3325 3.90704 35.9249 3.90704H36.0721V22.0167H36.0723Z" fill="#EC1314"/>
<path d="M34.7858 9.69336H33.5V10.9792H34.7858V9.69336Z" fill="#EC1314"/>
<path d="M9.71326 27.0527H5.21289V28.3386H9.71326V27.0527Z" fill="#EC1314"/>
</symbol>
<symbol id="logout1" viewBox="0 0 19 18">
  <path d="M15.9999 0L16.2968 0.0146484C16.9834 0.0829675 17.6288 0.386728 18.121 0.878906C18.6836 1.44151 18.9999 2.20437 18.9999 3V15C18.9999 15.7956 18.6836 16.5585 18.121 17.1211C17.5584 17.6837 16.7955 18 15.9999 18H10.9999C10.2043 18 9.44144 17.6837 8.87883 17.1211C8.31622 16.5585 7.99992 15.7957 7.99992 15V14C7.99992 13.4477 8.44764 13 8.99992 13L9.10246 13.0049C9.60656 13.0562 9.99992 13.4823 9.99992 14V15C9.99992 15.2652 10.1054 15.5195 10.2929 15.707C10.4804 15.8945 10.7347 16 10.9999 16H15.9999C16.2651 16 16.5194 15.8945 16.707 15.707C16.8945 15.5195 16.9999 15.2652 16.9999 15V3C16.9999 2.7348 16.8945 2.4805 16.707 2.29297C16.5194 2.10545 16.2651 2.00002 15.9999 2H10.9999C10.7347 2 10.4804 2.10546 10.2929 2.29297C10.1054 2.48051 9.99992 2.73478 9.99992 3V4C9.99992 4.55226 9.55217 4.99996 8.99992 5C8.44764 5 7.99992 4.55228 7.99992 4V3C7.99992 2.20435 8.31622 1.44152 8.87883 0.878906C9.44144 0.316321 10.2043 0 10.9999 0H15.9999Z"/>
  <path d="M3.29289 5.29297C3.68342 4.90248 4.31644 4.90246 4.70696 5.29297C5.09743 5.68348 5.09743 6.31652 4.70696 6.70703L3.41399 8H11.4999L11.6025 8.00488C12.1066 8.05625 12.4999 8.48235 12.4999 9C12.4999 9.55226 12.0522 9.99996 11.4999 10H3.41399L4.70696 11.293C5.09743 11.6835 5.09743 12.3165 4.70696 12.707C4.31644 13.0975 3.68342 13.0975 3.29289 12.707L0.292893 9.70703C-0.097631 9.31651 -0.097631 8.68349 0.292893 8.29297L3.29289 5.29297Z"/>
</symbol>
<symbol id="mail1" viewBox="0 0 18 14">
  <path d="M15.75 0H2.25C1.65326 0 1.08096 0.256519 0.659008 0.713129C0.237051 1.16974 0 1.78904 0 2.43478V11.5652C0 12.211 0.237051 12.8303 0.659008 13.2869C1.08096 13.7435 1.65326 14 2.25 14H15.75C16.3467 14 16.919 13.7435 17.341 13.2869C17.7629 12.8303 18 12.211 18 11.5652V2.43478C18 1.78904 17.7629 1.16974 17.341 0.713129C16.919 0.256519 16.3467 0 15.75 0ZM16.875 11.5652C16.875 11.8881 16.7565 12.1977 16.5455 12.426C16.3345 12.6543 16.0484 12.7826 15.75 12.7826H2.25C1.95163 12.7826 1.66548 12.6543 1.4545 12.426C1.24353 12.1977 1.125 11.8881 1.125 11.5652V2.43478C1.125 2.11191 1.24353 1.80226 1.4545 1.57396C1.66548 1.34565 1.95163 1.21739 2.25 1.21739H15.75C16.0484 1.21739 16.3345 1.34565 16.5455 1.57396C16.7565 1.80226 16.875 2.11191 16.875 2.43478V11.5652Z"/>
  <path d="M15.6202 3.26934C15.5734 3.20726 15.5157 3.1558 15.4504 3.1179C15.3852 3.08001 15.3137 3.05642 15.24 3.04851C15.1663 3.04059 15.0919 3.04849 15.021 3.07176C14.9502 3.09504 14.8842 3.13322 14.8271 3.18413L8.99955 8.34587L3.16643 3.18413C3.11032 3.12735 3.04406 3.08361 2.97173 3.0556C2.89941 3.0276 2.82254 3.01592 2.74589 3.02129C2.66923 3.02666 2.5944 3.04896 2.52601 3.08683C2.45763 3.12469 2.39713 3.17731 2.34826 3.24144C2.29938 3.30558 2.26317 3.37986 2.24185 3.45972C2.22052 3.53958 2.21453 3.62332 2.22425 3.70578C2.23398 3.78823 2.2592 3.86766 2.29838 3.93916C2.33756 4.01067 2.38986 4.07272 2.45205 4.12152L8.63955 9.59978C8.74075 9.69052 8.86812 9.74006 8.99955 9.73978C9.12905 9.73865 9.25422 9.6892 9.35393 9.59978L15.5414 4.12152C15.6556 4.01934 15.728 3.87252 15.7427 3.71296C15.7575 3.55339 15.7134 3.39397 15.6202 3.26934Z"/>
  <path d="M13.3316 8.08911C13.2262 7.97574 13.0836 7.91211 12.935 7.91211C12.7864 7.91211 12.6439 7.97574 12.5385 8.08911C12.4857 8.1457 12.4439 8.21302 12.4153 8.28719C12.3868 8.36137 12.3721 8.44093 12.3721 8.52129C12.3721 8.60164 12.3868 8.6812 12.4153 8.75537C12.4439 8.82955 12.4857 8.89687 12.5385 8.95346L14.7885 11.3882C14.8409 11.4446 14.9031 11.4892 14.9715 11.5196C15.0399 11.5499 15.1131 11.5654 15.187 11.5651C15.2609 11.5648 15.3341 11.5488 15.4022 11.5179C15.4704 11.487 15.5323 11.442 15.5844 11.3852C15.6365 11.3284 15.6777 11.2611 15.7058 11.1871C15.7338 11.1131 15.7481 11.0339 15.7478 10.9539C15.7476 10.8739 15.7328 10.7948 15.7042 10.721C15.6757 10.6472 15.634 10.5802 15.5816 10.5239L13.3316 8.08911Z"/>
  <path d="M4.68579 8.08911L2.43579 10.5239C2.32987 10.6377 2.27006 10.7924 2.26953 10.9539C2.26901 11.1154 2.3278 11.2706 2.43297 11.3852C2.53815 11.4998 2.68109 11.5645 2.83036 11.5651C2.97963 11.5657 3.123 11.5021 3.22892 11.3882L5.47892 8.95346C5.53164 8.89687 5.57348 8.82955 5.60204 8.75537C5.6306 8.6812 5.6453 8.60164 5.6453 8.52129C5.6453 8.44093 5.6306 8.36137 5.60204 8.28719C5.57348 8.21302 5.53164 8.1457 5.47892 8.08911C5.37352 7.97574 5.23096 7.91211 5.08235 7.91211C4.93375 7.91211 4.79118 7.97574 4.68579 8.08911Z"/>
</symbol>
<symbol id="mark1" viewBox="0 0 10 8">
  <path d="M3.28224 8L0 4.80309L1.49577 3.3462L3.28224 5.09138L8.50423 0L10 1.45689L3.28224 8Z"/>
</symbol>
<symbol id="minus2" viewBox="0 0 14 2">
  <path d="M13.5 1.5H0V0H13.5V1.5Z"/>
</symbol>
<symbol id="payment" viewBox="0 0 35 40">
<g clip-path="url(#clip0_618_4116)">
<path d="M33.6538 27.4533V18C33.6522 17.4701 33.439 16.9623 33.0607 16.5875C32.6823 16.2128 32.1697 16.0016 31.6346 16H26.9231V0.666667C26.9231 0.489856 26.8522 0.320286 26.7259 0.195262C26.5997 0.0702379 26.4285 0 26.25 0H7.40385C7.22534 0 7.05413 0.0702379 6.92791 0.195262C6.80168 0.320286 6.73077 0.489856 6.73077 0.666667V16H3.36538C2.47283 16 1.61683 16.3512 0.985698 16.9763C0.354566 17.6014 0 18.4493 0 19.3333V36.6667C0 37.5507 0.354566 38.3986 0.985698 39.0237C1.61683 39.6488 2.47283 40 3.36538 40H31.6346C32.1697 39.9984 32.6823 39.7872 33.0607 39.4125C33.439 39.0377 33.6522 38.5299 33.6538 38V33.88C34.0461 33.7416 34.3857 33.4869 34.6266 33.1505C34.8675 32.8141 34.9979 32.4124 35 32V29.3333C34.9979 28.9209 34.8675 28.5192 34.6266 28.1828C34.3857 27.8464 34.0461 27.5917 33.6538 27.4533ZM8.07692 1.33333H25.5769V18.6667H24.2308V6.47333C24.2308 6.32909 24.1835 6.18873 24.0962 6.07333C24.0088 5.95794 23.886 5.87372 23.7462 5.83333C23.1032 5.64597 22.518 5.30185 22.0441 4.83248C21.5702 4.3631 21.2228 3.78347 21.0337 3.14667C20.9929 3.00819 20.9079 2.88655 20.7913 2.8C20.6748 2.71345 20.5331 2.66667 20.3875 2.66667H13.2663C13.1207 2.66667 12.979 2.71345 12.8625 2.8C12.746 2.88655 12.661 3.00819 12.6202 3.14667C12.431 3.78347 12.0836 4.3631 11.6097 4.83248C11.1358 5.30185 10.5506 5.64597 9.90769 5.83333C9.76788 5.87372 9.64507 5.95794 9.55769 6.07333C9.47031 6.18873 9.42308 6.32909 9.42308 6.47333V18.6667H8.07692V1.33333ZM22.8846 6.94667V18.6667H10.7692V6.94667C11.4408 6.6807 12.0507 6.28237 12.5621 5.77584C13.0735 5.2693 13.4757 4.66514 13.7442 4H19.9096C20.1781 4.66514 20.5803 5.2693 21.0917 5.77584C21.6031 6.28237 22.2131 6.6807 22.8846 6.94667ZM1.93173 17.92C2.31294 17.545 2.82814 17.3342 3.36538 17.3333H6.73077V18.6667H3.36538C3.18687 18.6667 3.01567 18.7369 2.88945 18.8619C2.76322 18.987 2.69231 19.1565 2.69231 19.3333C2.69231 19.5101 2.76322 19.6797 2.88945 19.8047C3.01567 19.9298 3.18687 20 3.36538 20H30.2885C30.467 20 30.6382 19.9298 30.7644 19.8047C30.8906 19.6797 30.9615 19.5101 30.9615 19.3333C30.9615 19.1565 30.8906 18.987 30.7644 18.8619C30.6382 18.7369 30.467 18.6667 30.2885 18.6667H26.9231V17.3333H31.6346C31.8131 17.3333 31.9843 17.4036 32.1106 17.5286C32.2368 17.6536 32.3077 17.8232 32.3077 18V21.3333H3.36538C2.96642 21.3327 2.57654 21.2153 2.24482 20.9957C1.91309 20.7762 1.65432 20.4643 1.50108 20.0995C1.34784 19.7346 1.30696 19.333 1.38358 18.9452C1.46021 18.5574 1.65093 18.2007 1.93173 17.92ZM32.3077 38C32.3077 38.1768 32.2368 38.3464 32.1106 38.4714C31.9843 38.5964 31.8131 38.6667 31.6346 38.6667H3.36538C2.83034 38.6651 2.31767 38.4539 1.93934 38.0791C1.561 37.7044 1.34775 37.1966 1.34615 36.6667V21.98C1.92434 22.4232 2.63426 22.6646 3.36538 22.6667H32.3077V27.3333H26.9231C26.388 27.3349 25.8754 27.5461 25.497 27.9209C25.1187 28.2956 24.9054 28.8034 24.9038 29.3333V32C24.9054 32.5299 25.1187 33.0377 25.497 33.4125C25.8754 33.7872 26.388 33.9984 26.9231 34H32.3077V38ZM33.6538 32C33.6538 32.1768 33.5829 32.3464 33.4567 32.4714C33.3305 32.5964 33.1593 32.6667 32.9808 32.6667H26.9231C26.7446 32.6667 26.5734 32.5964 26.4471 32.4714C26.3209 32.3464 26.25 32.1768 26.25 32V29.3333C26.25 29.1565 26.3209 28.987 26.4471 28.8619C26.5734 28.7369 26.7446 28.6667 26.9231 28.6667H32.9808C33.1593 28.6667 33.3305 28.7369 33.4567 28.8619C33.5829 28.987 33.6538 29.1565 33.6538 29.3333V32Z" fill="#EC1314"/>
<path d="M28.27 30H27.5969C27.4184 30 27.2472 30.0702 27.121 30.1953C26.9947 30.3203 26.9238 30.4899 26.9238 30.6667C26.9238 30.8435 26.9947 31.013 27.121 31.1381C27.2472 31.2631 27.4184 31.3333 27.5969 31.3333H28.27C28.4485 31.3333 28.6197 31.2631 28.7459 31.1381C28.8721 31.013 28.9431 30.8435 28.9431 30.6667C28.9431 30.4899 28.8721 30.3203 28.7459 30.1953C28.6197 30.0702 28.4485 30 28.27 30Z" fill="#EC1314"/>
<path d="M6.05679 35.9997H4.71064C4.53213 35.9997 4.36093 35.9294 4.2347 35.8044C4.10847 35.6794 4.03756 35.5098 4.03756 35.333V33.9997C4.03756 33.8229 3.96665 33.6533 3.84042 33.5283C3.71419 33.4032 3.54299 33.333 3.36448 33.333C3.18597 33.333 3.01477 33.4032 2.88855 33.5283C2.76232 33.6533 2.69141 33.8229 2.69141 33.9997V35.333C2.69141 35.8634 2.90415 36.3721 3.28282 36.7472C3.6615 37.1223 4.1751 37.333 4.71064 37.333H6.05679C6.2353 37.333 6.4065 37.2628 6.53273 37.1377C6.65895 37.0127 6.72987 36.8432 6.72987 36.6663C6.72987 36.4895 6.65895 36.32 6.53273 36.1949C6.4065 36.0699 6.2353 35.9997 6.05679 35.9997Z" fill="#EC1314"/>
<path d="M16.8274 10.0003C17.0059 10.0003 17.1771 9.93009 17.3033 9.80506C17.4295 9.68004 17.5005 9.51047 17.5005 9.33366V7.33366C17.5005 7.15685 17.4295 6.98728 17.3033 6.86225C17.1771 6.73723 17.0059 6.66699 16.8274 6.66699C16.6489 6.66699 16.4777 6.73723 16.3514 6.86225C16.2252 6.98728 16.1543 7.15685 16.1543 7.33366V9.33366C16.1543 9.51047 16.2252 9.68004 16.3514 9.80506C16.4777 9.93009 16.6489 10.0003 16.8274 10.0003Z" fill="#EC1314"/>
</g>

</symbol>
<symbol id="phone1" viewBox="0 0 18 18">
  <path d="M17.9417 8.01249C16.405 4.41678 13.5363 1.55801 9.93887 0.0373292C9.79399 -0.0168478 9.63366 -0.0118883 9.49239 0.0511311C9.35111 0.11415 9.24018 0.230198 9.18345 0.374312C9.15254 0.446427 9.13627 0.523988 9.13559 0.602468C9.13492 0.680947 9.14984 0.758769 9.1795 0.831408C9.20917 0.904047 9.25298 0.970043 9.30837 1.02555C9.36376 1.08105 9.42964 1.12494 9.50215 1.15468C12.8182 2.55806 15.4624 5.19408 16.8793 8.50909C16.9427 8.64967 17.0584 8.75989 17.2017 8.81622C17.3451 8.87255 17.5047 8.87053 17.6466 8.8106C17.7192 8.77875 17.7847 8.73255 17.8391 8.67478C17.8936 8.617 17.9358 8.54884 17.9634 8.47434C17.9909 8.39985 18.0032 8.32055 17.9995 8.2412C17.9957 8.16185 17.9761 8.08407 17.9417 8.01249Z"/>
  <path d="M9.19498 4.34709C11.205 5.19521 12.8086 6.7909 13.6685 8.79876C13.7142 8.89781 13.7863 8.98226 13.8769 9.04278C13.9676 9.1033 14.0731 9.13752 14.182 9.14165C14.2617 9.14105 14.3402 9.12289 14.4121 9.08844C14.5479 9.02183 14.6529 8.9056 14.7056 8.76371C14.7583 8.62182 14.7547 8.46508 14.6954 8.3258C13.7207 6.04621 11.9012 4.23422 9.61991 3.27112C9.47943 3.22117 9.32527 3.22632 9.18843 3.28554C9.05158 3.34476 8.94217 3.45366 8.88219 3.59037C8.8267 3.73256 8.82828 3.89073 8.88659 4.03178C8.94489 4.17283 9.0554 4.28582 9.19498 4.34709Z"/>
  <path d="M14.8785 11.3705C14.7505 11.2207 14.5917 11.1005 14.4129 11.018C14.2341 10.9355 14.0396 10.8928 13.8427 10.8928C13.6459 10.8928 13.4514 10.9355 13.2726 11.018C13.0938 11.1005 12.935 11.2207 12.807 11.3705C12.323 11.8494 11.8391 12.3341 11.361 12.8248C11.3398 12.8564 11.3124 12.8834 11.2805 12.9041C11.2486 12.9249 11.2129 12.939 11.1754 12.9456C11.138 12.9522 11.0996 12.9512 11.0625 12.9427C11.0254 12.9341 10.9905 12.9182 10.9597 12.8958C10.6469 12.7243 10.3105 12.5884 10.0095 12.3992C8.62833 11.5025 7.40405 10.3839 6.38586 9.08852C5.85426 8.46071 5.41503 7.75994 5.08156 7.00752C5.0453 6.94513 5.03308 6.87161 5.04722 6.80082C5.06135 6.73003 5.10086 6.66686 5.15829 6.62324C5.64223 6.15029 6.11437 5.67143 6.59241 5.18665C6.74843 5.05684 6.87398 4.89419 6.96016 4.71027C7.04633 4.52635 7.091 4.32568 7.091 4.12251C7.091 3.91934 7.04633 3.71867 6.96016 3.53476C6.87398 3.35084 6.74843 3.18818 6.59241 3.05836C6.2147 2.67409 5.83699 2.30164 5.45338 1.91737L4.27302 0.73499C4.1403 0.592543 3.98067 0.477908 3.80338 0.397736C3.62608 0.317564 3.43466 0.273445 3.24022 0.267944C3.04452 0.274405 2.85203 0.319516 2.67378 0.400677C2.49553 0.481838 2.33503 0.597454 2.2015 0.740898C1.71165 1.21976 1.24542 1.71636 0.743765 2.18931C0.302112 2.60657 0.0379189 3.17824 0.00605444 3.78554C-0.0359876 4.78152 0.141328 5.77456 0.525412 6.69419C1.26152 8.60593 2.32171 10.376 3.65924 11.9262C5.41826 14.0438 7.60979 15.7593 10.0863 16.9573C11.1849 17.5387 12.3892 17.8926 13.6273 17.9978H13.8575C14.2355 18.0138 14.6123 17.9451 14.9604 17.7969C15.3085 17.6486 15.6193 17.4243 15.87 17.1405C16.2831 16.6735 16.7494 16.2478 17.192 15.8044C17.345 15.674 17.468 15.5118 17.5523 15.3291C17.6366 15.1464 17.6803 14.9475 17.6803 14.7462C17.6803 14.5449 17.6366 14.346 17.5523 14.1633C17.468 13.9806 17.345 13.8184 17.192 13.688C16.4287 12.9155 15.6575 12.143 14.8785 11.3705ZM16.3657 14.9827L15.9231 15.4202C15.6162 15.7158 15.3034 16.0114 14.9965 16.3602C14.8583 16.5211 14.6843 16.6472 14.4885 16.7283C14.2927 16.8095 14.0806 16.8433 13.8693 16.8272H13.704C12.6184 16.7333 11.5627 16.4217 10.5997 15.9109C8.27644 14.779 6.21878 13.1672 4.5622 11.1813C3.30294 9.7376 2.30438 8.08515 1.61132 6.2981C1.2877 5.54071 1.13457 4.72122 1.1628 3.89785C1.17631 3.58151 1.31169 3.28273 1.54051 3.06428C1.8474 2.76869 2.13068 2.47309 2.44348 2.17158L3.03365 1.58039C3.05298 1.54041 3.08317 1.50669 3.12075 1.4831C3.15833 1.45951 3.20178 1.447 3.24612 1.447C3.29047 1.447 3.33392 1.45951 3.3715 1.4831C3.40907 1.50669 3.43925 1.54041 3.45858 1.58039C3.71826 1.8346 3.97204 2.09472 4.22582 2.35485L5.76617 3.89785C5.98453 4.11659 5.97273 4.15799 5.76617 4.35899L5.56551 4.55999C5.16419 4.97383 4.75697 5.37584 4.33205 5.78967C4.11014 6.00082 3.95958 6.2761 3.90139 6.5771C3.8432 6.8781 3.88028 7.18978 4.00746 7.46865C4.37994 8.3256 4.87715 9.12251 5.4829 9.83341C6.58587 11.2233 7.90984 12.4217 9.40166 13.3806C9.63182 13.5224 9.8679 13.6407 10.0745 13.7412L10.3931 13.9008C10.6185 14.0341 10.875 14.1055 11.1368 14.1077C11.3406 14.1067 11.5419 14.063 11.7279 13.9796C11.9139 13.8961 12.0804 13.7746 12.2168 13.6229C12.683 13.1441 13.1552 12.677 13.6509 12.1863C13.7014 12.1205 13.7718 12.0728 13.8516 12.0504C13.9341 12.0703 14.0071 12.1184 14.0582 12.1863C14.8451 12.9746 15.632 13.7491 16.4189 14.5097C16.5546 14.7166 16.5723 14.7698 16.3657 14.9827Z"/>
</symbol>
<symbol id="placemark1" viewBox="0 0 15 18">
  <path d="M7.5 0C5.51088 0 3.60322 0.76161 2.1967 2.1173C0.790175 3.47298 0 5.31169 0 7.22892C0 10.6654 3.86539 14.7915 7.11346 17.6497L7.51154 18L7.89808 17.6386C11.4923 14.3021 15 10.76 15 7.22892C15 5.31169 14.2098 3.47298 12.8033 2.1173C11.3968 0.76161 9.48912 0 7.5 0ZM7.5 16.4708C3.40962 12.7896 1.15385 9.51993 1.15385 7.22892C1.15385 5.60665 1.82246 4.05082 3.01259 2.9037C4.20273 1.75658 5.8169 1.11214 7.5 1.11214C9.1831 1.11214 10.7973 1.75658 11.9874 2.9037C13.1775 4.05082 13.8462 5.60665 13.8462 7.22892C13.8462 10.2039 10.7654 13.3957 7.5 16.4708Z"/>
  <path d="M7.50005 4.44861C6.92953 4.44861 6.37181 4.61167 5.89744 4.91718C5.42307 5.22269 5.05334 5.65692 4.83501 6.16496C4.61668 6.67301 4.55956 7.23204 4.67086 7.77138C4.78217 8.31072 5.0569 8.80613 5.46032 9.19497C5.86374 9.58381 6.37773 9.8486 6.93729 9.95588C7.49685 10.0632 8.07685 10.0081 8.60394 9.79767C9.13104 9.58724 9.58155 9.23087 9.89852 8.77364C10.2155 8.31641 10.3847 7.77886 10.3847 7.22896C10.3847 6.49157 10.0808 5.78437 9.53978 5.26295C8.99881 4.74154 8.2651 4.44861 7.50005 4.44861ZM7.50005 8.89717C7.15774 8.89717 6.82311 8.79933 6.53849 8.61602C6.25386 8.43272 6.03203 8.17218 5.90103 7.86735C5.77003 7.56253 5.73576 7.22711 5.80254 6.9035C5.86932 6.5799 6.03416 6.28266 6.27621 6.04936C6.51826 5.81605 6.82666 5.65717 7.16239 5.59281C7.49813 5.52844 7.84613 5.56147 8.16239 5.68774C8.47864 5.814 8.74895 6.02781 8.93913 6.30215C9.12931 6.57648 9.23082 6.89902 9.23082 7.22896C9.23082 7.6714 9.04847 8.09572 8.72389 8.40857C8.39931 8.72142 7.95908 8.89717 7.50005 8.89717Z"/>
</symbol>
<symbol id="plus1" viewBox="0 0 24 24">
  <circle cx="12" cy="12" r="12"/>
  <path d="M13 11H17V13H13V17H11V13H7V11H11V7H13V11Z" fill="white"/>
</symbol>
<symbol id="plus2" viewBox="0 0 14 14">
  <path d="M7.5 6H13.5V7.5H7.5V13.5H6V7.5H0V6H6V0H7.5V6Z"/>
</symbol>
<symbol id="search1" viewBox="0 0 26 26">
  <path fill-rule="evenodd" clip-rule="evenodd" d="M10 0C15.5228 0 20 4.47715 20 10C20 12.4013 19.1529 14.6043 17.7422 16.3281L25.1641 23.75L23.75 25.1641L16.3281 17.7422C14.6043 19.1529 12.4013 20 10 20C4.47718 20 4.53567e-05 15.5228 0 10C0 4.47715 4.47715 0 10 0ZM10 2C5.58172 2 2 5.58172 2 10C2.00005 14.4182 5.58175 18 10 18C14.4183 18 18 14.4182 18 10C18 5.58172 14.4183 2 10 2Z"/>
</symbol>
<symbol id="search2" viewBox="0 0 16 16">
  <path fill-rule="evenodd" clip-rule="evenodd" d="M6.1543 0L6.4707 0.0078125C9.72213 0.172719 12.3076 2.86189 12.3076 6.1543L12.2998 6.4707C12.2311 7.82482 11.7234 9.06243 10.918 10.0469L15.4863 14.6152L14.6152 15.4854L10.0479 10.917C8.98703 11.7852 7.63201 12.3075 6.1543 12.3076L5.83691 12.2998C2.6905 12.1402 0.167434 9.61712 0.0078125 6.4707L0 6.1543C0 2.75562 2.75562 0 6.1543 0ZM6.1543 1.28027C3.46255 1.28027 1.28027 3.46255 1.28027 6.1543C1.28056 8.8458 3.46272 11.0273 6.1543 11.0273C8.84566 11.0271 11.0271 8.84565 11.0273 6.1543C11.0273 3.4627 8.84584 1.28052 6.1543 1.28027Z"/>
</symbol>
<symbol id="service" viewBox="0 0 40 40">
<g clip-path="url(#clip0_618_4412)">
<path d="M24.0816 37.8248H24.0808C23.7695 37.9099 23.5861 38.232 23.6712 38.5441C23.7507 38.8318 24.1043 39.0317 24.3905 38.9536C25.1301 38.7232 24.835 37.6449 24.0816 37.8248Z" fill="#EC1314"/>
<path d="M21.1157 38.3719C20.7943 38.4039 20.5587 38.6902 20.5908 39.0116C20.6211 39.334 20.9142 39.5704 21.2304 39.5366C21.5518 39.5046 21.7867 39.2183 21.7554 38.8969C21.7234 38.5755 21.4371 38.3407 21.1157 38.3719Z" fill="#EC1314"/>
<path d="M15.1161 37.9542C14.8017 37.8778 14.485 38.0705 14.4093 38.3849C14.3329 38.6985 14.5255 39.0152 14.8399 39.0916C15.1276 39.1597 15.4756 38.9516 15.5459 38.661C15.6224 38.3466 15.4297 38.0307 15.1161 37.9542Z" fill="#EC1314"/>
<path d="M18.0982 38.4155C17.7752 38.3929 17.4959 38.6363 17.4741 38.9592C17.4515 39.2814 17.6948 39.5607 18.0171 39.5825C18.335 39.6066 18.6202 39.3621 18.6411 39.0396C18.6638 38.7166 18.4204 38.4374 18.0982 38.4155Z" fill="#EC1314"/>
<path d="M26.9133 36.783C26.6207 36.9203 26.4944 37.2682 26.6316 37.5607C26.852 37.8764 27.1113 37.9704 27.4094 37.8423C28.0997 37.4903 27.625 36.4783 26.9133 36.783Z" fill="#EC1314"/>
<path d="M29.5271 35.2769C29.2611 35.461 29.1955 35.8253 29.3804 36.0906C29.6316 36.3672 29.9031 36.4161 30.1948 36.2372C30.46 36.0531 30.5255 35.6888 30.3414 35.4236C30.1566 35.1576 29.7922 35.092 29.5271 35.2769Z" fill="#EC1314"/>
<path d="M36.1639 28.2146C35.8745 28.0718 35.5235 28.1912 35.3808 28.4814C35.238 28.7708 35.3565 29.1219 35.6467 29.2646C35.9445 29.3992 36.2055 29.3105 36.4299 28.9986C36.5728 28.7084 36.4542 28.3581 36.1639 28.2146Z" fill="#EC1314"/>
<path d="M37.735 22.2053C37.4145 22.1671 37.1234 22.3965 37.0852 22.7171C37.0478 23.0318 37.3499 23.3716 37.6671 23.3716C37.9597 23.3716 38.2116 23.1524 38.2475 22.8552C38.2475 22.8544 38.2475 22.8544 38.2475 22.8544C38.285 22.5338 38.0557 22.2428 37.735 22.2053Z" fill="#EC1314"/>
<path d="M37.2064 25.276C36.8967 25.1847 36.5707 25.3618 36.4795 25.6715C36.3873 25.9812 36.5645 26.3065 36.8742 26.3985C37.1595 26.4831 37.5167 26.2913 37.6012 26.003C37.6933 25.6933 37.5162 25.368 37.2064 25.276Z" fill="#EC1314"/>
<path d="M31.8515 33.3527C31.6206 33.5789 31.6167 33.9495 31.843 34.1804C32.1179 34.4118 32.3938 34.4144 32.6706 34.1882C32.9015 33.962 32.9047 33.5914 32.6784 33.3613C32.4522 33.1304 32.0824 33.1265 31.8515 33.3527Z" fill="#EC1314"/>
<path d="M34.6397 30.9355C34.3776 30.746 34.0117 30.8045 33.8222 31.0658C33.6326 31.3279 33.6911 31.6938 33.9533 31.8833C34.2435 32.0663 34.5159 32.0226 34.7701 31.7523C34.9596 31.491 34.9011 31.1251 34.6397 30.9355Z" fill="#EC1314"/>
<path d="M9.31964 5.69013C9.42886 5.69013 9.53963 5.65971 9.63792 5.59574C9.9087 5.41944 9.98585 5.05747 9.81033 4.786C9.6348 4.5153 9.27214 4.43807 9.00136 4.6136C8.72997 4.7899 8.65266 5.15186 8.82896 5.42334C8.94059 5.59574 9.1286 5.69013 9.31964 5.69013Z" fill="#EC1314"/>
<path d="M12.0679 4.22124C12.4486 4.22124 12.7599 3.76581 12.6054 3.40447C12.4774 3.10803 12.1334 2.97074 11.837 3.09867C11.8361 3.09867 11.8361 3.09867 11.8361 3.09867C11.5397 3.22583 11.4024 3.56985 11.5303 3.86707C11.6256 4.08862 11.8409 4.22124 12.0679 4.22124Z" fill="#EC1314"/>
<path d="M18.1043 2.7722C18.1176 2.7722 18.1308 2.77142 18.1433 2.77064C18.4663 2.74958 18.7105 2.4703 18.6885 2.14812C18.6675 1.82594 18.3882 1.58177 18.0661 1.60283C17.7431 1.62467 17.4997 1.90317 17.5208 2.22535C17.5419 2.53505 17.7993 2.7722 18.1043 2.7722Z" fill="#EC1314"/>
<path d="M15.0245 3.23926C15.3655 3.23926 15.6744 2.85428 15.5932 2.51689C15.5183 2.20329 15.2024 2.00904 14.888 2.08471C14.5736 2.16038 14.3802 2.47632 14.4558 2.78992C14.5198 3.05828 14.7601 3.23926 15.0245 3.23926Z" fill="#EC1314"/>
<path d="M6.85891 7.59957C7.0001 7.59957 7.14208 7.54886 7.25442 7.44511C7.49235 7.22668 7.50795 6.85613 7.28866 6.6182C7.07024 6.38105 6.70047 6.36545 6.46254 6.58388C6.22461 6.80309 6.20901 7.17285 6.42821 7.41079C6.54375 7.53638 6.70055 7.59957 6.85891 7.59957Z" fill="#EC1314"/>
<path d="M1.10744 23.4556C0.789937 23.5149 0.581651 23.8215 0.640939 24.1382C0.695389 24.4275 1.03465 24.6612 1.32431 24.6055C1.64181 24.5454 1.85087 24.2396 1.79081 23.9221C1.73066 23.6046 1.42486 23.3955 1.10744 23.4556Z" fill="#EC1314"/>
<path d="M1.01766 18.3979C1.30817 18.4435 1.63956 18.1953 1.68301 17.9065C1.73138 17.5874 1.51147 17.2894 1.19155 17.241C0.872486 17.1927 0.574488 17.4127 0.5262 17.7325C0.477834 18.0516 0.697744 18.3503 1.01766 18.3979Z" fill="#EC1314"/>
<path d="M0.898836 21.514H0.909757C1.23272 21.5085 1.49007 21.2417 1.48469 20.9188H1.48391C1.47845 20.5958 1.21244 20.3384 0.888616 20.3438C0.565655 20.3501 0.309002 20.6161 0.314541 20.9391C0.319924 21.2589 0.580555 21.514 0.898836 21.514Z" fill="#EC1314"/>
<path d="M1.6453 15.3457C1.92879 15.4389 2.29005 15.2613 2.38476 14.9744C2.48617 14.6678 2.32001 14.3362 2.01343 14.2348C1.70685 14.1334 1.37531 14.2996 1.2739 14.6062C1.17248 14.9135 1.33865 15.2443 1.6453 15.3457Z" fill="#EC1314"/>
<path d="M2.78023 12.4417C3.07745 12.5847 3.34143 12.5044 3.57203 12.2007C3.72415 11.9152 3.6165 11.561 3.33098 11.4089C3.04624 11.2567 2.6913 11.3644 2.53918 11.6499C2.38792 11.9347 2.49557 12.2896 2.78023 12.4417Z" fill="#EC1314"/>
<path d="M4.39099 9.77194C4.679 9.96478 4.9525 9.92991 5.21165 9.6674C5.4098 9.41231 5.36299 9.04488 5.10712 8.84674C4.85203 8.64937 4.48468 8.69618 4.28645 8.95127C4.08909 9.20715 4.13504 9.57457 4.39099 9.77194Z" fill="#EC1314"/>
<path d="M39.6459 9.76092L37.4733 8.82753C37.3173 8.32257 37.1213 7.82963 36.8881 7.35603L37.7585 5.17487C37.845 4.95824 37.7945 4.71087 37.6301 4.54548L35.4813 2.38469C35.3155 2.2179 35.0659 2.16673 34.8475 2.25464L32.8162 3.07437C32.2815 2.77989 31.7202 2.53743 31.1417 2.35114L30.2942 0.356272C30.2024 0.140262 29.9904 0 29.7557 0H26.717C26.4823 0 26.2702 0.140262 26.1785 0.356272L25.3309 2.35122C24.7524 2.53751 24.1912 2.77989 23.6564 3.07445L21.6251 2.25464C21.4068 2.16657 21.1572 2.21782 20.9913 2.38469L18.8426 4.54548C18.6782 4.71094 18.6276 4.95824 18.7141 5.17487L19.5846 7.35603C19.3953 7.74046 19.2301 8.13862 19.0915 8.54404C16.531 8.54825 14.076 9.32796 11.9907 10.7995C11.3726 11.2357 12.0473 12.1918 12.6653 11.7556C19.94 6.52452 30.3839 11.9393 30.307 20.9068C30.3071 24.0275 28.9885 27.0302 26.6894 29.1451C26.5689 29.2559 26.5004 29.4121 26.5004 29.5758V31.7988L24.5043 30.9555C24.3486 30.8897 24.1719 30.8945 24.0198 30.9688C21.2021 32.3663 17.7476 32.4715 14.8512 31.2606L15.4418 30.6539C15.6044 30.4867 15.6522 30.2388 15.5635 30.0231L14.7948 28.1551C14.7055 27.9381 14.4951 27.7954 14.2604 27.7928L12.9051 27.7774C12.6791 27.5026 12.4313 27.2469 12.1647 27.0134L12.1504 25.6666C12.1479 25.4327 12.0063 25.2228 11.7904 25.1328L9.93308 24.3587C9.71574 24.268 9.46557 24.3166 9.29777 24.4815L8.71199 25.0573C7.15827 21.2637 7.9333 16.6562 10.6505 13.5786C11.1461 13.0071 10.262 12.2402 9.76653 12.812C6.78452 16.1903 5.91783 21.2368 7.59411 25.4125C7.49067 25.4174 7.38723 25.4246 7.28402 25.4344L6.31498 24.4807C6.14734 24.3157 5.89708 24.2672 5.67974 24.3575L3.82201 25.1308C3.60608 25.2207 3.46442 25.4305 3.46176 25.6643L3.44515 27.1316C3.22352 27.3315 3.01485 27.5463 2.8213 27.7737L1.35019 27.7896C1.11546 27.7922 0.905066 27.9347 0.815588 28.1517L0.0455521 30.0194C-0.0433793 30.2351 0.00436283 30.4829 0.166936 30.6503L1.19729 31.7101C1.17389 32.0095 1.17014 32.3107 1.18614 32.6105L0.165843 33.6589C0.00311467 33.8261 -0.0447054 34.0739 0.0439919 34.2896L0.812702 36.1576C0.902023 36.3747 1.11242 36.5173 1.34715 36.5201L2.70242 36.5354C2.92841 36.8102 3.17617 37.0659 3.44281 37.2994L3.45716 38.6462C3.45966 38.8801 3.60125 39.09 3.8171 39.18L5.67444 39.9541C5.89162 40.0447 6.14187 39.9963 6.30975 39.8313L7.26561 38.8917C7.61728 38.916 7.97136 38.9116 8.32358 38.8784L9.29254 39.8319C9.49193 40.0019 9.70365 40.0429 9.92778 39.9551L11.7855 39.1818C12.0014 39.092 12.1431 38.8822 12.1457 38.6483L12.1624 37.181C12.3839 36.9812 12.5926 36.7665 12.7861 36.539L14.2574 36.5229C14.4921 36.5204 14.7025 36.3779 14.7919 36.1609L15.562 34.2932C15.651 34.0775 15.6032 33.8296 15.4407 33.6623L14.4102 32.6025C14.4168 32.5186 14.4218 32.4347 14.4252 32.3507C17.5354 33.645 21.2367 33.5678 24.2907 32.1355L26.8577 33.22C27.3214 33.3312 27.5924 33.1515 27.6704 32.681V29.8287C30.0253 27.569 31.399 24.4473 31.4739 21.1877C31.9348 21.0202 32.3847 20.8159 32.8161 20.5783L34.8474 21.3981C35.0718 21.4835 35.283 21.4402 35.4813 21.268L37.63 19.1072C37.7944 18.9418 37.845 18.6945 37.7585 18.4778L36.888 16.2967C37.1212 15.8231 37.3172 15.33 37.4732 14.8252L39.6458 13.8918C39.8607 13.7994 39.9999 13.588 39.9999 13.3542V10.2984C40 10.0647 39.8607 9.85328 39.6459 9.76092ZM13.8577 35.3571L12.4997 35.3719C12.3218 35.3739 12.1544 35.4566 12.045 35.5969C11.7974 35.9139 11.5153 36.2047 11.2066 36.4612C11.0746 36.5708 10.9973 36.7329 10.9953 36.9046L10.9801 38.2497L9.83666 38.7256L8.94462 37.8477C8.81512 37.7198 8.63141 37.6599 8.45284 37.6853C8.00842 37.7477 7.5583 37.7537 7.11505 37.7032C6.93921 37.6833 6.76447 37.7435 6.63864 37.8672L5.76633 38.7247L4.62333 38.2483L4.61023 37.018C4.60836 36.8426 4.52793 36.6774 4.3911 36.5678C4.04185 36.2878 3.7277 35.9631 3.45732 35.6026C3.34826 35.4571 3.17773 35.3707 2.99589 35.3685L1.74757 35.3544L1.27241 34.1996L2.20814 33.2382C2.32781 33.1152 2.38749 32.946 2.37142 32.7753C2.33374 32.3741 2.33897 31.9675 2.38718 31.5671C2.40832 31.3917 2.34903 31.2161 2.22585 31.0893L1.2739 30.1101L1.74999 28.9555L3.10791 28.9408C3.28585 28.9388 3.45334 28.856 3.56279 28.7158C3.81016 28.3989 4.09224 28.108 4.40108 27.8514C4.53308 27.7417 4.61038 27.5796 4.61226 27.408L4.62755 26.063L5.77101 25.587L6.66314 26.465C6.79287 26.5926 6.97377 26.6527 7.15491 26.6274C7.53045 26.5746 7.91005 26.5622 8.28637 26.5901C8.51314 26.6852 8.79538 26.6162 8.96911 26.4455L9.84134 25.588L10.9844 26.0645L10.9975 27.2948C10.9994 27.4701 11.0798 27.6353 11.2167 27.7449C11.5658 28.0248 11.8799 28.3495 12.1504 28.7102C12.2595 28.8556 12.4301 28.9422 12.6119 28.9442L13.8602 28.9584L14.3353 30.113L13.5192 30.9516C13.3379 31.07 13.2161 31.3217 13.2364 31.5374C13.2741 31.9383 13.2688 32.3449 13.2207 32.7457C13.1995 32.9211 13.2589 33.0967 13.382 33.2234L14.3339 34.2025L13.8577 35.3571ZM24.4238 9.74368C25.1783 8.3466 26.6384 7.46181 28.2363 7.46181C32.7372 7.51704 34.2059 13.4678 30.3082 15.6613C29.091 13.0745 27.0028 10.9752 24.4238 9.74368ZM38.8298 12.9688L36.7584 13.8588C36.5956 13.9288 36.4732 14.0689 36.4257 14.2396C36.2568 14.8472 36.0223 15.4376 35.7288 15.9947C35.6489 16.1463 35.6395 16.3252 35.703 16.4843L36.5293 18.5547L34.9253 20.1677L32.9913 19.3872C32.8225 19.319 32.6313 19.3334 32.4745 19.4261C32.142 19.6228 31.7956 19.7964 31.4401 19.945C31.3541 18.8324 31.1201 17.7605 30.7578 16.7491C32.589 15.8072 33.7434 13.9322 33.7434 11.8264C33.6781 6.03821 26.0322 4.18063 23.3409 9.28865C22.3818 8.93862 21.3675 8.70412 20.3151 8.602C20.4395 8.27912 20.583 7.9631 20.7437 7.65808C20.8236 7.50651 20.8331 7.32755 20.7695 7.16841L19.9432 5.09795L21.5472 3.48494L23.4812 4.26543C23.65 4.33361 23.8412 4.31926 23.998 4.22642C24.6044 3.86781 25.2529 3.58729 25.9253 3.39281C26.0943 3.3439 26.2324 3.2215 26.3012 3.05955L27.104 1.17015H29.3686L30.1714 3.05971C30.2402 3.22166 30.3782 3.34405 30.5472 3.39297C31.2196 3.58744 31.8681 3.86797 32.4745 4.22658C32.6313 4.31933 32.8225 4.33369 32.9913 4.26558L34.9253 3.4851L36.5293 5.09803L35.703 7.16849C35.6395 7.32763 35.6489 7.50651 35.7288 7.65808C36.0223 8.21507 36.2568 8.80553 36.4257 9.41315C36.4732 9.58391 36.5956 9.72402 36.7584 9.79399L38.8298 10.6839V12.9688Z" fill="#EC1314"/>
<path d="M13.9321 24.633H14.3561C15.0169 24.633 15.5544 24.0955 15.5544 23.4347V19.886C15.5544 19.2252 15.0168 18.6876 14.3561 18.6876C14.1045 18.6823 13.8355 18.6787 13.5867 18.7076C14.9413 12.7543 23.2687 12.7251 24.6384 18.7076C24.3895 18.6787 24.1206 18.6823 23.8691 18.6876C23.2083 18.6876 22.6708 19.2252 22.6708 19.886V23.4347C22.6708 24.0955 23.2084 24.633 23.8691 24.633C24.1281 24.6302 24.5758 24.6291 24.7556 24.6302C24.7556 25.6975 23.9745 26.5857 22.9541 26.7533C22.707 26.1135 22.0854 25.6584 21.3595 25.6584H20.2361C17.9697 25.7522 17.9699 28.9818 20.2361 29.0755H21.3595C22.1038 29.0755 22.7384 28.5971 22.9721 27.9317C24.6311 27.748 25.9258 26.3375 25.9258 24.6302V24.1435C27.719 22.9858 27.698 20.2846 25.8899 19.1538C25.7196 17.4961 24.9485 15.9636 23.7138 14.8325C19.6405 11.0538 12.8684 13.6477 12.3354 19.1538C9.86089 20.7453 10.9509 24.6063 13.9321 24.633ZM21.3595 27.9053H20.2361C19.5234 27.8799 19.5238 26.8537 20.2361 26.8285H21.3595C22.0722 26.8539 22.0716 27.8803 21.3595 27.9053ZM24.2931 23.4629C24.2948 23.4626 23.8409 23.4897 23.8409 23.4347V19.886C23.8409 19.831 24.2948 19.8579 24.2931 19.8578C26.6851 19.9571 26.6832 23.3645 24.2931 23.4629ZM13.9321 19.8578C13.9303 19.858 14.3842 19.831 14.3842 19.886V23.4347C14.3842 23.4897 13.9303 23.4627 13.9321 23.4629C11.5401 23.3636 11.5419 19.9562 13.9321 19.8578Z" fill="#EC1314"/>
<path d="M9.27685 28.5915C8.33074 28.1973 7.28845 28.196 6.34141 28.5879C5.38992 28.9817 4.64898 29.7247 4.25511 30.6799C3.02029 33.668 5.82615 36.7947 8.91886 35.8505C9.22793 35.7562 9.40197 35.4292 9.30758 35.1201C9.21327 34.811 8.88609 34.6372 8.57725 34.7313C7.98882 34.911 7.35125 34.8792 6.78209 34.642C5.41988 34.0742 4.77161 32.497 5.33687 31.1259C5.61131 30.4604 6.12696 29.9431 6.78887 29.6691C8.86963 28.7927 11.0273 30.8243 10.3525 32.9624C10.2559 33.2707 10.4274 33.599 10.7358 33.6957C11.0438 33.7924 11.3723 33.6208 11.469 33.3124C11.7563 32.396 11.6928 31.4096 11.2902 30.535C10.8848 29.654 10.1697 28.9637 9.27685 28.5915Z" fill="#EC1314"/>
</g>

</symbol>
<symbol id="status-cancel" viewBox="0 0 30 30">
  <path d="M21.3154 10.8154L17.1152 15L21.3154 19.1846L19.1846 21.3154L15 17.1152L10.8154 21.3154L8.68457 19.1846L12.8848 15L8.68457 10.8154L10.8154 8.68555L15 12.8848L19.1846 8.68555L21.3154 10.8154Z"/>
  <path fill-rule="evenodd" clip-rule="evenodd" d="M15 0C23.2843 1.90713e-05 30 6.7158 30 15C30 23.2842 23.2842 30 15 30C6.7158 30 1.90702e-05 23.2842 0 15C0 6.71579 6.71579 0 15 0ZM15 2.71484C8.2152 2.71484 2.71484 8.2152 2.71484 15C2.71486 21.7848 8.21521 27.2852 15 27.2852C21.7848 27.2851 27.2851 21.7848 27.2852 15C27.2769 8.21859 21.7813 2.72309 15 2.71484Z"/>
</symbol>
<symbol id="status-pending" viewBox="0 0 30 30">
  <path d="M16.5 7.5V13.5H22.5V16.5H13.5V7.5H16.5Z"/>
  <path fill-rule="evenodd" clip-rule="evenodd" d="M15 0C23.2843 1.90713e-05 30 6.7158 30 15C30 23.2842 23.2842 30 15 30C6.7158 30 1.90702e-05 23.2842 0 15C0 6.71579 6.71579 0 15 0ZM15 2.71484C8.2152 2.71484 2.71484 8.2152 2.71484 15C2.71486 21.7848 8.21521 27.2852 15 27.2852C21.7848 27.2851 27.2851 21.7848 27.2852 15C27.2769 8.21859 21.7813 2.72309 15 2.71484Z"/>
</symbol>
<symbol id="status-success" viewBox="0 0 30 30">
  <path d="M22.9346 11.8652L13.5146 21L7.65039 15.1494L9.64453 13.1553L13.3652 16.8896L20.625 9.49512L22.9346 11.8652Z"/>
  <path fill-rule="evenodd" clip-rule="evenodd" d="M15 0C23.2843 1.80404e-05 30 6.7158 30 15C30 23.2842 23.2842 30 15 30C6.7158 30 1.80394e-05 23.2842 0 15C0 6.71579 6.71579 0 15 0ZM15 2.71484C8.2152 2.71484 2.71484 8.2152 2.71484 15C2.71486 21.7848 8.21521 27.2852 15 27.2852C21.7848 27.2851 27.2851 21.7848 27.2852 15C27.2769 8.21859 21.7813 2.72309 15 2.71484Z"/>
</symbol>
<symbol id="telegram1" viewBox="0 0 18 15">
  <path d="M17.762 1.36604L15.074 14.095C14.871 14.993 14.342 15.217 13.59 14.793L9.49496 11.763L7.51896 13.671C7.29896 13.891 7.11696 14.075 6.69596 14.075L6.98996 9.88604L14.58 3.00004C14.91 2.70404 14.51 2.54004 14.068 2.83604L4.68296 8.76904L0.642965 7.49904C-0.235035 7.22404 -0.251035 6.61704 0.825965 6.19404L16.628 0.0800384C17.36 -0.195962 18 0.244039 17.762 1.36604Z"/>
</symbol>
<symbol id="user1" viewBox="0 0 19 25">
  <path d="M13 15C14.5913 15 16.117 15.6326 17.2422 16.7578C18.3674 17.883 19 19.4087 19 21V24.5H17V21C17 19.9391 16.5783 18.922 15.8281 18.1719C15.1248 17.4686 14.1869 17.0539 13.1982 17.0049L13 17H6C4.93913 17 3.92202 17.4217 3.17188 18.1719C2.42173 18.922 2 19.9391 2 21V24.5H0V21C0 19.4087 0.632594 17.883 1.75781 16.7578C2.88303 15.6326 4.4087 15 6 15H13Z"/>
  <path fill-rule="evenodd" clip-rule="evenodd" d="M9.5 0C11.0913 0 12.617 0.632594 13.7422 1.75781C14.8674 2.88303 15.5 4.4087 15.5 6L15.4922 6.29785C15.4185 7.7807 14.797 9.18738 13.7422 10.2422C12.6874 11.297 11.2807 11.9185 9.79785 11.9922L9.5 12C7.9087 12 6.38303 11.3674 5.25781 10.2422C4.203 9.18738 3.58146 7.7807 3.50781 6.29785L3.5 6C3.5 4.4087 4.13259 2.88303 5.25781 1.75781C6.38303 0.632594 7.9087 0 9.5 0ZM9.5 2C8.43913 2 7.42202 2.42173 6.67188 3.17188C5.92173 3.92202 5.5 4.93913 5.5 6L5.50488 6.19824C5.5539 7.18693 5.96859 8.12484 6.67188 8.82812C7.42202 9.57827 8.43913 10 9.5 10L9.69824 9.99512C10.6869 9.9461 11.6248 9.53141 12.3281 8.82812C13.0783 8.07798 13.5 7.06087 13.5 6L13.4951 5.80176C13.4461 4.81307 13.0314 3.87516 12.3281 3.17188C11.578 2.42173 10.5609 2 9.5 2Z"/>
</symbol>
<symbol id="user2" viewBox="0 0 11 14">
  <path d="M7.03809 8C7.91432 8.0001 8.75439 8.34821 9.37402 8.96777C9.99376 9.58751 10.3428 10.4283 10.3428 11.3047V13.2754H9.06641V11.3047C9.06641 10.7668 8.85289 10.2505 8.47266 9.87012C8.09229 9.48975 7.576 9.27549 7.03809 9.27539H3.30469C2.76664 9.27539 2.25058 9.48966 1.87012 9.87012C1.48966 10.2506 1.27539 10.7666 1.27539 11.3047V13.2754H0V11.3047C0 10.4283 0.34804 9.58751 0.967773 8.96777C1.58751 8.34804 2.42825 8 3.30469 8H7.03809Z"/>
  <path fill-rule="evenodd" clip-rule="evenodd" d="M5.1709 0C6.04733 0 6.88808 0.348039 7.50781 0.967773C8.12749 1.5875 8.47559 2.4283 8.47559 3.30469C8.4755 4.18088 8.12731 5.02099 7.50781 5.64062C6.88808 6.26036 6.04733 6.60938 5.1709 6.60938C4.29451 6.60934 3.45369 6.26033 2.83398 5.64062C2.21457 5.02101 1.8663 4.18082 1.86621 3.30469C1.86621 2.42836 2.21439 1.58749 2.83398 0.967773C3.45369 0.34807 4.29451 3.43494e-05 5.1709 0ZM5.1709 1.27539C4.63289 1.27543 4.11676 1.48969 3.73633 1.87012C3.35601 2.25056 3.14258 2.76674 3.14258 3.30469C3.14266 3.84262 3.35594 4.35887 3.73633 4.73926C4.11675 5.11963 4.63294 5.33297 5.1709 5.33301C5.70884 5.33301 6.22503 5.11958 6.60547 4.73926C6.98585 4.35887 7.20011 3.84262 7.2002 3.30469C7.2002 2.76668 6.98587 2.25057 6.60547 1.87012C6.22501 1.48966 5.70895 1.27539 5.1709 1.27539Z"/>
</symbol>
<symbol id="vk1" viewBox="0 0 22 12">
  <path fill-rule="evenodd" clip-rule="evenodd" d="M10.7975 11.925H12.1308C12.1308 11.925 12.5308 11.861 12.7313 11.6712C12.9308 11.4813 12.9308 11.1005 12.9308 11.1005C12.9308 11.1005 12.9308 9.4515 13.7308 9.19764C14.5319 8.94378 15.5986 10.8467 16.6663 11.5442C17.4663 12.1149 18.0669 11.988 18.0669 11.988L21.0002 11.924C21.0002 11.924 22.5351 11.861 21.8013 10.6557C21.7351 10.5928 21.4013 9.83122 19.6007 8.24513C17.734 6.59717 18.0007 6.91396 20.2013 4.05963C21.5346 2.34767 22.0679 1.33223 21.9346 0.825579C21.8013 0.38079 20.8007 0.50772 20.8007 0.50772H17.4663C17.4663 0.50772 17.1996 0.443722 17.0663 0.571719C16.8658 0.698649 16.7996 0.888511 16.7996 0.888511C16.7996 0.888511 16.2663 2.22074 15.5986 3.36312C14.1319 5.70972 13.5314 5.83559 13.3308 5.70972C12.7975 5.39187 12.9308 4.31349 12.9308 3.61591C12.9308 1.3333 13.3308 0.38079 12.198 0.127997C11.8641 0.0639983 11.5975 0 10.6641 0C9.46306 0 8.46252 -9.5365e-08 7.92918 0.25386C7.52918 0.444789 7.26251 0.825579 7.46198 0.825579C7.66251 0.825579 8.19585 0.951443 8.46252 1.2693C8.72919 1.83995 8.72919 2.7914 8.72919 2.7914C8.72919 2.7914 8.92972 5.5188 8.26305 5.83559C7.79585 6.08945 7.19638 5.58173 5.86197 3.42498C5.1953 2.34767 4.66089 1.07837 4.66089 1.07837C4.66089 1.07837 4.59476 0.825579 4.39422 0.698649C4.19476 0.570652 3.86089 0.50772 3.86089 0.50772H0.725931C0.725931 0.50772 0.259794 0.50772 0.0592597 0.698649C-0.0740746 0.888511 0.0592597 1.2053 0.0592597 1.2053C0.0592597 1.2053 2.52648 6.6601 5.32863 9.45043C7.92918 12.1149 10.7975 11.925 10.7975 11.925Z"/>
</symbol>
<symbol id="whatsapp1" viewBox="0 0 16 16">
  <path d="M7.7292 0H7.72534C3.46472 0 0 3.46568 0 7.72727C0 9.41761 0.544773 10.9843 1.47108 12.2564L0.508068 15.1271L3.47824 14.1776C4.70011 14.987 6.15767 15.4545 7.7292 15.4545C11.9898 15.4545 15.4545 11.9879 15.4545 7.72727C15.4545 3.46665 11.9898 0 7.7292 0ZM12.2255 10.9119C12.0391 11.4383 11.2992 11.8749 10.709 12.0024C10.3053 12.0884 9.7779 12.1569 8.00256 11.4209C5.7317 10.4801 4.26932 8.17256 4.15534 8.02284C4.04619 7.87312 3.23773 6.80097 3.23773 5.6921C3.23773 4.58324 3.80085 4.0433 4.02784 3.81148C4.21426 3.62119 4.52239 3.53426 4.81795 3.53426C4.91358 3.53426 4.99955 3.53909 5.07682 3.54295C5.30381 3.55261 5.41778 3.56614 5.5675 3.92449C5.75392 4.37364 6.2079 5.4825 6.26199 5.59648C6.31705 5.71045 6.3721 5.865 6.29483 6.01472C6.22239 6.16926 6.15864 6.23784 6.04466 6.3692C5.93068 6.50057 5.8225 6.60102 5.70852 6.74205C5.6042 6.86472 5.48636 6.99608 5.61773 7.22307C5.74909 7.44523 6.20307 8.18608 6.87148 8.78108C7.73403 9.54898 8.43335 9.79432 8.68352 9.89864C8.86994 9.97591 9.0921 9.95756 9.2283 9.81267C9.40119 9.62625 9.61466 9.31716 9.83199 9.0129C9.98653 8.7946 10.1816 8.76756 10.3864 8.84483C10.5951 8.91727 11.6991 9.46301 11.9261 9.57602C12.1531 9.69 12.3028 9.74409 12.3578 9.83972C12.4119 9.93534 12.4119 10.3845 12.2255 10.9119Z"/>
</symbol>
</svg>