<svg width="24" height="25" viewBox="0 0 24 25" fill="none" xmlns="http://www.w3.org/2000/svg">
  <path fill-rule="evenodd" clip-rule="evenodd" d="M11.5866 0C13.7269 4.92893e-05 14.9816 0.428333 15.945 1.3916C16.8357 2.28238 17.3366 3.49031 17.3366 4.75V6.25H19.6735C20.178 6.24994 20.6771 6.35878 21.1354 6.56934C21.5938 6.77997 22.0012 7.08795 22.3298 7.4707C22.6583 7.85357 22.9011 8.30302 23.0397 8.78809C23.1784 9.27332 23.2102 9.78345 23.1335 10.2822L21.5642 20.4717C21.3917 21.5933 20.8239 22.6166 19.9626 23.3555C19.155 24.048 18.1395 24.4481 17.0808 24.4951L16.8688 24.5H6.30342C5.16905 24.4998 4.07156 24.0932 3.21064 23.3545C2.34987 22.6157 1.7815 21.5929 1.60908 20.4717L0.0407199 10.2822C-0.0359678 9.7835 -0.00412688 9.27326 0.13447 8.78809C0.273094 8.30311 0.515019 7.85352 0.843454 7.4707C1.17194 7.0879 1.57949 6.78004 2.03779 6.56934C2.49608 6.35873 2.99535 6.25006 3.4997 6.25H5.83662V4.75C5.83662 3.49046 6.33677 2.28235 7.22724 1.3916C8.19065 0.428193 9.44617 5.56339e-05 11.5866 0ZM3.4997 8.25C3.28378 8.25006 3.06995 8.29662 2.87373 8.38672C2.67735 8.47702 2.50179 8.6094 2.36103 8.77344C2.22042 8.93746 2.11668 9.13015 2.05732 9.33789C1.99798 9.54565 1.98451 9.76397 2.01728 9.97754L3.58564 20.168L3.63349 20.4082C3.77008 20.9624 4.07717 21.4626 4.51338 21.8369C5.0117 22.2645 5.64683 22.4998 6.30342 22.5H16.8688L17.114 22.4893C17.6825 22.4386 18.2235 22.2111 18.6599 21.8369C19.1585 21.4092 19.4877 20.8173 19.5876 20.168L21.1569 9.97754C21.1897 9.76393 21.1753 9.54568 21.1159 9.33789C21.0565 9.13005 20.953 8.93749 20.8122 8.77344C20.6714 8.6094 20.4969 8.47699 20.3005 8.38672C20.1533 8.31913 19.996 8.27616 19.8356 8.25879L19.6735 8.25H17.3366V12H15.3366V8.25H7.83662V12H5.83662V8.25H3.4997ZM11.5866 2C9.72788 2.00005 9.08432 2.36265 8.64131 2.80566C8.1259 3.32134 7.83662 4.0209 7.83662 4.75V6.25H15.3366V4.75C15.3366 4.02074 15.0466 3.32137 14.531 2.80566C14.0879 2.36274 13.4451 2.00005 11.5866 2Z" />
</svg>
