<svg width="13" height="14" viewBox="0 0 13 14" fill="none" xmlns="http://www.w3.org/2000/svg">
  <path fill-rule="evenodd" clip-rule="evenodd" d="M6.28461 0C7.4407 4.37873e-05 8.14206 0.231601 8.68305 0.772461C9.1777 1.26716 9.45551 1.93812 9.45551 2.6377V3.33301H10.5981C10.882 3.33305 11.1633 3.3942 11.4213 3.5127C11.6794 3.63133 11.9092 3.80496 12.0942 4.02051C12.2792 4.23615 12.4155 4.4895 12.4936 4.7627C12.5716 5.03583 12.5894 5.32275 12.5463 5.60352L11.7094 11.0391C11.6135 11.6617 11.2979 12.2294 10.8198 12.6396C10.3415 13.0497 9.73195 13.2754 9.10199 13.2754H3.46723C2.8373 13.2753 2.22755 13.0498 1.74945 12.6396C1.27148 12.2294 0.955639 11.6616 0.859805 11.0391L0.0228909 5.60449C-0.0201939 5.32379 -0.00237247 5.03577 0.0756253 4.7627C0.153666 4.48955 0.2901 4.23613 0.475039 4.02051C0.659993 3.80496 0.889857 3.63137 1.14789 3.5127C1.40585 3.39415 1.68725 3.33312 1.97113 3.33301H3.11273V2.6377C3.11273 1.9383 3.39079 1.26712 3.8852 0.772461C4.4262 0.23146 5.12843 5.95957e-05 6.28461 0ZM1.97113 4.60938C1.87116 4.60949 1.77194 4.6311 1.68109 4.67285C1.5902 4.71471 1.50896 4.77562 1.44379 4.85156C1.37863 4.92757 1.33069 5.01702 1.30316 5.11328C1.27566 5.20963 1.26939 5.31112 1.28461 5.41016L2.12055 10.8447L2.14496 10.9639C2.21263 11.2382 2.36461 11.4865 2.58051 11.6719C2.82724 11.8834 3.14224 11.9999 3.46723 12H9.10199C9.42711 12 9.74183 11.8834 9.98871 11.6719C10.2357 11.46 10.3992 11.1663 10.4487 10.8447L11.2846 5.41016L11.2924 5.33496C11.2957 5.26033 11.2867 5.18543 11.2661 5.11328C11.2385 5.01697 11.1907 4.92758 11.1254 4.85156C11.0602 4.77562 10.9791 4.71467 10.8881 4.67285C10.7972 4.63115 10.6981 4.60942 10.5981 4.60938H9.45551V6.60938H8.18012V4.60938H4.3891V6.60938H3.11273V4.60938H1.97113ZM6.28461 1.27539C5.3082 1.27545 4.99658 1.46576 4.78754 1.6748C4.53241 1.93019 4.3891 2.27668 4.3891 2.6377V3.33301H8.18012V2.6377C8.18012 2.2765 8.03608 1.93023 7.7807 1.6748C7.57165 1.46584 7.26077 1.27543 6.28461 1.27539Z" />
</svg>
