<svg width="24" height="24" viewBox="0 0 24 24" fill="none" xmlns="http://www.w3.org/2000/svg">
  <path d="M2.35059 6.71582C2.35419 6.72322 2.36015 6.73623 2.36914 6.75391C2.38726 6.78952 2.41657 6.84534 2.45703 6.91797C2.5383 7.06384 2.66587 7.27852 2.8418 7.53809C3.19421 8.058 3.73966 8.75569 4.50684 9.45312C6.03346 10.841 8.4432 12.2383 12 12.2383C15.9719 12.2383 18.3692 10.8276 19.7734 9.46875C20.4828 8.78229 20.9502 8.09729 21.2383 7.58887C21.3821 7.33503 21.4809 7.12641 21.542 6.98535C21.5724 6.91507 21.5937 6.86165 21.6064 6.82812C21.6128 6.81148 21.6169 6.7994 21.6191 6.79297C21.6203 6.78977 21.6211 6.78711 21.6211 6.78711V6.78906L23.043 7.26562L23.042 7.26953C23.042 7.26953 23.0409 7.27391 23.04 7.27637C23.0382 7.28157 23.035 7.28797 23.0322 7.2959C23.0265 7.31197 23.0189 7.33365 23.0088 7.36035C22.9883 7.41416 22.959 7.48952 22.9189 7.58203C22.8388 7.76687 22.7166 8.02347 22.5439 8.32812C22.1987 8.93731 21.6478 9.74322 20.8174 10.5469C20.3529 10.9964 19.8027 11.4394 19.1592 11.8486L20.8477 14.1807L19.5459 15.0801L17.7529 12.6035C16.4108 13.2052 14.7631 13.636 12.75 13.7217V16.9727H11.25V13.7188C9.30714 13.6196 7.67821 13.1396 6.33203 12.4844L4.4541 15.0801L3.15234 14.1807L4.95117 11.6943C4.40591 11.3322 3.9222 10.9481 3.49805 10.5625C2.62632 9.76999 2.0047 8.97754 1.59961 8.37988C1.39682 8.08069 1.2478 7.82853 1.14746 7.64844C1.09726 7.55834 1.05849 7.48619 1.03223 7.43457C1.01915 7.40887 1.0093 7.38813 1.00195 7.37305C0.998308 7.36556 0.995417 7.35922 0.993164 7.35449C0.992091 7.35224 0.990234 7.34863 0.990234 7.34863L0.989258 7.3457C0.989258 7.3457 0.989757 7.34384 1.66797 7.02734C2.26825 6.74721 2.33862 6.71502 2.34668 6.71094C2.34668 6.71094 2.34942 6.71342 2.35059 6.71582Z" />
</svg>
