<svg width="40" height="40" viewBox="0 0 40 40" fill="none" xmlns="http://www.w3.org/2000/svg">
<path d="M35.9252 2.62119C31.4119 2.62119 26.9996 1.77124 22.8103 0.0958723L22.5711 0L22.3326 0.0957351C18.1427 1.77124 13.7303 2.62106 9.217 2.62106H7.78385V16.1225H4.56932C3.50594 16.1225 2.64062 16.9878 2.64062 18.0511V28.9809C2.64062 30.0442 3.50594 30.9097 4.56932 30.9097H10.3555C10.3568 30.9097 10.3575 30.9097 10.3587 30.9097C11.8773 33.3225 13.9815 35.3156 16.4903 36.6831L22.5709 40L28.6516 36.6831C34.0225 33.754 37.3581 28.1342 37.3581 22.0169V2.62119H35.9252ZM3.92633 28.9809V18.0511C3.92633 17.6969 4.21436 17.4083 4.56918 17.4083H10.3554C10.7102 17.4083 10.9982 17.697 10.9982 18.0511V28.9809C10.9982 29.3351 10.7102 29.6238 10.3554 29.6238H4.56932C4.21436 29.6238 3.92633 29.3351 3.92633 28.9809ZM12.2844 19.3314C14.4311 19.2151 16.1419 17.4315 16.1419 15.2566V11.9436C16.1419 11.0577 16.8626 10.3362 17.7492 10.3362C18.6358 10.3362 19.3566 11.0575 19.3566 11.9436V15.9901C19.3566 17.1267 20.2811 18.0513 21.4177 18.0513H26.131C27.3583 18.0513 28.3574 19.0498 28.3574 20.2777V27.3974C28.3574 28.6254 27.3584 29.6238 26.131 29.6238H16.6581C16.1476 29.6238 15.6745 29.3698 15.391 28.9456C14.8689 28.1626 13.9951 27.6952 13.0539 27.6952H12.2844V19.3314ZM36.0723 22.0167C36.0723 27.6629 32.9935 32.8506 28.0365 35.5541L22.5711 38.5353L17.1057 35.5541C14.8689 34.3338 12.9788 32.5767 11.5888 30.4512C11.9791 30.1232 12.2357 29.6476 12.2716 29.1075C13.569 31.3454 15.4373 33.1791 17.7217 34.425L22.5712 37.0706L27.4208 34.425C31.9644 31.9471 34.7868 27.1928 34.7868 22.0173V12.2649H33.5009V22.0174C33.5009 26.7216 30.9357 31.0441 26.8055 33.2962L22.5712 35.6056L18.3369 33.2962C16.5252 32.308 15.0033 30.9116 13.8596 29.222C14.039 29.3344 14.1997 29.4772 14.3213 29.6592C14.8433 30.4423 15.7171 30.9097 16.6583 30.9097H26.1311C28.0682 30.9097 29.6434 29.3339 29.6434 27.3974V20.2777C29.6434 18.3412 28.0683 16.7654 26.1311 16.7654H21.4179C20.9904 16.7654 20.6425 16.4176 20.6425 15.9901V11.9436C20.6425 10.3484 19.3445 9.0504 17.7494 9.0504C16.1542 9.0504 14.8562 10.3484 14.8562 11.9436V15.2559C14.8562 16.7218 13.7189 17.9137 12.2819 18.0288C12.2754 17.4702 12.0279 16.9724 11.6415 16.624V6.40479C15.3756 6.17533 19.0486 5.41219 22.5711 4.13266C26.0937 5.41205 29.766 6.17519 33.5007 6.40479V7.12171H34.7865V5.18135L34.1731 5.1531C30.2809 4.97507 26.4523 4.19836 22.7941 2.84503L22.5709 2.76205L22.3478 2.84435C18.6889 4.19767 14.8603 4.97439 10.9688 5.15242L10.3554 5.18135V16.1226H9.06955V3.90704H9.21672C13.8091 3.90704 18.2999 3.05831 22.5708 1.38418C26.8417 3.05831 31.3325 3.90704 35.9249 3.90704H36.0721V22.0167H36.0723Z" fill="#EC1314"/>
<path d="M34.7858 9.69336H33.5V10.9792H34.7858V9.69336Z" fill="#EC1314"/>
<path d="M9.71326 27.0527H5.21289V28.3386H9.71326V27.0527Z" fill="#EC1314"/>
</svg>
