<svg width="18" height="18" viewBox="0 0 18 18" fill="none" xmlns="http://www.w3.org/2000/svg">
  <path d="M17.9417 8.01249C16.405 4.41678 13.5363 1.55801 9.93887 0.0373292C9.79399 -0.0168478 9.63366 -0.0118883 9.49239 0.0511311C9.35111 0.11415 9.24018 0.230198 9.18345 0.374312C9.15254 0.446427 9.13627 0.523988 9.13559 0.602468C9.13492 0.680947 9.14984 0.758769 9.1795 0.831408C9.20917 0.904047 9.25298 0.970043 9.30837 1.02555C9.36376 1.08105 9.42964 1.12494 9.50215 1.15468C12.8182 2.55806 15.4624 5.19408 16.8793 8.50909C16.9427 8.64967 17.0584 8.75989 17.2017 8.81622C17.3451 8.87255 17.5047 8.87053 17.6466 8.8106C17.7192 8.77875 17.7847 8.73255 17.8391 8.67478C17.8936 8.617 17.9358 8.54884 17.9634 8.47434C17.9909 8.39985 18.0032 8.32055 17.9995 8.2412C17.9957 8.16185 17.9761 8.08407 17.9417 8.01249Z" />
  <path d="M9.19498 4.34709C11.205 5.19521 12.8086 6.7909 13.6685 8.79876C13.7142 8.89781 13.7863 8.98226 13.8769 9.04278C13.9676 9.1033 14.0731 9.13752 14.182 9.14165C14.2617 9.14105 14.3402 9.12289 14.4121 9.08844C14.5479 9.02183 14.6529 8.9056 14.7056 8.76371C14.7583 8.62182 14.7547 8.46508 14.6954 8.3258C13.7207 6.04621 11.9012 4.23422 9.61991 3.27112C9.47943 3.22117 9.32527 3.22632 9.18843 3.28554C9.05158 3.34476 8.94217 3.45366 8.88219 3.59037C8.8267 3.73256 8.82828 3.89073 8.88659 4.03178C8.94489 4.17283 9.0554 4.28582 9.19498 4.34709Z" />
  <path d="M14.8785 11.3705C14.7505 11.2207 14.5917 11.1005 14.4129 11.018C14.2341 10.9355 14.0396 10.8928 13.8427 10.8928C13.6459 10.8928 13.4514 10.9355 13.2726 11.018C13.0938 11.1005 12.935 11.2207 12.807 11.3705C12.323 11.8494 11.8391 12.3341 11.361 12.8248C11.3398 12.8564 11.3124 12.8834 11.2805 12.9041C11.2486 12.9249 11.2129 12.939 11.1754 12.9456C11.138 12.9522 11.0996 12.9512 11.0625 12.9427C11.0254 12.9341 10.9905 12.9182 10.9597 12.8958C10.6469 12.7243 10.3105 12.5884 10.0095 12.3992C8.62833 11.5025 7.40405 10.3839 6.38586 9.08852C5.85426 8.46071 5.41503 7.75994 5.08156 7.00752C5.0453 6.94513 5.03308 6.87161 5.04722 6.80082C5.06135 6.73003 5.10086 6.66686 5.15829 6.62324C5.64223 6.15029 6.11437 5.67143 6.59241 5.18665C6.74843 5.05684 6.87398 4.89419 6.96016 4.71027C7.04633 4.52635 7.091 4.32568 7.091 4.12251C7.091 3.91934 7.04633 3.71867 6.96016 3.53476C6.87398 3.35084 6.74843 3.18818 6.59241 3.05836C6.2147 2.67409 5.83699 2.30164 5.45338 1.91737L4.27302 0.73499C4.1403 0.592543 3.98067 0.477908 3.80338 0.397736C3.62608 0.317564 3.43466 0.273445 3.24022 0.267944C3.04452 0.274405 2.85203 0.319516 2.67378 0.400677C2.49553 0.481838 2.33503 0.597454 2.2015 0.740898C1.71165 1.21976 1.24542 1.71636 0.743765 2.18931C0.302112 2.60657 0.0379189 3.17824 0.00605444 3.78554C-0.0359876 4.78152 0.141328 5.77456 0.525412 6.69419C1.26152 8.60593 2.32171 10.376 3.65924 11.9262C5.41826 14.0438 7.60979 15.7593 10.0863 16.9573C11.1849 17.5387 12.3892 17.8926 13.6273 17.9978H13.8575C14.2355 18.0138 14.6123 17.9451 14.9604 17.7969C15.3085 17.6486 15.6193 17.4243 15.87 17.1405C16.2831 16.6735 16.7494 16.2478 17.192 15.8044C17.345 15.674 17.468 15.5118 17.5523 15.3291C17.6366 15.1464 17.6803 14.9475 17.6803 14.7462C17.6803 14.5449 17.6366 14.346 17.5523 14.1633C17.468 13.9806 17.345 13.8184 17.192 13.688C16.4287 12.9155 15.6575 12.143 14.8785 11.3705ZM16.3657 14.9827L15.9231 15.4202C15.6162 15.7158 15.3034 16.0114 14.9965 16.3602C14.8583 16.5211 14.6843 16.6472 14.4885 16.7283C14.2927 16.8095 14.0806 16.8433 13.8693 16.8272H13.704C12.6184 16.7333 11.5627 16.4217 10.5997 15.9109C8.27644 14.779 6.21878 13.1672 4.5622 11.1813C3.30294 9.7376 2.30438 8.08515 1.61132 6.2981C1.2877 5.54071 1.13457 4.72122 1.1628 3.89785C1.17631 3.58151 1.31169 3.28273 1.54051 3.06428C1.8474 2.76869 2.13068 2.47309 2.44348 2.17158L3.03365 1.58039C3.05298 1.54041 3.08317 1.50669 3.12075 1.4831C3.15833 1.45951 3.20178 1.447 3.24612 1.447C3.29047 1.447 3.33392 1.45951 3.3715 1.4831C3.40907 1.50669 3.43925 1.54041 3.45858 1.58039C3.71826 1.8346 3.97204 2.09472 4.22582 2.35485L5.76617 3.89785C5.98453 4.11659 5.97273 4.15799 5.76617 4.35899L5.56551 4.55999C5.16419 4.97383 4.75697 5.37584 4.33205 5.78967C4.11014 6.00082 3.95958 6.2761 3.90139 6.5771C3.8432 6.8781 3.88028 7.18978 4.00746 7.46865C4.37994 8.3256 4.87715 9.12251 5.4829 9.83341C6.58587 11.2233 7.90984 12.4217 9.40166 13.3806C9.63182 13.5224 9.8679 13.6407 10.0745 13.7412L10.3931 13.9008C10.6185 14.0341 10.875 14.1055 11.1368 14.1077C11.3406 14.1067 11.5419 14.063 11.7279 13.9796C11.9139 13.8961 12.0804 13.7746 12.2168 13.6229C12.683 13.1441 13.1552 12.677 13.6509 12.1863C13.7014 12.1205 13.7718 12.0728 13.8516 12.0504C13.9341 12.0703 14.0071 12.1184 14.0582 12.1863C14.8451 12.9746 15.632 13.7491 16.4189 14.5097C16.5546 14.7166 16.5723 14.7698 16.3657 14.9827Z" />
</svg>
