<svg width="15" height="18" viewBox="0 0 15 18" fill="none" xmlns="http://www.w3.org/2000/svg">
  <path d="M7.5 0C5.51088 0 3.60322 0.76161 2.1967 2.1173C0.790175 3.47298 0 5.31169 0 7.22892C0 10.6654 3.86539 14.7915 7.11346 17.6497L7.51154 18L7.89808 17.6386C11.4923 14.3021 15 10.76 15 7.22892C15 5.31169 14.2098 3.47298 12.8033 2.1173C11.3968 0.76161 9.48912 0 7.5 0ZM7.5 16.4708C3.40962 12.7896 1.15385 9.51993 1.15385 7.22892C1.15385 5.60665 1.82246 4.05082 3.01259 2.9037C4.20273 1.75658 5.8169 1.11214 7.5 1.11214C9.1831 1.11214 10.7973 1.75658 11.9874 2.9037C13.1775 4.05082 13.8462 5.60665 13.8462 7.22892C13.8462 10.2039 10.7654 13.3957 7.5 16.4708Z" />
  <path d="M7.50005 4.44861C6.92953 4.44861 6.37181 4.61167 5.89744 4.91718C5.42307 5.22269 5.05334 5.65692 4.83501 6.16496C4.61668 6.67301 4.55956 7.23204 4.67086 7.77138C4.78217 8.31072 5.0569 8.80613 5.46032 9.19497C5.86374 9.58381 6.37773 9.8486 6.93729 9.95588C7.49685 10.0632 8.07685 10.0081 8.60394 9.79767C9.13104 9.58724 9.58155 9.23087 9.89852 8.77364C10.2155 8.31641 10.3847 7.77886 10.3847 7.22896C10.3847 6.49157 10.0808 5.78437 9.53978 5.26295C8.99881 4.74154 8.2651 4.44861 7.50005 4.44861ZM7.50005 8.89717C7.15774 8.89717 6.82311 8.79933 6.53849 8.61602C6.25386 8.43272 6.03203 8.17218 5.90103 7.86735C5.77003 7.56253 5.73576 7.22711 5.80254 6.9035C5.86932 6.5799 6.03416 6.28266 6.27621 6.04936C6.51826 5.81605 6.82666 5.65717 7.16239 5.59281C7.49813 5.52844 7.84613 5.56147 8.16239 5.68774C8.47864 5.814 8.74895 6.02781 8.93913 6.30215C9.12931 6.57648 9.23082 6.89902 9.23082 7.22896C9.23082 7.6714 9.04847 8.09572 8.72389 8.40857C8.39931 8.72142 7.95908 8.89717 7.50005 8.89717Z" />
</svg>
