<svg width="16" height="16" viewBox="0 0 16 16" fill="none" xmlns="http://www.w3.org/2000/svg">
  <path fill-rule="evenodd" clip-rule="evenodd" d="M6.1543 0L6.4707 0.0078125C9.72213 0.172719 12.3076 2.86189 12.3076 6.1543L12.2998 6.4707C12.2311 7.82482 11.7234 9.06243 10.918 10.0469L15.4863 14.6152L14.6152 15.4854L10.0479 10.917C8.98703 11.7852 7.63201 12.3075 6.1543 12.3076L5.83691 12.2998C2.6905 12.1402 0.167434 9.61712 0.0078125 6.4707L0 6.1543C0 2.75562 2.75562 0 6.1543 0ZM6.1543 1.28027C3.46255 1.28027 1.28027 3.46255 1.28027 6.1543C1.28056 8.8458 3.46272 11.0273 6.1543 11.0273C8.84566 11.0271 11.0271 8.84565 11.0273 6.1543C11.0273 3.4627 8.84584 1.28052 6.1543 1.28027Z" />
</svg>
