<svg width="40" height="40" viewBox="0 0 40 40" fill="none" xmlns="http://www.w3.org/2000/svg">
<g clip-path="url(#clip0_618_4412)">
<path d="M24.0816 37.8248H24.0808C23.7695 37.9099 23.5861 38.232 23.6712 38.5441C23.7507 38.8318 24.1043 39.0317 24.3905 38.9536C25.1301 38.7232 24.835 37.6449 24.0816 37.8248Z" fill="#EC1314"/>
<path d="M21.1157 38.3719C20.7943 38.4039 20.5587 38.6902 20.5908 39.0116C20.6211 39.334 20.9142 39.5704 21.2304 39.5366C21.5518 39.5046 21.7867 39.2183 21.7554 38.8969C21.7234 38.5755 21.4371 38.3407 21.1157 38.3719Z" fill="#EC1314"/>
<path d="M15.1161 37.9542C14.8017 37.8778 14.485 38.0705 14.4093 38.3849C14.3329 38.6985 14.5255 39.0152 14.8399 39.0916C15.1276 39.1597 15.4756 38.9516 15.5459 38.661C15.6224 38.3466 15.4297 38.0307 15.1161 37.9542Z" fill="#EC1314"/>
<path d="M18.0982 38.4155C17.7752 38.3929 17.4959 38.6363 17.4741 38.9592C17.4515 39.2814 17.6948 39.5607 18.0171 39.5825C18.335 39.6066 18.6202 39.3621 18.6411 39.0396C18.6638 38.7166 18.4204 38.4374 18.0982 38.4155Z" fill="#EC1314"/>
<path d="M26.9133 36.783C26.6207 36.9203 26.4944 37.2682 26.6316 37.5607C26.852 37.8764 27.1113 37.9704 27.4094 37.8423C28.0997 37.4903 27.625 36.4783 26.9133 36.783Z" fill="#EC1314"/>
<path d="M29.5271 35.2769C29.2611 35.461 29.1955 35.8253 29.3804 36.0906C29.6316 36.3672 29.9031 36.4161 30.1948 36.2372C30.46 36.0531 30.5255 35.6888 30.3414 35.4236C30.1566 35.1576 29.7922 35.092 29.5271 35.2769Z" fill="#EC1314"/>
<path d="M36.1639 28.2146C35.8745 28.0718 35.5235 28.1912 35.3808 28.4814C35.238 28.7708 35.3565 29.1219 35.6467 29.2646C35.9445 29.3992 36.2055 29.3105 36.4299 28.9986C36.5728 28.7084 36.4542 28.3581 36.1639 28.2146Z" fill="#EC1314"/>
<path d="M37.735 22.2053C37.4145 22.1671 37.1234 22.3965 37.0852 22.7171C37.0478 23.0318 37.3499 23.3716 37.6671 23.3716C37.9597 23.3716 38.2116 23.1524 38.2475 22.8552C38.2475 22.8544 38.2475 22.8544 38.2475 22.8544C38.285 22.5338 38.0557 22.2428 37.735 22.2053Z" fill="#EC1314"/>
<path d="M37.2064 25.276C36.8967 25.1847 36.5707 25.3618 36.4795 25.6715C36.3873 25.9812 36.5645 26.3065 36.8742 26.3985C37.1595 26.4831 37.5167 26.2913 37.6012 26.003C37.6933 25.6933 37.5162 25.368 37.2064 25.276Z" fill="#EC1314"/>
<path d="M31.8515 33.3527C31.6206 33.5789 31.6167 33.9495 31.843 34.1804C32.1179 34.4118 32.3938 34.4144 32.6706 34.1882C32.9015 33.962 32.9047 33.5914 32.6784 33.3613C32.4522 33.1304 32.0824 33.1265 31.8515 33.3527Z" fill="#EC1314"/>
<path d="M34.6397 30.9355C34.3776 30.746 34.0117 30.8045 33.8222 31.0658C33.6326 31.3279 33.6911 31.6938 33.9533 31.8833C34.2435 32.0663 34.5159 32.0226 34.7701 31.7523C34.9596 31.491 34.9011 31.1251 34.6397 30.9355Z" fill="#EC1314"/>
<path d="M9.31964 5.69013C9.42886 5.69013 9.53963 5.65971 9.63792 5.59574C9.9087 5.41944 9.98585 5.05747 9.81033 4.786C9.6348 4.5153 9.27214 4.43807 9.00136 4.6136C8.72997 4.7899 8.65266 5.15186 8.82896 5.42334C8.94059 5.59574 9.1286 5.69013 9.31964 5.69013Z" fill="#EC1314"/>
<path d="M12.0679 4.22124C12.4486 4.22124 12.7599 3.76581 12.6054 3.40447C12.4774 3.10803 12.1334 2.97074 11.837 3.09867C11.8361 3.09867 11.8361 3.09867 11.8361 3.09867C11.5397 3.22583 11.4024 3.56985 11.5303 3.86707C11.6256 4.08862 11.8409 4.22124 12.0679 4.22124Z" fill="#EC1314"/>
<path d="M18.1043 2.7722C18.1176 2.7722 18.1308 2.77142 18.1433 2.77064C18.4663 2.74958 18.7105 2.4703 18.6885 2.14812C18.6675 1.82594 18.3882 1.58177 18.0661 1.60283C17.7431 1.62467 17.4997 1.90317 17.5208 2.22535C17.5419 2.53505 17.7993 2.7722 18.1043 2.7722Z" fill="#EC1314"/>
<path d="M15.0245 3.23926C15.3655 3.23926 15.6744 2.85428 15.5932 2.51689C15.5183 2.20329 15.2024 2.00904 14.888 2.08471C14.5736 2.16038 14.3802 2.47632 14.4558 2.78992C14.5198 3.05828 14.7601 3.23926 15.0245 3.23926Z" fill="#EC1314"/>
<path d="M6.85891 7.59957C7.0001 7.59957 7.14208 7.54886 7.25442 7.44511C7.49235 7.22668 7.50795 6.85613 7.28866 6.6182C7.07024 6.38105 6.70047 6.36545 6.46254 6.58388C6.22461 6.80309 6.20901 7.17285 6.42821 7.41079C6.54375 7.53638 6.70055 7.59957 6.85891 7.59957Z" fill="#EC1314"/>
<path d="M1.10744 23.4556C0.789937 23.5149 0.581651 23.8215 0.640939 24.1382C0.695389 24.4275 1.03465 24.6612 1.32431 24.6055C1.64181 24.5454 1.85087 24.2396 1.79081 23.9221C1.73066 23.6046 1.42486 23.3955 1.10744 23.4556Z" fill="#EC1314"/>
<path d="M1.01766 18.3979C1.30817 18.4435 1.63956 18.1953 1.68301 17.9065C1.73138 17.5874 1.51147 17.2894 1.19155 17.241C0.872486 17.1927 0.574488 17.4127 0.5262 17.7325C0.477834 18.0516 0.697744 18.3503 1.01766 18.3979Z" fill="#EC1314"/>
<path d="M0.898836 21.514H0.909757C1.23272 21.5085 1.49007 21.2417 1.48469 20.9188H1.48391C1.47845 20.5958 1.21244 20.3384 0.888616 20.3438C0.565655 20.3501 0.309002 20.6161 0.314541 20.9391C0.319924 21.2589 0.580555 21.514 0.898836 21.514Z" fill="#EC1314"/>
<path d="M1.6453 15.3457C1.92879 15.4389 2.29005 15.2613 2.38476 14.9744C2.48617 14.6678 2.32001 14.3362 2.01343 14.2348C1.70685 14.1334 1.37531 14.2996 1.2739 14.6062C1.17248 14.9135 1.33865 15.2443 1.6453 15.3457Z" fill="#EC1314"/>
<path d="M2.78023 12.4417C3.07745 12.5847 3.34143 12.5044 3.57203 12.2007C3.72415 11.9152 3.6165 11.561 3.33098 11.4089C3.04624 11.2567 2.6913 11.3644 2.53918 11.6499C2.38792 11.9347 2.49557 12.2896 2.78023 12.4417Z" fill="#EC1314"/>
<path d="M4.39099 9.77194C4.679 9.96478 4.9525 9.92991 5.21165 9.6674C5.4098 9.41231 5.36299 9.04488 5.10712 8.84674C4.85203 8.64937 4.48468 8.69618 4.28645 8.95127C4.08909 9.20715 4.13504 9.57457 4.39099 9.77194Z" fill="#EC1314"/>
<path d="M39.6459 9.76092L37.4733 8.82753C37.3173 8.32257 37.1213 7.82963 36.8881 7.35603L37.7585 5.17487C37.845 4.95824 37.7945 4.71087 37.6301 4.54548L35.4813 2.38469C35.3155 2.2179 35.0659 2.16673 34.8475 2.25464L32.8162 3.07437C32.2815 2.77989 31.7202 2.53743 31.1417 2.35114L30.2942 0.356272C30.2024 0.140262 29.9904 0 29.7557 0H26.717C26.4823 0 26.2702 0.140262 26.1785 0.356272L25.3309 2.35122C24.7524 2.53751 24.1912 2.77989 23.6564 3.07445L21.6251 2.25464C21.4068 2.16657 21.1572 2.21782 20.9913 2.38469L18.8426 4.54548C18.6782 4.71094 18.6276 4.95824 18.7141 5.17487L19.5846 7.35603C19.3953 7.74046 19.2301 8.13862 19.0915 8.54404C16.531 8.54825 14.076 9.32796 11.9907 10.7995C11.3726 11.2357 12.0473 12.1918 12.6653 11.7556C19.94 6.52452 30.3839 11.9393 30.307 20.9068C30.3071 24.0275 28.9885 27.0302 26.6894 29.1451C26.5689 29.2559 26.5004 29.4121 26.5004 29.5758V31.7988L24.5043 30.9555C24.3486 30.8897 24.1719 30.8945 24.0198 30.9688C21.2021 32.3663 17.7476 32.4715 14.8512 31.2606L15.4418 30.6539C15.6044 30.4867 15.6522 30.2388 15.5635 30.0231L14.7948 28.1551C14.7055 27.9381 14.4951 27.7954 14.2604 27.7928L12.9051 27.7774C12.6791 27.5026 12.4313 27.2469 12.1647 27.0134L12.1504 25.6666C12.1479 25.4327 12.0063 25.2228 11.7904 25.1328L9.93308 24.3587C9.71574 24.268 9.46557 24.3166 9.29777 24.4815L8.71199 25.0573C7.15827 21.2637 7.9333 16.6562 10.6505 13.5786C11.1461 13.0071 10.262 12.2402 9.76653 12.812C6.78452 16.1903 5.91783 21.2368 7.59411 25.4125C7.49067 25.4174 7.38723 25.4246 7.28402 25.4344L6.31498 24.4807C6.14734 24.3157 5.89708 24.2672 5.67974 24.3575L3.82201 25.1308C3.60608 25.2207 3.46442 25.4305 3.46176 25.6643L3.44515 27.1316C3.22352 27.3315 3.01485 27.5463 2.8213 27.7737L1.35019 27.7896C1.11546 27.7922 0.905066 27.9347 0.815588 28.1517L0.0455521 30.0194C-0.0433793 30.2351 0.00436283 30.4829 0.166936 30.6503L1.19729 31.7101C1.17389 32.0095 1.17014 32.3107 1.18614 32.6105L0.165843 33.6589C0.00311467 33.8261 -0.0447054 34.0739 0.0439919 34.2896L0.812702 36.1576C0.902023 36.3747 1.11242 36.5173 1.34715 36.5201L2.70242 36.5354C2.92841 36.8102 3.17617 37.0659 3.44281 37.2994L3.45716 38.6462C3.45966 38.8801 3.60125 39.09 3.8171 39.18L5.67444 39.9541C5.89162 40.0447 6.14187 39.9963 6.30975 39.8313L7.26561 38.8917C7.61728 38.916 7.97136 38.9116 8.32358 38.8784L9.29254 39.8319C9.49193 40.0019 9.70365 40.0429 9.92778 39.9551L11.7855 39.1818C12.0014 39.092 12.1431 38.8822 12.1457 38.6483L12.1624 37.181C12.3839 36.9812 12.5926 36.7665 12.7861 36.539L14.2574 36.5229C14.4921 36.5204 14.7025 36.3779 14.7919 36.1609L15.562 34.2932C15.651 34.0775 15.6032 33.8296 15.4407 33.6623L14.4102 32.6025C14.4168 32.5186 14.4218 32.4347 14.4252 32.3507C17.5354 33.645 21.2367 33.5678 24.2907 32.1355L26.8577 33.22C27.3214 33.3312 27.5924 33.1515 27.6704 32.681V29.8287C30.0253 27.569 31.399 24.4473 31.4739 21.1877C31.9348 21.0202 32.3847 20.8159 32.8161 20.5783L34.8474 21.3981C35.0718 21.4835 35.283 21.4402 35.4813 21.268L37.63 19.1072C37.7944 18.9418 37.845 18.6945 37.7585 18.4778L36.888 16.2967C37.1212 15.8231 37.3172 15.33 37.4732 14.8252L39.6458 13.8918C39.8607 13.7994 39.9999 13.588 39.9999 13.3542V10.2984C40 10.0647 39.8607 9.85328 39.6459 9.76092ZM13.8577 35.3571L12.4997 35.3719C12.3218 35.3739 12.1544 35.4566 12.045 35.5969C11.7974 35.9139 11.5153 36.2047 11.2066 36.4612C11.0746 36.5708 10.9973 36.7329 10.9953 36.9046L10.9801 38.2497L9.83666 38.7256L8.94462 37.8477C8.81512 37.7198 8.63141 37.6599 8.45284 37.6853C8.00842 37.7477 7.5583 37.7537 7.11505 37.7032C6.93921 37.6833 6.76447 37.7435 6.63864 37.8672L5.76633 38.7247L4.62333 38.2483L4.61023 37.018C4.60836 36.8426 4.52793 36.6774 4.3911 36.5678C4.04185 36.2878 3.7277 35.9631 3.45732 35.6026C3.34826 35.4571 3.17773 35.3707 2.99589 35.3685L1.74757 35.3544L1.27241 34.1996L2.20814 33.2382C2.32781 33.1152 2.38749 32.946 2.37142 32.7753C2.33374 32.3741 2.33897 31.9675 2.38718 31.5671C2.40832 31.3917 2.34903 31.2161 2.22585 31.0893L1.2739 30.1101L1.74999 28.9555L3.10791 28.9408C3.28585 28.9388 3.45334 28.856 3.56279 28.7158C3.81016 28.3989 4.09224 28.108 4.40108 27.8514C4.53308 27.7417 4.61038 27.5796 4.61226 27.408L4.62755 26.063L5.77101 25.587L6.66314 26.465C6.79287 26.5926 6.97377 26.6527 7.15491 26.6274C7.53045 26.5746 7.91005 26.5622 8.28637 26.5901C8.51314 26.6852 8.79538 26.6162 8.96911 26.4455L9.84134 25.588L10.9844 26.0645L10.9975 27.2948C10.9994 27.4701 11.0798 27.6353 11.2167 27.7449C11.5658 28.0248 11.8799 28.3495 12.1504 28.7102C12.2595 28.8556 12.4301 28.9422 12.6119 28.9442L13.8602 28.9584L14.3353 30.113L13.5192 30.9516C13.3379 31.07 13.2161 31.3217 13.2364 31.5374C13.2741 31.9383 13.2688 32.3449 13.2207 32.7457C13.1995 32.9211 13.2589 33.0967 13.382 33.2234L14.3339 34.2025L13.8577 35.3571ZM24.4238 9.74368C25.1783 8.3466 26.6384 7.46181 28.2363 7.46181C32.7372 7.51704 34.2059 13.4678 30.3082 15.6613C29.091 13.0745 27.0028 10.9752 24.4238 9.74368ZM38.8298 12.9688L36.7584 13.8588C36.5956 13.9288 36.4732 14.0689 36.4257 14.2396C36.2568 14.8472 36.0223 15.4376 35.7288 15.9947C35.6489 16.1463 35.6395 16.3252 35.703 16.4843L36.5293 18.5547L34.9253 20.1677L32.9913 19.3872C32.8225 19.319 32.6313 19.3334 32.4745 19.4261C32.142 19.6228 31.7956 19.7964 31.4401 19.945C31.3541 18.8324 31.1201 17.7605 30.7578 16.7491C32.589 15.8072 33.7434 13.9322 33.7434 11.8264C33.6781 6.03821 26.0322 4.18063 23.3409 9.28865C22.3818 8.93862 21.3675 8.70412 20.3151 8.602C20.4395 8.27912 20.583 7.9631 20.7437 7.65808C20.8236 7.50651 20.8331 7.32755 20.7695 7.16841L19.9432 5.09795L21.5472 3.48494L23.4812 4.26543C23.65 4.33361 23.8412 4.31926 23.998 4.22642C24.6044 3.86781 25.2529 3.58729 25.9253 3.39281C26.0943 3.3439 26.2324 3.2215 26.3012 3.05955L27.104 1.17015H29.3686L30.1714 3.05971C30.2402 3.22166 30.3782 3.34405 30.5472 3.39297C31.2196 3.58744 31.8681 3.86797 32.4745 4.22658C32.6313 4.31933 32.8225 4.33369 32.9913 4.26558L34.9253 3.4851L36.5293 5.09803L35.703 7.16849C35.6395 7.32763 35.6489 7.50651 35.7288 7.65808C36.0223 8.21507 36.2568 8.80553 36.4257 9.41315C36.4732 9.58391 36.5956 9.72402 36.7584 9.79399L38.8298 10.6839V12.9688Z" fill="#EC1314"/>
<path d="M13.9321 24.633H14.3561C15.0169 24.633 15.5544 24.0955 15.5544 23.4347V19.886C15.5544 19.2252 15.0168 18.6876 14.3561 18.6876C14.1045 18.6823 13.8355 18.6787 13.5867 18.7076C14.9413 12.7543 23.2687 12.7251 24.6384 18.7076C24.3895 18.6787 24.1206 18.6823 23.8691 18.6876C23.2083 18.6876 22.6708 19.2252 22.6708 19.886V23.4347C22.6708 24.0955 23.2084 24.633 23.8691 24.633C24.1281 24.6302 24.5758 24.6291 24.7556 24.6302C24.7556 25.6975 23.9745 26.5857 22.9541 26.7533C22.707 26.1135 22.0854 25.6584 21.3595 25.6584H20.2361C17.9697 25.7522 17.9699 28.9818 20.2361 29.0755H21.3595C22.1038 29.0755 22.7384 28.5971 22.9721 27.9317C24.6311 27.748 25.9258 26.3375 25.9258 24.6302V24.1435C27.719 22.9858 27.698 20.2846 25.8899 19.1538C25.7196 17.4961 24.9485 15.9636 23.7138 14.8325C19.6405 11.0538 12.8684 13.6477 12.3354 19.1538C9.86089 20.7453 10.9509 24.6063 13.9321 24.633ZM21.3595 27.9053H20.2361C19.5234 27.8799 19.5238 26.8537 20.2361 26.8285H21.3595C22.0722 26.8539 22.0716 27.8803 21.3595 27.9053ZM24.2931 23.4629C24.2948 23.4626 23.8409 23.4897 23.8409 23.4347V19.886C23.8409 19.831 24.2948 19.8579 24.2931 19.8578C26.6851 19.9571 26.6832 23.3645 24.2931 23.4629ZM13.9321 19.8578C13.9303 19.858 14.3842 19.831 14.3842 19.886V23.4347C14.3842 23.4897 13.9303 23.4627 13.9321 23.4629C11.5401 23.3636 11.5419 19.9562 13.9321 19.8578Z" fill="#EC1314"/>
<path d="M9.27685 28.5915C8.33074 28.1973 7.28845 28.196 6.34141 28.5879C5.38992 28.9817 4.64898 29.7247 4.25511 30.6799C3.02029 33.668 5.82615 36.7947 8.91886 35.8505C9.22793 35.7562 9.40197 35.4292 9.30758 35.1201C9.21327 34.811 8.88609 34.6372 8.57725 34.7313C7.98882 34.911 7.35125 34.8792 6.78209 34.642C5.41988 34.0742 4.77161 32.497 5.33687 31.1259C5.61131 30.4604 6.12696 29.9431 6.78887 29.6691C8.86963 28.7927 11.0273 30.8243 10.3525 32.9624C10.2559 33.2707 10.4274 33.599 10.7358 33.6957C11.0438 33.7924 11.3723 33.6208 11.469 33.3124C11.7563 32.396 11.6928 31.4096 11.2902 30.535C10.8848 29.654 10.1697 28.9637 9.27685 28.5915Z" fill="#EC1314"/>
</g>
<defs>
<clipPath id="clip0_618_4412">
<rect width="40" height="40" fill="white"/>
</clipPath>
</defs>
</svg>
