<svg width="30" height="30" viewBox="0 0 30 30" fill="none" xmlns="http://www.w3.org/2000/svg">
  <path d="M22.9346 11.8652L13.5146 21L7.65039 15.1494L9.64453 13.1553L13.3652 16.8896L20.625 9.49512L22.9346 11.8652Z" />
  <path fill-rule="evenodd" clip-rule="evenodd" d="M15 0C23.2843 1.80404e-05 30 6.7158 30 15C30 23.2842 23.2842 30 15 30C6.7158 30 1.80394e-05 23.2842 0 15C0 6.71579 6.71579 0 15 0ZM15 2.71484C8.2152 2.71484 2.71484 8.2152 2.71484 15C2.71486 21.7848 8.21521 27.2852 15 27.2852C21.7848 27.2851 27.2851 21.7848 27.2852 15C27.2769 8.21859 21.7813 2.72309 15 2.71484Z" />
</svg>
