<svg width="19" height="25" viewBox="0 0 19 25" fill="none" xmlns="http://www.w3.org/2000/svg">
  <path d="M13 15C14.5913 15 16.117 15.6326 17.2422 16.7578C18.3674 17.883 19 19.4087 19 21V24.5H17V21C17 19.9391 16.5783 18.922 15.8281 18.1719C15.1248 17.4686 14.1869 17.0539 13.1982 17.0049L13 17H6C4.93913 17 3.92202 17.4217 3.17188 18.1719C2.42173 18.922 2 19.9391 2 21V24.5H0V21C0 19.4087 0.632594 17.883 1.75781 16.7578C2.88303 15.6326 4.4087 15 6 15H13Z" />
  <path fill-rule="evenodd" clip-rule="evenodd" d="M9.5 0C11.0913 0 12.617 0.632594 13.7422 1.75781C14.8674 2.88303 15.5 4.4087 15.5 6L15.4922 6.29785C15.4185 7.7807 14.797 9.18738 13.7422 10.2422C12.6874 11.297 11.2807 11.9185 9.79785 11.9922L9.5 12C7.9087 12 6.38303 11.3674 5.25781 10.2422C4.203 9.18738 3.58146 7.7807 3.50781 6.29785L3.5 6C3.5 4.4087 4.13259 2.88303 5.25781 1.75781C6.38303 0.632594 7.9087 0 9.5 0ZM9.5 2C8.43913 2 7.42202 2.42173 6.67188 3.17188C5.92173 3.92202 5.5 4.93913 5.5 6L5.50488 6.19824C5.5539 7.18693 5.96859 8.12484 6.67188 8.82812C7.42202 9.57827 8.43913 10 9.5 10L9.69824 9.99512C10.6869 9.9461 11.6248 9.53141 12.3281 8.82812C13.0783 8.07798 13.5 7.06087 13.5 6L13.4951 5.80176C13.4461 4.81307 13.0314 3.87516 12.3281 3.17188C11.578 2.42173 10.5609 2 9.5 2Z" />
</svg>
