<svg width="16" height="16" viewBox="0 0 16 16" fill="none" xmlns="http://www.w3.org/2000/svg">
  <path d="M7.7292 0H7.72534C3.46472 0 0 3.46568 0 7.72727C0 9.41761 0.544773 10.9843 1.47108 12.2564L0.508068 15.1271L3.47824 14.1776C4.70011 14.987 6.15767 15.4545 7.7292 15.4545C11.9898 15.4545 15.4545 11.9879 15.4545 7.72727C15.4545 3.46665 11.9898 0 7.7292 0ZM12.2255 10.9119C12.0391 11.4383 11.2992 11.8749 10.709 12.0024C10.3053 12.0884 9.7779 12.1569 8.00256 11.4209C5.7317 10.4801 4.26932 8.17256 4.15534 8.02284C4.04619 7.87312 3.23773 6.80097 3.23773 5.6921C3.23773 4.58324 3.80085 4.0433 4.02784 3.81148C4.21426 3.62119 4.52239 3.53426 4.81795 3.53426C4.91358 3.53426 4.99955 3.53909 5.07682 3.54295C5.30381 3.55261 5.41778 3.56614 5.5675 3.92449C5.75392 4.37364 6.2079 5.4825 6.26199 5.59648C6.31705 5.71045 6.3721 5.865 6.29483 6.01472C6.22239 6.16926 6.15864 6.23784 6.04466 6.3692C5.93068 6.50057 5.8225 6.60102 5.70852 6.74205C5.6042 6.86472 5.48636 6.99608 5.61773 7.22307C5.74909 7.44523 6.20307 8.18608 6.87148 8.78108C7.73403 9.54898 8.43335 9.79432 8.68352 9.89864C8.86994 9.97591 9.0921 9.95756 9.2283 9.81267C9.40119 9.62625 9.61466 9.31716 9.83199 9.0129C9.98653 8.7946 10.1816 8.76756 10.3864 8.84483C10.5951 8.91727 11.6991 9.46301 11.9261 9.57602C12.1531 9.69 12.3028 9.74409 12.3578 9.83972C12.4119 9.93534 12.4119 10.3845 12.2255 10.9119Z" />
</svg>
