<svg width="20" height="22" viewBox="0 0 20 22" fill="none" xmlns="http://www.w3.org/2000/svg">
  <path d="M5.76074 7.73535C6.1143 7.71322 6.42224 7.98361 6.44434 8.33887L7.08887 18.7373C7.11177 19.1074 6.81761 19.4219 6.44434 19.4219C6.1068 19.4217 5.82301 19.1589 5.80176 18.8174L5.15723 8.41895C5.13523 8.06373 5.40551 7.75747 5.76074 7.73535Z" />
  <path d="M9.66797 7.73438C10.0239 7.73438 10.3125 8.02295 10.3125 8.37891V18.7773C10.3125 19.1333 10.0239 19.4219 9.66797 19.4219C9.31202 19.4219 9.02344 19.1333 9.02344 18.7773V8.37891C9.02344 8.02295 9.31202 7.73438 9.66797 7.73438Z" />
  <path d="M13.5752 7.73535C13.9304 7.75745 14.2007 8.0637 14.1787 8.41895L13.5342 18.8174C13.5121 19.1724 13.206 19.4429 12.8506 19.4209C12.4954 19.3988 12.2251 19.0925 12.2471 18.7373L12.8916 8.33887C12.9137 7.98363 13.2208 7.71331 13.5752 7.73535Z" />
  <path fill-rule="evenodd" clip-rule="evenodd" d="M12.2461 0C13.3123 0 14.1797 0.86741 14.1797 1.93359V2.57812H17.4023C18.4685 2.57812 19.3359 3.44554 19.3359 4.51172C19.3359 5.36788 18.7763 6.09506 18.0039 6.34863L16.8545 20.2266C16.7716 21.2211 15.9245 22 14.9268 22H4.40918C3.41149 22 2.56425 21.2208 2.48145 20.2266L1.33203 6.34863C0.559626 6.09502 0 5.36788 0 4.51172C0 3.44554 0.86741 2.57812 1.93359 2.57812H5.15625V1.93359C5.15625 0.86741 6.02366 0 7.08984 0H12.2461ZM3.7666 20.1201C3.79414 20.4512 4.07664 20.7109 4.40918 20.7109H14.9268C15.2593 20.7109 15.5416 20.4514 15.5693 20.1201L16.7021 6.44531H2.63379L3.7666 20.1201ZM1.93359 3.86719C1.5782 3.86719 1.28906 4.15632 1.28906 4.51172C1.28906 4.86711 1.5782 5.15625 1.93359 5.15625H17.4023C17.7577 5.15625 18.0469 4.86711 18.0469 4.51172C18.0469 4.15632 17.7577 3.86719 17.4023 3.86719H1.93359ZM7.08984 1.28906C6.73445 1.28906 6.44531 1.5782 6.44531 1.93359V2.57812H12.8906V1.93359C12.8906 1.5782 12.6015 1.28906 12.2461 1.28906H7.08984Z" />
</svg>
