<svg width="18" height="18" viewBox="0 0 18 18" fill="none" xmlns="http://www.w3.org/2000/svg">
  <path d="M15.8486 0.292893C16.2391 -0.0973396 16.8722 -0.0975337 17.2626 0.292893C17.653 0.68332 17.6529 1.31543 17.2626 1.70598L10.1913 8.77727L17.2626 15.8486C17.6529 16.2391 17.653 16.8722 17.2626 17.2626C16.8722 17.653 16.2391 17.6529 15.8486 17.2626L8.77727 10.1913L1.70598 17.2626C1.31545 17.6531 0.683417 17.6531 0.292893 17.2626C-0.0976307 16.8721 -0.097631 16.2391 0.292893 15.8486L7.36321 8.77727L0.292893 1.70598C-0.097631 1.31545 -0.0976311 0.683417 0.292893 0.292893C0.683417 -0.097631 1.31545 -0.0976311 1.70598 0.292893L8.77727 7.36321L15.8486 0.292893Z" />
</svg>
