<svg width="44" height="40" viewBox="0 0 44 40" fill="none" xmlns="http://www.w3.org/2000/svg">
<g clip-path="url(#clip0_618_4084)">
<path d="M41.8 21.4815H40.92L40.0913 17.7185C39.915 16.8933 39.4632 16.1545 38.8117 15.6258C38.1601 15.0971 37.3484 14.8108 36.5127 14.8148H27.8667C27.8667 14.8148 27.8593 5.17041 27.8593 5.1556C27.8496 5.06237 27.8299 4.97048 27.8007 4.88152C27.7933 4.87411 25.586 0.407455 25.586 0.407455C25.5259 0.284645 25.4328 0.18135 25.3174 0.109326C25.2021 0.0373014 25.069 -0.000560762 24.9333 4.77371e-05H2.93333C2.7975 -0.001528 2.66402 0.0359356 2.54846 0.108069C2.4329 0.180203 2.34003 0.284034 2.28067 0.407455C2.28067 0.407455 0.0733333 4.87411 0.0659999 4.88152C0.0367187 4.97048 0.0170488 5.06237 0.00733333 5.1556C0.00733333 5.163 0 34.8148 0 34.8148C0.001741 35.4036 0.234085 35.9678 0.646288 36.3842C1.05849 36.8006 1.61706 37.0353 2.2 37.037H7.09867C7.51427 37.9234 8.17046 38.6724 8.99092 39.1969C9.81137 39.7214 10.7624 39.9998 11.7333 39.9998C12.7043 39.9998 13.6553 39.7214 14.4758 39.1969C15.2962 38.6724 15.9524 37.9234 16.368 37.037H30.5727C30.9866 37.9232 31.6413 38.6722 32.4606 39.1969C33.2799 39.7215 34.23 40 35.2 40C36.17 40 37.1201 39.7215 37.9394 39.1969C38.7587 38.6722 39.4134 37.9232 39.8273 37.037H41.8C42.3829 37.0353 42.9415 36.8006 43.3537 36.3842C43.7659 35.9678 43.9983 35.4036 44 34.8148V23.7037C43.9983 23.1149 43.7659 22.5507 43.3537 22.1343C42.9415 21.7179 42.3829 21.4833 41.8 21.4815ZM30.8 16.2963H36.5127C37.0139 16.2943 37.5007 16.4661 37.8918 16.7829C38.2828 17.0997 38.5544 17.5424 38.6613 18.0371L39.4167 21.4815H31.5333C31.3388 21.4815 31.1523 21.4035 31.0148 21.2645C30.8773 21.1256 30.8 20.9372 30.8 20.7408V16.2963ZM24.4787 1.48153L25.9453 4.44449H17.49L16.9987 1.48153H24.4787ZM12.3567 1.48153H15.51L16.0013 4.44449H11.8653L12.3567 1.48153ZM11.7333 5.92597H16.1333V12.1334L14.2853 11.1926C14.1851 11.1386 14.0735 11.1097 13.9599 11.1084C13.8463 11.1071 13.7341 11.1334 13.6327 11.1852L11.7333 12.1408V5.92597ZM3.388 1.48153H10.868L10.3767 4.44449H1.92133L3.388 1.48153ZM1.46667 18.5185H8.06667C8.26116 18.5185 8.44769 18.4405 8.58521 18.3016C8.72274 18.1627 8.8 17.9743 8.8 17.7778V17.0371L12.7087 20L8.8 22.963V22.2222C8.8 22.0258 8.72274 21.8374 8.58521 21.6985C8.44769 21.5595 8.26116 21.4815 8.06667 21.4815H1.46667V18.5185ZM1.46667 22.963H7.33333V24.4445C7.33177 24.5817 7.36886 24.7165 7.44027 24.8332C7.51169 24.9499 7.61448 25.0438 7.73667 25.1037C7.83784 25.1592 7.95154 25.1873 8.06667 25.1852C8.22509 25.1837 8.37903 25.1319 8.50667 25.037L14.3733 20.5926C14.4644 20.5236 14.5383 20.4341 14.5892 20.3313C14.6402 20.2284 14.6667 20.115 14.6667 20C14.6667 19.885 14.6402 19.7716 14.5892 19.6688C14.5383 19.5659 14.4644 19.4764 14.3733 19.4074L8.50667 14.963C8.39719 14.8806 8.26711 14.8307 8.13107 14.8189C7.99503 14.8071 7.85843 14.8339 7.73667 14.8963C7.61448 14.9563 7.51169 15.0501 7.44027 15.1668C7.36886 15.2835 7.33177 15.4184 7.33333 15.5556V17.0371H1.46667V5.92597H10.2667V13.3334C10.2664 13.4592 10.2979 13.5831 10.3582 13.6933C10.4185 13.8034 10.5057 13.8963 10.6113 13.963C10.7283 14.0355 10.8628 14.074 11 14.0741C11.1118 14.0752 11.2223 14.0498 11.3227 14L13.9553 12.6815L16.5367 13.9926C16.6483 14.0494 16.7725 14.0765 16.8974 14.0712C17.0223 14.0659 17.1437 14.0285 17.2503 13.9624C17.3568 13.8964 17.4449 13.8039 17.5061 13.6938C17.5673 13.5837 17.5996 13.4596 17.6 13.3334V5.92597H26.4V26.6667H1.46667V22.963ZM6.65867 35.5555H2.2C2.00551 35.5555 1.81898 35.4775 1.68146 35.3386C1.54393 35.1997 1.46667 35.0113 1.46667 34.8148V34.0741H6.65867C6.58044 34.5647 6.58044 35.0649 6.65867 35.5555ZM11.7333 38.5185C11.0081 38.5185 10.2992 38.3013 9.69624 37.8943C9.09326 37.4874 8.6233 36.9089 8.34577 36.2322C8.06825 35.5554 7.99564 34.8107 8.13712 34.0923C8.2786 33.3738 8.62782 32.7139 9.14061 32.1959C9.6534 31.6779 10.3067 31.3252 11.018 31.1823C11.7293 31.0394 12.4665 31.1127 13.1365 31.393C13.8065 31.6734 14.3792 32.1481 14.7821 32.7571C15.185 33.3662 15.4 34.0823 15.4 34.8148C15.4 35.3012 15.3052 35.7828 15.1209 36.2322C14.9366 36.6815 14.6665 37.0898 14.3261 37.4337C13.9856 37.7776 13.5814 38.0505 13.1365 38.2366C12.6916 38.4227 12.2148 38.5185 11.7333 38.5185ZM16.368 32.5926C15.9524 31.7062 15.2962 30.9572 14.4758 30.4328C13.6553 29.9083 12.7043 29.6298 11.7333 29.6298C10.7624 29.6298 9.81137 29.9083 8.99092 30.4328C8.17046 30.9572 7.51427 31.7062 7.09867 32.5926H1.46667V28.1482H26.4V32.5926H16.368ZM30.1253 35.5555H16.808C16.8862 35.0649 16.8862 34.5647 16.808 34.0741H30.1253C30.0471 34.5647 30.0471 35.0649 30.1253 35.5555ZM35.2 38.5185C34.4748 38.5185 33.7659 38.3013 33.1629 37.8943C32.5599 37.4874 32.09 36.9089 31.8124 36.2322C31.5349 35.5554 31.4623 34.8107 31.6038 34.0923C31.7453 33.3738 32.0945 32.7139 32.6073 32.1959C33.1201 31.6779 33.7734 31.3252 34.4847 31.1823C35.1959 31.0394 35.9332 31.1127 36.6032 31.393C37.2732 31.6734 37.8458 32.1481 38.2487 32.7571C38.6516 33.3662 38.8667 34.0823 38.8667 34.8148C38.8667 35.7971 38.4804 36.7391 37.7927 37.4337C37.1051 38.1283 36.1725 38.5185 35.2 38.5185ZM42.5333 34.8148C42.5333 35.0113 42.4561 35.1997 42.3185 35.3386C42.181 35.4775 41.9945 35.5555 41.8 35.5555H40.2747C40.3529 35.0649 40.3529 34.5647 40.2747 34.0741H42.5333V34.8148ZM42.5333 29.6296H41.8C41.6055 29.6296 41.419 29.5516 41.2815 29.4127C41.1439 29.2738 41.0667 29.0854 41.0667 28.8889V28.1482C41.0667 27.9517 41.1439 27.7633 41.2815 27.6244C41.419 27.4855 41.6055 27.4074 41.8 27.4074H42.5333V29.6296ZM42.5333 25.9259H41.8C41.2171 25.9277 40.6585 26.1624 40.2463 26.5788C39.8341 26.9951 39.6017 27.5593 39.6 28.1482V28.8889C39.6017 29.4777 39.8341 30.0419 40.2463 30.4583C40.6585 30.8747 41.2171 31.1094 41.8 31.1111H42.5333V32.5926H39.8273C39.4134 31.7064 38.7587 30.9574 37.9394 30.4328C37.1201 29.9082 36.17 29.6296 35.2 29.6296C34.23 29.6296 33.2799 29.9082 32.4606 30.4328C31.6413 30.9574 30.9866 31.7064 30.5727 32.5926H27.8667V16.2963H29.3333V20.7408C29.3351 21.3296 29.5674 21.8938 29.9796 22.3102C30.3918 22.7265 30.9504 22.9612 31.5333 22.963H41.8C41.9945 22.963 42.181 23.041 42.3185 23.1799C42.4561 23.3188 42.5333 23.5073 42.5333 23.7037V25.9259Z" fill="#EC1314"/>
<path d="M30.0673 25.9258H31.534C31.7285 25.9258 31.915 25.8478 32.0525 25.7089C32.1901 25.5699 32.2673 25.3815 32.2673 25.1851C32.2673 24.9886 32.1901 24.8002 32.0525 24.6613C31.915 24.5224 31.7285 24.4443 31.534 24.4443H30.0673C29.8728 24.4443 29.6863 24.5224 29.5488 24.6613C29.4112 24.8002 29.334 24.9886 29.334 25.1851C29.334 25.3815 29.4112 25.5699 29.5488 25.7089C29.6863 25.8478 29.8728 25.9258 30.0673 25.9258Z" fill="#EC1314"/>
<path d="M35.2 32.5928C34.7649 32.5928 34.3395 32.7231 33.9777 32.9673C33.616 33.2115 33.334 33.5585 33.1675 33.9646C33.001 34.3706 32.9574 34.8175 33.0423 35.2485C33.1272 35.6796 33.3367 36.0756 33.6444 36.3863C33.952 36.6971 34.344 36.9088 34.7708 36.9945C35.1976 37.0803 35.6399 37.0362 36.0419 36.8681C36.4439 36.6999 36.7875 36.415 37.0292 36.0496C37.271 35.6841 37.4 35.2545 37.4 34.815C37.4 34.2256 37.1682 33.6604 36.7556 33.2436C36.3431 32.8269 35.7835 32.5928 35.2 32.5928ZM35.2 35.5557C35.055 35.5557 34.9132 35.5123 34.7926 35.4309C34.672 35.3495 34.578 35.2338 34.5225 35.0985C34.467 34.9631 34.4525 34.8142 34.4808 34.6705C34.5091 34.5268 34.5789 34.3948 34.6815 34.2912C34.784 34.1876 34.9147 34.1171 35.0569 34.0885C35.1992 34.0599 35.3466 34.0746 35.4806 34.1306C35.6146 34.1867 35.7292 34.2816 35.8097 34.4035C35.8903 34.5253 35.9333 34.6685 35.9333 34.815C35.9333 35.0114 35.8561 35.1999 35.7185 35.3388C35.581 35.4777 35.3945 35.5557 35.2 35.5557Z" fill="#EC1314"/>
<path d="M11.7332 32.5928C11.2981 32.5928 10.8727 32.7231 10.511 32.9673C10.1492 33.2115 9.86718 33.5585 9.70067 33.9646C9.53416 34.3706 9.49059 34.8175 9.57548 35.2485C9.66036 35.6796 9.86989 36.0756 10.1776 36.3863C10.4852 36.6971 10.8772 36.9088 11.304 36.9945C11.7308 37.0803 12.1731 37.0362 12.5751 36.8681C12.9771 36.6999 13.3207 36.415 13.5624 36.0496C13.8042 35.6841 13.9332 35.2545 13.9332 34.815C13.9332 34.2256 13.7014 33.6604 13.2888 33.2436C12.8763 32.8269 12.3167 32.5928 11.7332 32.5928ZM11.7332 35.5557C11.5882 35.5557 11.4464 35.5123 11.3258 35.4309C11.2052 35.3495 11.1112 35.2338 11.0557 35.0985C11.0002 34.9631 10.9857 34.8142 11.014 34.6705C11.0423 34.5268 11.1121 34.3948 11.2147 34.2912C11.3172 34.1876 11.4479 34.1171 11.5901 34.0885C11.7324 34.0599 11.8798 34.0746 12.0138 34.1306C12.1478 34.1867 12.2624 34.2816 12.3429 34.4035C12.4235 34.5253 12.4665 34.6685 12.4665 34.815C12.4665 35.0114 12.3893 35.1999 12.2517 35.3388C12.1142 35.4777 11.9277 35.5557 11.7332 35.5557Z" fill="#EC1314"/>
</g>
<defs>
<clipPath id="clip0_618_4084">
<rect width="44" height="40" fill="white"/>
</clipPath>
</defs>
</svg>
