<svg width="24" height="24" viewBox="0 0 24 24" fill="none" xmlns="http://www.w3.org/2000/svg">
  <path fill-rule="evenodd" clip-rule="evenodd" d="M12 7.90601C14.2609 7.90601 16.0937 9.73883 16.0938 11.9998C16.0938 14.2608 14.261 16.0935 12 16.0935C9.73907 16.0934 7.90625 14.2607 7.90625 11.9998C7.90633 9.73888 9.73912 7.90608 12 7.90601ZM12 9.40601C10.5676 9.40608 9.40633 10.5673 9.40625 11.9998C9.40625 13.4323 10.5675 14.5934 12 14.5935C13.4326 14.5935 14.5938 13.4323 14.5938 11.9998C14.5937 10.5673 13.4325 9.40601 12 9.40601Z" />
  <path fill-rule="evenodd" clip-rule="evenodd" d="M12 5.44116L12.4258 5.44604C21.213 5.64395 23.3517 11.944 23.3701 11.9988L23.2578 12.281C22.7136 13.5368 20.0354 18.5593 12 18.5593L11.6143 18.5544C3.59612 18.3558 0.629883 11.9988 0.629883 11.9988C0.654869 11.9455 3.72507 5.44116 12 5.44116ZM12 6.94116C8.28227 6.94116 5.78673 8.39507 4.20801 9.82983C3.41063 10.5545 2.84358 11.2791 2.47949 11.8162C2.43646 11.8796 2.39757 11.9411 2.36035 11.9988C2.39769 12.0566 2.43629 12.1186 2.47949 12.1824C2.84356 12.7195 3.41076 13.4439 4.20801 14.1687C5.78675 15.6039 8.28223 17.0593 12 17.0593C16.1909 17.0593 18.6627 15.5783 20.0859 14.2009C20.8119 13.4983 21.2887 12.799 21.5801 12.2849C21.6387 12.1815 21.6877 12.0848 21.7314 11.9988C21.6879 11.9131 21.6384 11.8175 21.5801 11.7146C21.2887 11.2006 20.812 10.5011 20.0859 9.79858C18.6627 8.4216 16.191 6.94116 12 6.94116Z" />
</svg>
