<svg width="19" height="18" viewBox="0 0 19 18" fill="none" xmlns="http://www.w3.org/2000/svg">
  <path d="M15.9999 0L16.2968 0.0146484C16.9834 0.0829675 17.6288 0.386728 18.121 0.878906C18.6836 1.44151 18.9999 2.20437 18.9999 3V15C18.9999 15.7956 18.6836 16.5585 18.121 17.1211C17.5584 17.6837 16.7955 18 15.9999 18H10.9999C10.2043 18 9.44144 17.6837 8.87883 17.1211C8.31622 16.5585 7.99992 15.7957 7.99992 15V14C7.99992 13.4477 8.44764 13 8.99992 13L9.10246 13.0049C9.60656 13.0562 9.99992 13.4823 9.99992 14V15C9.99992 15.2652 10.1054 15.5195 10.2929 15.707C10.4804 15.8945 10.7347 16 10.9999 16H15.9999C16.2651 16 16.5194 15.8945 16.707 15.707C16.8945 15.5195 16.9999 15.2652 16.9999 15V3C16.9999 2.7348 16.8945 2.4805 16.707 2.29297C16.5194 2.10545 16.2651 2.00002 15.9999 2H10.9999C10.7347 2 10.4804 2.10546 10.2929 2.29297C10.1054 2.48051 9.99992 2.73478 9.99992 3V4C9.99992 4.55226 9.55217 4.99996 8.99992 5C8.44764 5 7.99992 4.55228 7.99992 4V3C7.99992 2.20435 8.31622 1.44152 8.87883 0.878906C9.44144 0.316321 10.2043 0 10.9999 0H15.9999Z" />
  <path d="M3.29289 5.29297C3.68342 4.90248 4.31644 4.90246 4.70696 5.29297C5.09743 5.68348 5.09743 6.31652 4.70696 6.70703L3.41399 8H11.4999L11.6025 8.00488C12.1066 8.05625 12.4999 8.48235 12.4999 9C12.4999 9.55226 12.0522 9.99996 11.4999 10H3.41399L4.70696 11.293C5.09743 11.6835 5.09743 12.3165 4.70696 12.707C4.31644 13.0975 3.68342 13.0975 3.29289 12.707L0.292893 9.70703C-0.097631 9.31651 -0.097631 8.68349 0.292893 8.29297L3.29289 5.29297Z" />
</svg>
