<svg width="18" height="14" viewBox="0 0 18 14" fill="none" xmlns="http://www.w3.org/2000/svg">
  <path d="M15.75 0H2.25C1.65326 0 1.08096 0.256519 0.659008 0.713129C0.237051 1.16974 0 1.78904 0 2.43478V11.5652C0 12.211 0.237051 12.8303 0.659008 13.2869C1.08096 13.7435 1.65326 14 2.25 14H15.75C16.3467 14 16.919 13.7435 17.341 13.2869C17.7629 12.8303 18 12.211 18 11.5652V2.43478C18 1.78904 17.7629 1.16974 17.341 0.713129C16.919 0.256519 16.3467 0 15.75 0ZM16.875 11.5652C16.875 11.8881 16.7565 12.1977 16.5455 12.426C16.3345 12.6543 16.0484 12.7826 15.75 12.7826H2.25C1.95163 12.7826 1.66548 12.6543 1.4545 12.426C1.24353 12.1977 1.125 11.8881 1.125 11.5652V2.43478C1.125 2.11191 1.24353 1.80226 1.4545 1.57396C1.66548 1.34565 1.95163 1.21739 2.25 1.21739H15.75C16.0484 1.21739 16.3345 1.34565 16.5455 1.57396C16.7565 1.80226 16.875 2.11191 16.875 2.43478V11.5652Z" />
  <path d="M15.6202 3.26934C15.5734 3.20726 15.5157 3.1558 15.4504 3.1179C15.3852 3.08001 15.3137 3.05642 15.24 3.04851C15.1663 3.04059 15.0919 3.04849 15.021 3.07176C14.9502 3.09504 14.8842 3.13322 14.8271 3.18413L8.99955 8.34587L3.16643 3.18413C3.11032 3.12735 3.04406 3.08361 2.97173 3.0556C2.89941 3.0276 2.82254 3.01592 2.74589 3.02129C2.66923 3.02666 2.5944 3.04896 2.52601 3.08683C2.45763 3.12469 2.39713 3.17731 2.34826 3.24144C2.29938 3.30558 2.26317 3.37986 2.24185 3.45972C2.22052 3.53958 2.21453 3.62332 2.22425 3.70578C2.23398 3.78823 2.2592 3.86766 2.29838 3.93916C2.33756 4.01067 2.38986 4.07272 2.45205 4.12152L8.63955 9.59978C8.74075 9.69052 8.86812 9.74006 8.99955 9.73978C9.12905 9.73865 9.25422 9.6892 9.35393 9.59978L15.5414 4.12152C15.6556 4.01934 15.728 3.87252 15.7427 3.71296C15.7575 3.55339 15.7134 3.39397 15.6202 3.26934Z" />
  <path d="M13.3316 8.08911C13.2262 7.97574 13.0836 7.91211 12.935 7.91211C12.7864 7.91211 12.6439 7.97574 12.5385 8.08911C12.4857 8.1457 12.4439 8.21302 12.4153 8.28719C12.3868 8.36137 12.3721 8.44093 12.3721 8.52129C12.3721 8.60164 12.3868 8.6812 12.4153 8.75537C12.4439 8.82955 12.4857 8.89687 12.5385 8.95346L14.7885 11.3882C14.8409 11.4446 14.9031 11.4892 14.9715 11.5196C15.0399 11.5499 15.1131 11.5654 15.187 11.5651C15.2609 11.5648 15.3341 11.5488 15.4022 11.5179C15.4704 11.487 15.5323 11.442 15.5844 11.3852C15.6365 11.3284 15.6777 11.2611 15.7058 11.1871C15.7338 11.1131 15.7481 11.0339 15.7478 10.9539C15.7476 10.8739 15.7328 10.7948 15.7042 10.721C15.6757 10.6472 15.634 10.5802 15.5816 10.5239L13.3316 8.08911Z" />
  <path d="M4.68579 8.08911L2.43579 10.5239C2.32987 10.6377 2.27006 10.7924 2.26953 10.9539C2.26901 11.1154 2.3278 11.2706 2.43297 11.3852C2.53815 11.4998 2.68109 11.5645 2.83036 11.5651C2.97963 11.5657 3.123 11.5021 3.22892 11.3882L5.47892 8.95346C5.53164 8.89687 5.57348 8.82955 5.60204 8.75537C5.6306 8.6812 5.6453 8.60164 5.6453 8.52129C5.6453 8.44093 5.6306 8.36137 5.60204 8.28719C5.57348 8.21302 5.53164 8.1457 5.47892 8.08911C5.37352 7.97574 5.23096 7.91211 5.08235 7.91211C4.93375 7.91211 4.79118 7.97574 4.68579 8.08911Z" />
</svg>
