<svg width="11" height="14" viewBox="0 0 11 14" fill="none" xmlns="http://www.w3.org/2000/svg">
  <path d="M7.03809 8C7.91432 8.0001 8.75439 8.34821 9.37402 8.96777C9.99376 9.58751 10.3428 10.4283 10.3428 11.3047V13.2754H9.06641V11.3047C9.06641 10.7668 8.85289 10.2505 8.47266 9.87012C8.09229 9.48975 7.576 9.27549 7.03809 9.27539H3.30469C2.76664 9.27539 2.25058 9.48966 1.87012 9.87012C1.48966 10.2506 1.27539 10.7666 1.27539 11.3047V13.2754H0V11.3047C0 10.4283 0.34804 9.58751 0.967773 8.96777C1.58751 8.34804 2.42825 8 3.30469 8H7.03809Z" />
  <path fill-rule="evenodd" clip-rule="evenodd" d="M5.1709 0C6.04733 0 6.88808 0.348039 7.50781 0.967773C8.12749 1.5875 8.47559 2.4283 8.47559 3.30469C8.4755 4.18088 8.12731 5.02099 7.50781 5.64062C6.88808 6.26036 6.04733 6.60938 5.1709 6.60938C4.29451 6.60934 3.45369 6.26033 2.83398 5.64062C2.21457 5.02101 1.8663 4.18082 1.86621 3.30469C1.86621 2.42836 2.21439 1.58749 2.83398 0.967773C3.45369 0.34807 4.29451 3.43494e-05 5.1709 0ZM5.1709 1.27539C4.63289 1.27543 4.11676 1.48969 3.73633 1.87012C3.35601 2.25056 3.14258 2.76674 3.14258 3.30469C3.14266 3.84262 3.35594 4.35887 3.73633 4.73926C4.11675 5.11963 4.63294 5.33297 5.1709 5.33301C5.70884 5.33301 6.22503 5.11958 6.60547 4.73926C6.98585 4.35887 7.20011 3.84262 7.2002 3.30469C7.2002 2.76668 6.98587 2.25057 6.60547 1.87012C6.22501 1.48966 5.70895 1.27539 5.1709 1.27539Z" />
</svg>
