<svg width="22" height="12" viewBox="0 0 22 12" fill="none" xmlns="http://www.w3.org/2000/svg">
  <path fill-rule="evenodd" clip-rule="evenodd" d="M10.7975 11.925H12.1308C12.1308 11.925 12.5308 11.861 12.7313 11.6712C12.9308 11.4813 12.9308 11.1005 12.9308 11.1005C12.9308 11.1005 12.9308 9.4515 13.7308 9.19764C14.5319 8.94378 15.5986 10.8467 16.6663 11.5442C17.4663 12.1149 18.0669 11.988 18.0669 11.988L21.0002 11.924C21.0002 11.924 22.5351 11.861 21.8013 10.6557C21.7351 10.5928 21.4013 9.83122 19.6007 8.24513C17.734 6.59717 18.0007 6.91396 20.2013 4.05963C21.5346 2.34767 22.0679 1.33223 21.9346 0.825579C21.8013 0.38079 20.8007 0.50772 20.8007 0.50772H17.4663C17.4663 0.50772 17.1996 0.443722 17.0663 0.571719C16.8658 0.698649 16.7996 0.888511 16.7996 0.888511C16.7996 0.888511 16.2663 2.22074 15.5986 3.36312C14.1319 5.70972 13.5314 5.83559 13.3308 5.70972C12.7975 5.39187 12.9308 4.31349 12.9308 3.61591C12.9308 1.3333 13.3308 0.38079 12.198 0.127997C11.8641 0.0639983 11.5975 0 10.6641 0C9.46306 0 8.46252 -9.5365e-08 7.92918 0.25386C7.52918 0.444789 7.26251 0.825579 7.46198 0.825579C7.66251 0.825579 8.19585 0.951443 8.46252 1.2693C8.72919 1.83995 8.72919 2.7914 8.72919 2.7914C8.72919 2.7914 8.92972 5.5188 8.26305 5.83559C7.79585 6.08945 7.19638 5.58173 5.86197 3.42498C5.1953 2.34767 4.66089 1.07837 4.66089 1.07837C4.66089 1.07837 4.59476 0.825579 4.39422 0.698649C4.19476 0.570652 3.86089 0.50772 3.86089 0.50772H0.725931C0.725931 0.50772 0.259794 0.50772 0.0592597 0.698649C-0.0740746 0.888511 0.0592597 1.2053 0.0592597 1.2053C0.0592597 1.2053 2.52648 6.6601 5.32863 9.45043C7.92918 12.1149 10.7975 11.925 10.7975 11.925Z" />
</svg>
