<svg xmlns="http://www.w3.org/2000/svg" version="1.1" xmlns:xlink="http://www.w3.org/1999/xlink" width="512" height="512"><svg xmlns="http://www.w3.org/2000/svg" version="1.1" xmlns:xlink="http://www.w3.org/1999/xlink" width="512" height="512"><svg width="512" height="512" viewBox="0 0 512 512" fill="none" xmlns="http://www.w3.org/2000/svg">
<rect width="512" height="512" rx="40" fill="white"></rect>
<g clip-path="url(#clip0_1765_46)">
<path d="M22.4824 299.564H30.1659L47.7282 327.679L65.1907 299.564H72.8743V332.523H69.282V302.223H67.2864L48.6264 332.523H46.7803L28.1203 302.223H26.0747V332.523H22.4824V299.564Z" fill="#0C0B0B"></path>
<path d="M79.7561 332.523H75.7646L93.7261 299.564H99.2143L117.176 332.523H112.985L108.544 324.26H84.1965L79.7561 332.523ZM86.1424 320.935H106.698L96.4203 301.938L86.1424 320.935Z" fill="#0C0B0B"></path>
<path d="M156.077 323.12H159.67C159.67 329.294 156.277 332.523 147.097 332.523H131.929C122.649 332.523 119.156 329.199 119.156 320.745V311.247C119.156 302.508 122.649 299.184 131.929 299.184H147.097C155.479 299.184 159.67 302.223 159.67 308.587H156.077C156.077 304.883 154.032 302.508 147.147 302.508H131.979C124.944 302.508 122.749 304.503 122.749 311.247V320.745C122.749 327.299 125.094 329.199 131.979 329.199H147.147C153.732 329.199 156.077 327.299 156.077 323.12Z" fill="#0C0B0B"></path>
<path d="M163.168 299.564H200.488V302.888H183.574V332.523H179.982V302.888H163.168V299.564Z" fill="#0C0B0B"></path>
<path d="M204.079 332.523V299.564H234.764V302.888H207.672V313.811H234.065V317.136H207.672V329.199H234.764V332.523H204.079Z" fill="#0C0B0B"></path>
<path d="M244.107 318.893V332.523H240.515V299.564H263.865C272.447 299.564 276.039 302.318 276.039 309.727C276.039 317.088 272.596 318.893 263.915 318.893H244.107ZM244.107 302.888V315.569H265.312C270.401 315.569 272.447 314.476 272.447 309.394C272.447 304.455 270.551 302.888 264.963 302.888H244.107Z" fill="#0C0B0B"></path>
<path d="M280.552 332.523V328.819H284.444V332.523H280.552Z" fill="#0C0B0B"></path>
<path d="M298.262 318.893V332.523H294.668V299.564H318.018C326.6 299.564 330.194 302.318 330.194 309.727C330.194 317.088 326.75 318.893 318.068 318.893H298.262ZM298.262 302.888V315.569H319.467C324.554 315.569 326.6 314.476 326.6 309.394C326.6 304.455 324.704 302.888 319.117 302.888H298.262Z" fill="#0C0B0B"></path>
<path d="M357.406 325.969V305.453H346.929C340.443 305.453 337.65 307.21 337.65 313.621V317.943C337.65 324.354 340.193 325.969 346.929 325.969H357.406ZM361 305.453V325.969H371.528C378.261 325.969 380.756 324.402 380.756 317.991V313.669C380.756 307.305 377.964 305.453 371.528 305.453H361ZM357.406 299.184H361V302.128H371.478C381.256 302.128 384.35 306.07 384.35 313.906V317.991C384.35 326.492 380.856 329.294 371.478 329.294H361V332.523H357.406V329.294H346.929C337.55 329.294 334.056 326.397 334.056 317.991V313.906C334.056 305.453 337.151 302.128 346.929 302.128H357.406V299.184Z" fill="#0C0B0B"></path>
<path d="M72.8742 299.564H65.1906L47.7282 327.679L30.1659 299.564H22.4824V332.523H26.0747V302.223H28.1203L46.7802 332.523H48.6263L67.2864 302.223H69.2819V332.523H72.8742V299.564ZM99.5021 299.088L99.6386 299.337L117.983 333H112.696L108.253 324.735H84.4875L80.0449 333H74.9576L93.3019 299.337L93.4384 299.088H99.5021ZM200.488 302.888V299.564H163.168V302.888H179.982V332.523H183.574V302.888H200.488ZM234.764 329.199H207.672V317.136H234.065V313.811H207.672V302.888H234.764V299.564H204.079V332.523H234.764V329.199ZM276.039 309.727C276.039 302.318 272.447 299.564 263.865 299.564L263.864 299.088C268.184 299.088 271.372 299.776 273.477 301.5C275.605 303.244 276.522 305.955 276.522 309.728C276.521 313.47 275.645 315.955 273.512 317.458C271.43 318.925 268.256 319.369 263.916 319.37H244.588V333H240.033V299.088H263.864L263.865 299.564H240.515V332.523H244.108V318.893H263.915L265.481 318.87C272.763 318.652 275.833 316.761 276.03 310.4L276.039 309.727ZM284.444 328.819H280.552V332.523H284.444V328.819ZM330.194 309.727C330.194 302.781 327.036 299.925 319.569 299.595L318.018 299.564V299.088C322.34 299.088 325.527 299.776 327.63 301.5C329.76 303.244 330.675 305.955 330.675 309.728C330.675 313.47 329.799 315.955 327.667 317.458C325.585 318.926 322.409 319.37 318.068 319.37H298.743V333H294.187V299.088H318.018V299.564H294.668V332.523H298.262V318.893H318.068L319.635 318.87C326.915 318.652 329.986 316.76 330.183 310.4L330.194 309.727ZM384.35 317.991V313.906C384.35 306.07 381.256 302.128 371.478 302.128L371.475 301.651C376.413 301.651 379.791 302.645 381.921 304.742C384.051 306.84 384.831 309.943 384.831 313.907V317.991C384.831 322.288 383.951 325.288 381.747 327.188C379.56 329.072 376.187 329.77 371.475 329.77H361.481V333H356.925V329.77H346.929C342.215 329.769 338.841 329.049 336.656 327.153C334.456 325.243 333.575 322.242 333.575 317.991V313.907C333.575 309.644 334.351 306.529 336.493 304.502C338.628 302.482 342.009 301.651 346.929 301.651V302.128C337.151 302.128 334.056 305.453 334.056 313.906V317.991L334.067 318.763C334.28 326.575 337.842 329.294 346.929 329.294H357.406V332.523H361V329.294H371.478C380.564 329.294 384.127 326.664 384.34 318.772L384.35 317.991ZM93.726 299.564L75.7645 332.523H79.7559L84.1964 324.259H108.544L112.985 332.523H117.176L99.2142 299.564H93.726ZM147.147 328.723V329.199H131.979V328.723H147.147ZM155.596 323.121V322.644H160.152V323.121C160.151 326.294 159.275 328.809 157.126 330.509C155.002 332.189 151.725 333 147.097 333H131.93C127.252 333 123.903 332.166 121.734 330.151C119.556 328.129 118.675 325.02 118.675 320.744V311.246C118.675 306.833 119.554 303.654 121.729 301.595C123.899 299.542 127.252 298.707 131.93 298.707L131.929 299.183L131.075 299.193C122.434 299.396 119.157 302.782 119.157 311.246V320.745L119.167 321.523C119.373 329.149 122.713 332.317 131.075 332.514L131.929 332.523H147.097L147.94 332.514C156.485 332.319 159.669 329.1 159.67 323.12H156.077L156.05 323.877C155.769 327.529 153.321 329.199 147.147 329.199V328.723C150.416 328.723 152.519 328.246 153.801 327.339C155.041 326.462 155.596 325.118 155.596 323.121ZM380.275 317.991V313.67C380.275 310.541 379.586 308.661 378.243 307.537C376.878 306.395 374.725 305.928 371.528 305.928H361.481V325.493H371.528V325.969H361V305.453H371.528C377.964 305.453 380.756 307.305 380.756 313.669V317.991L380.727 319.137C380.43 324.592 377.84 325.969 371.528 325.969V325.493C374.893 325.493 377.038 325.092 378.361 324.016C379.652 322.964 380.275 321.159 380.275 317.991ZM337.65 317.943V313.621C337.65 307.611 340.106 305.691 345.756 305.474L346.929 305.453H357.406V325.969H346.929V325.493H356.925V305.928H346.929C343.7 305.928 341.536 306.374 340.166 307.5C338.82 308.605 338.131 310.468 338.131 313.621V317.944C338.131 321.109 338.762 322.928 340.069 323.993C341.405 325.081 343.566 325.493 346.929 325.493V325.969L345.714 325.949C340.274 325.761 337.963 324.186 337.679 319.091L337.65 317.943ZM106.698 320.935H86.1423L96.4201 301.938L106.698 320.935ZM86.9463 320.458H105.895L96.4196 302.946L86.9463 320.458ZM271.966 309.395C271.966 306.964 271.494 305.518 270.484 304.649C269.453 303.762 267.743 303.365 264.964 303.365H244.588V315.093H265.312L265.312 315.568H244.108V302.888H264.963C270.551 302.888 272.447 304.455 272.447 309.394L272.423 310.302C272.179 314.608 270.083 315.568 265.312 315.568L265.312 315.093C267.858 315.093 269.482 314.81 270.486 314.016C271.457 313.248 271.966 311.895 271.966 309.395ZM326.118 309.395C326.118 306.965 325.648 305.518 324.638 304.649C323.608 303.762 321.896 303.365 319.117 303.365H298.743V315.093H319.467V315.568H298.262V302.888H319.117C324.704 302.888 326.6 304.455 326.6 309.394L326.576 310.302C326.334 314.608 324.236 315.568 319.467 315.568V315.093C322.012 315.093 323.637 314.81 324.641 314.016C325.611 313.248 326.118 311.895 326.118 309.395ZM147.097 298.707C151.332 298.707 154.598 299.473 156.815 301.118C159.059 302.784 160.151 305.292 160.152 308.586V309.063H155.596V308.586C155.596 306.823 155.113 305.471 153.897 304.535C152.652 303.576 150.552 302.984 147.147 302.984H131.979C128.475 302.984 126.34 303.489 125.059 304.693C123.784 305.89 123.23 307.895 123.23 311.246V320.744C123.23 323.991 123.818 325.925 125.106 327.077C126.408 328.241 128.549 328.723 131.979 328.723V329.199C125.094 329.199 122.749 327.299 122.749 320.745V311.246C122.749 304.925 124.678 302.776 130.715 302.532L131.979 302.508H147.147C154.032 302.508 156.077 304.883 156.077 308.587H159.67C159.669 302.423 155.736 299.377 147.871 299.193L147.097 299.183L147.097 298.707ZM361 299.183H357.406V302.128H346.929V301.651H356.925V298.707H361.481V301.651H371.475L371.478 302.128H361V299.183ZM147.097 298.707L147.097 299.183H131.929L131.93 298.707H147.097ZM284.927 333H280.07V328.342H284.927V333ZM73.3551 333H68.7997V302.7H67.5572L49.0388 332.77L48.8976 333H46.5093L46.3681 332.77L27.8497 302.7H26.5555V333H22V299.088H30.4356L47.7258 326.77L64.7807 299.314L64.9219 299.088H73.3551V333ZM200.97 303.365H184.056V333H179.499V303.365H162.686V299.088H200.97V303.365ZM235.244 303.365H208.154V313.335H234.548V317.612H208.154V328.723H235.244V333H203.598V299.088H235.244V303.365Z" fill="#0C0B0B"></path>
<path d="M35.6307 181.082H133.07V274.966H110.667V199.751H58.0336V240.875C58.0336 264.955 48.1817 274.966 31.447 274.966H22V256.297C33.4713 256.297 35.6307 251.968 35.6307 238.305V181.082Z" fill="#0C0B0B"></path>
<path d="M214.263 240.605C214.263 252.915 218.177 256.297 231.808 256.297H322.842C337.148 256.297 340.387 253.186 340.387 240.47V215.443C340.387 201.78 335.799 198.668 322.438 198.668H232.212C218.177 198.668 214.263 202.186 214.263 215.578V240.605ZM169.322 235.735V274.966H146.919V181.082H169.322V217.066H191.86V213.279C191.86 187.576 191.86 180 226.409 180H328.916C362.788 180 362.788 186.899 362.788 213.279V242.905C362.788 266.308 362.788 274.966 328.916 274.966H226.409C191.86 274.966 191.86 265.631 191.86 242.905V235.735H169.322Z" fill="#0C0B0B"></path>
<path d="M400.118 181.082V216.119H413.345L454.237 181.082H487.841L432.644 225.048L490 274.966H457.072L413.75 234.788H400.118V274.966H377.717V181.082H400.118Z" fill="#0C0B0B"></path>
<path d="M292.809 224.845C292.809 220.474 292.809 216.931 300.697 216.931H316.472C324.36 216.931 324.36 220.474 324.36 224.845V230.121C324.36 234.492 324.36 238.035 316.472 238.035H300.697C292.809 238.035 292.809 234.492 292.809 230.121V224.845Z" fill="#EC1314"></path>
</g>
<defs>
<clipPath id="clip0_1765_46">
<rect width="468" height="153" fill="white" transform="translate(22 180)"></rect>
</clipPath>
</defs>
</svg></svg><style>@media (prefers-color-scheme: light) { :root { filter: none; } }
@media (prefers-color-scheme: dark) { :root { filter: none; } }
</style></svg>