<svg width="116" height="55" viewBox="0 0 116 55" fill="none" xmlns="http://www.w3.org/2000/svg">
<path d="M8.17648 0.152029C10.2885 0.152029 12.0271 0.354696 13.3925 0.760029C14.7578 1.16536 15.7711 1.7947 16.4325 2.64803C17.0938 3.48003 17.4245 4.56803 17.4245 5.91203C17.4245 6.82936 17.2645 7.64003 16.9445 8.34403C16.6245 9.0267 16.1978 9.59203 15.6645 10.04C15.1311 10.4667 14.5338 10.744 13.8725 10.872V11.032C14.5551 11.1814 15.2058 11.448 15.8245 11.832C16.4431 12.1947 16.9445 12.7387 17.3285 13.464C17.7338 14.1894 17.9365 15.1494 17.9365 16.344C17.9365 17.7307 17.5845 18.9254 16.8805 19.928C16.1978 20.9307 15.2165 21.6987 13.9365 22.232C12.6565 22.744 11.1418 23 9.39248 23H0.688477V0.152029H8.17648ZM8.52848 9.08003C9.74448 9.08003 10.5978 8.8667 11.0885 8.44003C11.5791 7.99203 11.8245 7.3947 11.8245 6.64803C11.8245 5.90136 11.5365 5.3467 10.9605 4.98403C10.4058 4.62136 9.52048 4.44003 8.30448 4.44003H6.12848V9.08003H8.52848ZM6.12848 13.24V18.648H8.84848C10.1285 18.648 11.0138 18.392 11.5045 17.88C12.0165 17.368 12.2725 16.696 12.2725 15.864C12.2725 15.352 12.1658 14.904 11.9525 14.52C11.7391 14.1147 11.3658 13.8054 10.8325 13.592C10.3205 13.3574 9.61648 13.24 8.72048 13.24H6.12848Z" fill="white"/>
<path d="M30.2197 0.152029C32.2891 0.152029 33.9957 0.408029 35.3397 0.920029C36.7051 1.4107 37.7291 2.16803 38.4117 3.19203C39.0944 4.1947 39.4357 5.45336 39.4357 6.96803C39.4357 7.94936 39.2544 8.82403 38.8917 9.59203C38.5291 10.36 38.0384 11.032 37.4197 11.608C36.8224 12.184 36.1291 12.664 35.3397 13.048L42.0277 23H35.9157L30.7637 14.424H28.6197V23H23.1797V0.152029H30.2197ZM29.9957 4.44003H28.6197V10.168H29.9957C30.8704 10.168 31.5957 10.072 32.1717 9.88003C32.7477 9.6667 33.1744 9.33603 33.4517 8.88803C33.7504 8.4187 33.8997 7.8427 33.8997 7.16003C33.8997 6.54136 33.7611 6.04003 33.4837 5.65603C33.2064 5.2507 32.7797 4.95203 32.2037 4.76003C31.6277 4.5467 30.8917 4.44003 29.9957 4.44003Z" fill="white"/>
<path d="M59.4987 23L58.0907 18.104H50.1867L48.7787 23H42.8267L50.6027 0.0560303H57.5787L65.4507 23H59.4987ZM55.5307 8.98403C55.4241 8.60003 55.2747 8.08803 55.0827 7.44803C54.9121 6.7867 54.7307 6.1147 54.5387 5.43203C54.3681 4.74936 54.2294 4.17336 54.1227 3.70403C54.0374 4.17336 53.8987 4.76003 53.7067 5.46403C53.5361 6.1467 53.3654 6.8187 53.1947 7.48003C53.0241 8.12003 52.8854 8.62136 52.7787 8.98403L51.4347 13.56H56.8747L55.5307 8.98403Z" fill="white"/>
<path d="M90.0597 23H83.0197L73.8037 6.26403H73.6757C73.6971 6.71203 73.7184 7.2027 73.7397 7.73603C73.7824 8.24803 73.8144 8.78136 73.8357 9.33603C73.8571 9.86936 73.8784 10.4027 73.8997 10.936C73.9211 11.448 73.9424 11.9494 73.9637 12.44V23H69.0997V0.152029H76.1077L85.2917 16.696H85.3877C85.3664 16.248 85.3451 15.7787 85.3237 15.288C85.3024 14.776 85.2811 14.264 85.2597 13.752C85.2384 13.2187 85.2171 12.7067 85.1957 12.216C85.1957 11.704 85.1851 11.2134 85.1637 10.744V0.152029H90.0597V23Z" fill="white"/>
<path d="M115.539 11.224C115.539 13.8267 115.049 16.0027 114.067 17.752C113.086 19.5014 111.678 20.8134 109.843 21.688C108.009 22.5627 105.822 23 103.283 23H96.4035V0.152029H103.923C106.334 0.152029 108.403 0.578696 110.131 1.43203C111.881 2.28536 113.214 3.53336 114.131 5.17603C115.07 6.79736 115.539 8.81336 115.539 11.224ZM109.907 11.416C109.907 9.8587 109.683 8.5787 109.235 7.57603C108.809 6.57336 108.158 5.8267 107.283 5.33603C106.43 4.84536 105.363 4.60003 104.083 4.60003H101.843V18.52H103.603C105.758 18.52 107.347 17.9334 108.371 16.76C109.395 15.5654 109.907 13.784 109.907 11.416Z" fill="white"/>
<path d="M21.6485 55H14.6085L5.39248 38.264H5.26448C5.28581 38.712 5.30714 39.2027 5.32848 39.736C5.37114 40.248 5.40314 40.7814 5.42448 41.336C5.44581 41.8694 5.46714 42.4027 5.48848 42.936C5.50981 43.448 5.53114 43.9494 5.55248 44.44V55H0.688477V32.152H7.69648L16.8805 48.696H16.9765C16.9551 48.248 16.9338 47.7787 16.9125 47.288C16.8911 46.776 16.8698 46.264 16.8485 45.752C16.8271 45.2187 16.8058 44.7067 16.7845 44.216C16.7845 43.704 16.7738 43.2134 16.7525 42.744V32.152H21.6485V55Z" fill="white"/>
<path d="M41.9762 55L40.5682 50.104H32.6642L31.2562 55H25.3042L33.0802 32.056H40.0562L47.9282 55H41.9762ZM38.0082 40.984C37.9016 40.6 37.7522 40.088 37.5602 39.448C37.3896 38.7867 37.2082 38.1147 37.0162 37.432C36.8456 36.7494 36.7069 36.1734 36.6002 35.704C36.5149 36.1734 36.3762 36.76 36.1842 37.464C36.0136 38.1467 35.8429 38.8187 35.6722 39.48C35.5016 40.12 35.3629 40.6214 35.2562 40.984L33.9122 45.56H39.3522L38.0082 40.984Z" fill="white"/>
<path d="M61.3692 55L56.2492 37.752H56.1212C56.1639 38.1787 56.2066 38.7974 56.2492 39.608C56.2919 40.3974 56.3346 41.2507 56.3772 42.168C56.4199 43.064 56.4412 43.9067 56.4412 44.696V55H51.5772V32.152H58.9372L64.0252 49.048H64.1532L69.4012 32.152H76.7292V55H71.6732V44.568C71.6732 43.8427 71.6839 43.0427 71.7052 42.168C71.7479 41.272 71.7799 40.4294 71.8012 39.64C71.8439 38.8294 71.8759 38.2107 71.8972 37.784H71.7692L66.4892 55H61.3692Z" fill="white"/>
<path d="M96.4125 55H83.0685V32.152H96.4125V36.568H88.5085V40.952H95.8365V45.368H88.5085V50.52H96.4125V55Z" fill="white"/>
</svg>
